M48
; DRILL file {KiCad 9.0.7} date 2026-03-13T14:23:40-0700
; FORMAT={-:-/ absolute / metric / decimal}
; #@! TF.CreationDate,2026-03-13T14:23:40-07:00
; #@! TF.GenerationSoftware,Kicad,Pcbnew,9.0.7
; #@! TF.FileFunction,Plated,1,4,PTH
FMAT,2
METRIC
; #@! TA.AperFunction,Plated,PTH,ViaDrill
T1C0.300
; #@! TA.AperFunction,Plated,PTH,ComponentDrill
T2C0.950
; #@! TA.AperFunction,Plated,PTH,ComponentDrill
T3C1.000
; #@! TA.AperFunction,Plated,PTH,ComponentDrill
T4C2.000
; #@! TA.AperFunction,Plated,PTH,ComponentDrill
T5C3.500
%
G90
G05
T1
X115.0Y-83.5
X116.0Y-83.5
X117.0Y-83.5
X118.0Y-83.5
X119.0Y-83.5
X120.0Y-83.5
T2
X122.5Y-149.475
X125.0Y-149.475
X127.5Y-149.475
X130.0Y-149.475
X132.5Y-149.475
X135.0Y-149.475
X137.5Y-149.475
X146.5Y-149.475
X149.0Y-149.475
X151.5Y-149.475
X154.0Y-149.475
X156.5Y-149.475
X159.0Y-149.475
X161.5Y-149.475
X174.475Y-98.0
X174.475Y-100.5
X174.475Y-103.0
X174.475Y-105.5
X174.475Y-108.0
X174.475Y-110.5
X174.475Y-113.0
X174.475Y-121.5
X174.475Y-124.0
X174.475Y-126.5
X174.475Y-129.0
X174.475Y-131.5
X174.475Y-134.0
X174.475Y-136.5
X174.5Y-71.0
X174.5Y-73.5
X174.5Y-76.0
X174.5Y-84.5
X174.5Y-87.0
X174.5Y-89.5
T3
X56.1Y-75.0
X58.5Y-75.0
X59.15Y-37.3
X59.15Y-62.7
X61.69Y-37.3
X61.69Y-62.7
X64.23Y-37.3
X64.23Y-62.7
X66.77Y-37.3
X66.77Y-62.7
X69.31Y-37.3
X69.31Y-62.7
X70.1Y-75.0
X71.85Y-37.3
X71.85Y-62.7
X72.5Y-75.0
X74.39Y-37.3
X74.39Y-62.7
X76.93Y-37.3
X76.93Y-62.7
X79.47Y-37.3
X79.47Y-62.7
X82.01Y-37.3
X82.01Y-62.7
X84.55Y-37.3
X84.55Y-62.7
X87.09Y-37.3
X87.09Y-62.7
X87.5Y-75.0
X89.63Y-37.3
X89.63Y-62.7
X89.9Y-75.0
X92.17Y-37.3
X92.17Y-62.7
X94.71Y-37.3
X94.71Y-62.7
X101.5Y-75.0
X103.9Y-75.0
X111.0Y-45.0
X114.46Y-73.0
X116.0Y-45.0
X117.0Y-73.0
X121.0Y-45.0
X127.76Y-73.19
X127.76Y-75.73
X127.76Y-78.27
X127.76Y-80.81
X127.76Y-91.19
X127.76Y-93.73
X127.76Y-96.27
X127.76Y-98.81
X127.76Y-109.19
X127.76Y-111.73
X127.76Y-114.27
X127.76Y-116.81
X127.76Y-127.19
X127.76Y-129.73
X127.76Y-132.27
X127.76Y-134.81
X158.24Y-73.19
X158.24Y-75.73
X158.24Y-78.27
X158.24Y-80.81
X158.24Y-91.19
X158.24Y-93.73
X158.24Y-96.27
X158.24Y-98.81
X158.24Y-109.19
X158.24Y-111.73
X158.24Y-114.27
X158.24Y-116.81
X158.24Y-127.19
X158.24Y-129.73
X158.24Y-132.27
X158.24Y-134.81
T4
X111.0Y-55.0
X121.0Y-55.0
T5
X49.266Y-89.266
X49.266Y-150.734
X110.734Y-89.266
X110.734Y-150.734
M30
