%TF.GenerationSoftware,KiCad,Pcbnew,9.0.7*%
%TF.CreationDate,2026-03-13T14:23:01-07:00*%
%TF.ProjectId,control_board_pcb,636f6e74-726f-46c5-9f62-6f6172645f70,rev?*%
%TF.SameCoordinates,Original*%
%TF.FileFunction,Legend,Top*%
%TF.FilePolarity,Positive*%
%FSLAX46Y46*%
G04 Gerber Fmt 4.6, Leading zero omitted, Abs format (unit mm)*
G04 Created by KiCad (PCBNEW 9.0.7) date 2026-03-13 14:23:01*
%MOMM*%
%LPD*%
G01*
G04 APERTURE LIST*
%ADD10C,0.100000*%
%ADD11C,0.200000*%
%ADD12C,0.150000*%
%ADD13C,0.120000*%
%ADD14C,1.000000*%
G04 APERTURE END LIST*
D10*
X117523808Y-77785144D02*
X117380951Y-77737524D01*
X117380951Y-77737524D02*
X117142856Y-77737524D01*
X117142856Y-77737524D02*
X117047618Y-77785144D01*
X117047618Y-77785144D02*
X116999999Y-77832763D01*
X116999999Y-77832763D02*
X116952380Y-77928001D01*
X116952380Y-77928001D02*
X116952380Y-78023239D01*
X116952380Y-78023239D02*
X116999999Y-78118477D01*
X116999999Y-78118477D02*
X117047618Y-78166096D01*
X117047618Y-78166096D02*
X117142856Y-78213715D01*
X117142856Y-78213715D02*
X117333332Y-78261334D01*
X117333332Y-78261334D02*
X117428570Y-78308953D01*
X117428570Y-78308953D02*
X117476189Y-78356572D01*
X117476189Y-78356572D02*
X117523808Y-78451810D01*
X117523808Y-78451810D02*
X117523808Y-78547048D01*
X117523808Y-78547048D02*
X117476189Y-78642286D01*
X117476189Y-78642286D02*
X117428570Y-78689905D01*
X117428570Y-78689905D02*
X117333332Y-78737524D01*
X117333332Y-78737524D02*
X117095237Y-78737524D01*
X117095237Y-78737524D02*
X116952380Y-78689905D01*
X116523808Y-77737524D02*
X116523808Y-78737524D01*
X115952380Y-77737524D02*
X116380951Y-78308953D01*
X115952380Y-78737524D02*
X116523808Y-78166096D01*
X115523808Y-77737524D02*
X115523808Y-78737524D01*
X115047618Y-77737524D02*
X115047618Y-78737524D01*
X115047618Y-78737524D02*
X114666666Y-78737524D01*
X114666666Y-78737524D02*
X114571428Y-78689905D01*
X114571428Y-78689905D02*
X114523809Y-78642286D01*
X114523809Y-78642286D02*
X114476190Y-78547048D01*
X114476190Y-78547048D02*
X114476190Y-78404191D01*
X114476190Y-78404191D02*
X114523809Y-78308953D01*
X114523809Y-78308953D02*
X114571428Y-78261334D01*
X114571428Y-78261334D02*
X114666666Y-78213715D01*
X114666666Y-78213715D02*
X115047618Y-78213715D01*
X118238094Y-76175200D02*
X118095237Y-76127580D01*
X118095237Y-76127580D02*
X117857142Y-76127580D01*
X117857142Y-76127580D02*
X117761904Y-76175200D01*
X117761904Y-76175200D02*
X117714285Y-76222819D01*
X117714285Y-76222819D02*
X117666666Y-76318057D01*
X117666666Y-76318057D02*
X117666666Y-76413295D01*
X117666666Y-76413295D02*
X117714285Y-76508533D01*
X117714285Y-76508533D02*
X117761904Y-76556152D01*
X117761904Y-76556152D02*
X117857142Y-76603771D01*
X117857142Y-76603771D02*
X118047618Y-76651390D01*
X118047618Y-76651390D02*
X118142856Y-76699009D01*
X118142856Y-76699009D02*
X118190475Y-76746628D01*
X118190475Y-76746628D02*
X118238094Y-76841866D01*
X118238094Y-76841866D02*
X118238094Y-76937104D01*
X118238094Y-76937104D02*
X118190475Y-77032342D01*
X118190475Y-77032342D02*
X118142856Y-77079961D01*
X118142856Y-77079961D02*
X118047618Y-77127580D01*
X118047618Y-77127580D02*
X117809523Y-77127580D01*
X117809523Y-77127580D02*
X117666666Y-77079961D01*
X117238094Y-76127580D02*
X117238094Y-77127580D01*
X117238094Y-76651390D02*
X116666666Y-76651390D01*
X116666666Y-76127580D02*
X116666666Y-77127580D01*
X116190475Y-77127580D02*
X116190475Y-76318057D01*
X116190475Y-76318057D02*
X116142856Y-76222819D01*
X116142856Y-76222819D02*
X116095237Y-76175200D01*
X116095237Y-76175200D02*
X115999999Y-76127580D01*
X115999999Y-76127580D02*
X115809523Y-76127580D01*
X115809523Y-76127580D02*
X115714285Y-76175200D01*
X115714285Y-76175200D02*
X115666666Y-76222819D01*
X115666666Y-76222819D02*
X115619047Y-76318057D01*
X115619047Y-76318057D02*
X115619047Y-77127580D01*
X115142856Y-76127580D02*
X115142856Y-77127580D01*
X115142856Y-77127580D02*
X114571428Y-76127580D01*
X114571428Y-76127580D02*
X114571428Y-77127580D01*
X114238094Y-77127580D02*
X113666666Y-77127580D01*
X113952380Y-76127580D02*
X113952380Y-77127580D01*
X100761904Y-65542580D02*
X100761904Y-64733057D01*
X100761904Y-64733057D02*
X100714285Y-64637819D01*
X100714285Y-64637819D02*
X100666666Y-64590200D01*
X100666666Y-64590200D02*
X100571428Y-64542580D01*
X100571428Y-64542580D02*
X100380952Y-64542580D01*
X100380952Y-64542580D02*
X100285714Y-64590200D01*
X100285714Y-64590200D02*
X100238095Y-64637819D01*
X100238095Y-64637819D02*
X100190476Y-64733057D01*
X100190476Y-64733057D02*
X100190476Y-65542580D01*
X99238095Y-65542580D02*
X99714285Y-65542580D01*
X99714285Y-65542580D02*
X99761904Y-65066390D01*
X99761904Y-65066390D02*
X99714285Y-65114009D01*
X99714285Y-65114009D02*
X99619047Y-65161628D01*
X99619047Y-65161628D02*
X99380952Y-65161628D01*
X99380952Y-65161628D02*
X99285714Y-65114009D01*
X99285714Y-65114009D02*
X99238095Y-65066390D01*
X99238095Y-65066390D02*
X99190476Y-64971152D01*
X99190476Y-64971152D02*
X99190476Y-64733057D01*
X99190476Y-64733057D02*
X99238095Y-64637819D01*
X99238095Y-64637819D02*
X99285714Y-64590200D01*
X99285714Y-64590200D02*
X99380952Y-64542580D01*
X99380952Y-64542580D02*
X99619047Y-64542580D01*
X99619047Y-64542580D02*
X99714285Y-64590200D01*
X99714285Y-64590200D02*
X99761904Y-64637819D01*
D11*
X180938528Y-133035714D02*
X179438528Y-133035714D01*
X179438528Y-133035714D02*
X180509957Y-132535714D01*
X180509957Y-132535714D02*
X179438528Y-132035714D01*
X179438528Y-132035714D02*
X180938528Y-132035714D01*
X180938528Y-131107142D02*
X180867100Y-131249999D01*
X180867100Y-131249999D02*
X180795671Y-131321428D01*
X180795671Y-131321428D02*
X180652814Y-131392856D01*
X180652814Y-131392856D02*
X180224242Y-131392856D01*
X180224242Y-131392856D02*
X180081385Y-131321428D01*
X180081385Y-131321428D02*
X180009957Y-131249999D01*
X180009957Y-131249999D02*
X179938528Y-131107142D01*
X179938528Y-131107142D02*
X179938528Y-130892856D01*
X179938528Y-130892856D02*
X180009957Y-130749999D01*
X180009957Y-130749999D02*
X180081385Y-130678571D01*
X180081385Y-130678571D02*
X180224242Y-130607142D01*
X180224242Y-130607142D02*
X180652814Y-130607142D01*
X180652814Y-130607142D02*
X180795671Y-130678571D01*
X180795671Y-130678571D02*
X180867100Y-130749999D01*
X180867100Y-130749999D02*
X180938528Y-130892856D01*
X180938528Y-130892856D02*
X180938528Y-131107142D01*
X179938528Y-130178570D02*
X179938528Y-129607142D01*
X179438528Y-129964285D02*
X180724242Y-129964285D01*
X180724242Y-129964285D02*
X180867100Y-129892856D01*
X180867100Y-129892856D02*
X180938528Y-129749999D01*
X180938528Y-129749999D02*
X180938528Y-129607142D01*
X180938528Y-128892856D02*
X180867100Y-129035713D01*
X180867100Y-129035713D02*
X180795671Y-129107142D01*
X180795671Y-129107142D02*
X180652814Y-129178570D01*
X180652814Y-129178570D02*
X180224242Y-129178570D01*
X180224242Y-129178570D02*
X180081385Y-129107142D01*
X180081385Y-129107142D02*
X180009957Y-129035713D01*
X180009957Y-129035713D02*
X179938528Y-128892856D01*
X179938528Y-128892856D02*
X179938528Y-128678570D01*
X179938528Y-128678570D02*
X180009957Y-128535713D01*
X180009957Y-128535713D02*
X180081385Y-128464285D01*
X180081385Y-128464285D02*
X180224242Y-128392856D01*
X180224242Y-128392856D02*
X180652814Y-128392856D01*
X180652814Y-128392856D02*
X180795671Y-128464285D01*
X180795671Y-128464285D02*
X180867100Y-128535713D01*
X180867100Y-128535713D02*
X180938528Y-128678570D01*
X180938528Y-128678570D02*
X180938528Y-128892856D01*
X180938528Y-127749999D02*
X179938528Y-127749999D01*
X180224242Y-127749999D02*
X180081385Y-127678570D01*
X180081385Y-127678570D02*
X180009957Y-127607142D01*
X180009957Y-127607142D02*
X179938528Y-127464284D01*
X179938528Y-127464284D02*
X179938528Y-127321427D01*
X179438528Y-125821428D02*
X179438528Y-124892856D01*
X179438528Y-124892856D02*
X180009957Y-125392856D01*
X180009957Y-125392856D02*
X180009957Y-125178571D01*
X180009957Y-125178571D02*
X180081385Y-125035714D01*
X180081385Y-125035714D02*
X180152814Y-124964285D01*
X180152814Y-124964285D02*
X180295671Y-124892856D01*
X180295671Y-124892856D02*
X180652814Y-124892856D01*
X180652814Y-124892856D02*
X180795671Y-124964285D01*
X180795671Y-124964285D02*
X180867100Y-125035714D01*
X180867100Y-125035714D02*
X180938528Y-125178571D01*
X180938528Y-125178571D02*
X180938528Y-125607142D01*
X180938528Y-125607142D02*
X180867100Y-125749999D01*
X180867100Y-125749999D02*
X180795671Y-125821428D01*
X149964285Y-155938528D02*
X149964285Y-154438528D01*
X149964285Y-154438528D02*
X150464285Y-155509957D01*
X150464285Y-155509957D02*
X150964285Y-154438528D01*
X150964285Y-154438528D02*
X150964285Y-155938528D01*
X151892857Y-155938528D02*
X151750000Y-155867100D01*
X151750000Y-155867100D02*
X151678571Y-155795671D01*
X151678571Y-155795671D02*
X151607143Y-155652814D01*
X151607143Y-155652814D02*
X151607143Y-155224242D01*
X151607143Y-155224242D02*
X151678571Y-155081385D01*
X151678571Y-155081385D02*
X151750000Y-155009957D01*
X151750000Y-155009957D02*
X151892857Y-154938528D01*
X151892857Y-154938528D02*
X152107143Y-154938528D01*
X152107143Y-154938528D02*
X152250000Y-155009957D01*
X152250000Y-155009957D02*
X152321429Y-155081385D01*
X152321429Y-155081385D02*
X152392857Y-155224242D01*
X152392857Y-155224242D02*
X152392857Y-155652814D01*
X152392857Y-155652814D02*
X152321429Y-155795671D01*
X152321429Y-155795671D02*
X152250000Y-155867100D01*
X152250000Y-155867100D02*
X152107143Y-155938528D01*
X152107143Y-155938528D02*
X151892857Y-155938528D01*
X152821429Y-154938528D02*
X153392857Y-154938528D01*
X153035714Y-154438528D02*
X153035714Y-155724242D01*
X153035714Y-155724242D02*
X153107143Y-155867100D01*
X153107143Y-155867100D02*
X153250000Y-155938528D01*
X153250000Y-155938528D02*
X153392857Y-155938528D01*
X154107143Y-155938528D02*
X153964286Y-155867100D01*
X153964286Y-155867100D02*
X153892857Y-155795671D01*
X153892857Y-155795671D02*
X153821429Y-155652814D01*
X153821429Y-155652814D02*
X153821429Y-155224242D01*
X153821429Y-155224242D02*
X153892857Y-155081385D01*
X153892857Y-155081385D02*
X153964286Y-155009957D01*
X153964286Y-155009957D02*
X154107143Y-154938528D01*
X154107143Y-154938528D02*
X154321429Y-154938528D01*
X154321429Y-154938528D02*
X154464286Y-155009957D01*
X154464286Y-155009957D02*
X154535715Y-155081385D01*
X154535715Y-155081385D02*
X154607143Y-155224242D01*
X154607143Y-155224242D02*
X154607143Y-155652814D01*
X154607143Y-155652814D02*
X154535715Y-155795671D01*
X154535715Y-155795671D02*
X154464286Y-155867100D01*
X154464286Y-155867100D02*
X154321429Y-155938528D01*
X154321429Y-155938528D02*
X154107143Y-155938528D01*
X155250000Y-155938528D02*
X155250000Y-154938528D01*
X155250000Y-155224242D02*
X155321429Y-155081385D01*
X155321429Y-155081385D02*
X155392858Y-155009957D01*
X155392858Y-155009957D02*
X155535715Y-154938528D01*
X155535715Y-154938528D02*
X155678572Y-154938528D01*
X157250000Y-154581385D02*
X157321428Y-154509957D01*
X157321428Y-154509957D02*
X157464286Y-154438528D01*
X157464286Y-154438528D02*
X157821428Y-154438528D01*
X157821428Y-154438528D02*
X157964286Y-154509957D01*
X157964286Y-154509957D02*
X158035714Y-154581385D01*
X158035714Y-154581385D02*
X158107143Y-154724242D01*
X158107143Y-154724242D02*
X158107143Y-154867100D01*
X158107143Y-154867100D02*
X158035714Y-155081385D01*
X158035714Y-155081385D02*
X157178571Y-155938528D01*
X157178571Y-155938528D02*
X158107143Y-155938528D01*
X125964285Y-155938528D02*
X125964285Y-154438528D01*
X125964285Y-154438528D02*
X126464285Y-155509957D01*
X126464285Y-155509957D02*
X126964285Y-154438528D01*
X126964285Y-154438528D02*
X126964285Y-155938528D01*
X127892857Y-155938528D02*
X127750000Y-155867100D01*
X127750000Y-155867100D02*
X127678571Y-155795671D01*
X127678571Y-155795671D02*
X127607143Y-155652814D01*
X127607143Y-155652814D02*
X127607143Y-155224242D01*
X127607143Y-155224242D02*
X127678571Y-155081385D01*
X127678571Y-155081385D02*
X127750000Y-155009957D01*
X127750000Y-155009957D02*
X127892857Y-154938528D01*
X127892857Y-154938528D02*
X128107143Y-154938528D01*
X128107143Y-154938528D02*
X128250000Y-155009957D01*
X128250000Y-155009957D02*
X128321429Y-155081385D01*
X128321429Y-155081385D02*
X128392857Y-155224242D01*
X128392857Y-155224242D02*
X128392857Y-155652814D01*
X128392857Y-155652814D02*
X128321429Y-155795671D01*
X128321429Y-155795671D02*
X128250000Y-155867100D01*
X128250000Y-155867100D02*
X128107143Y-155938528D01*
X128107143Y-155938528D02*
X127892857Y-155938528D01*
X128821429Y-154938528D02*
X129392857Y-154938528D01*
X129035714Y-154438528D02*
X129035714Y-155724242D01*
X129035714Y-155724242D02*
X129107143Y-155867100D01*
X129107143Y-155867100D02*
X129250000Y-155938528D01*
X129250000Y-155938528D02*
X129392857Y-155938528D01*
X130107143Y-155938528D02*
X129964286Y-155867100D01*
X129964286Y-155867100D02*
X129892857Y-155795671D01*
X129892857Y-155795671D02*
X129821429Y-155652814D01*
X129821429Y-155652814D02*
X129821429Y-155224242D01*
X129821429Y-155224242D02*
X129892857Y-155081385D01*
X129892857Y-155081385D02*
X129964286Y-155009957D01*
X129964286Y-155009957D02*
X130107143Y-154938528D01*
X130107143Y-154938528D02*
X130321429Y-154938528D01*
X130321429Y-154938528D02*
X130464286Y-155009957D01*
X130464286Y-155009957D02*
X130535715Y-155081385D01*
X130535715Y-155081385D02*
X130607143Y-155224242D01*
X130607143Y-155224242D02*
X130607143Y-155652814D01*
X130607143Y-155652814D02*
X130535715Y-155795671D01*
X130535715Y-155795671D02*
X130464286Y-155867100D01*
X130464286Y-155867100D02*
X130321429Y-155938528D01*
X130321429Y-155938528D02*
X130107143Y-155938528D01*
X131250000Y-155938528D02*
X131250000Y-154938528D01*
X131250000Y-155224242D02*
X131321429Y-155081385D01*
X131321429Y-155081385D02*
X131392858Y-155009957D01*
X131392858Y-155009957D02*
X131535715Y-154938528D01*
X131535715Y-154938528D02*
X131678572Y-154938528D01*
X134107143Y-155938528D02*
X133250000Y-155938528D01*
X133678571Y-155938528D02*
X133678571Y-154438528D01*
X133678571Y-154438528D02*
X133535714Y-154652814D01*
X133535714Y-154652814D02*
X133392857Y-154795671D01*
X133392857Y-154795671D02*
X133250000Y-154867100D01*
X175499999Y-44436471D02*
X175499999Y-45936471D01*
X173999998Y-45865042D02*
X174142856Y-45936471D01*
X174142856Y-45936471D02*
X174357141Y-45936471D01*
X174357141Y-45936471D02*
X174571427Y-45865042D01*
X174571427Y-45865042D02*
X174714284Y-45722185D01*
X174714284Y-45722185D02*
X174785713Y-45579328D01*
X174785713Y-45579328D02*
X174857141Y-45293614D01*
X174857141Y-45293614D02*
X174857141Y-45079328D01*
X174857141Y-45079328D02*
X174785713Y-44793614D01*
X174785713Y-44793614D02*
X174714284Y-44650757D01*
X174714284Y-44650757D02*
X174571427Y-44507900D01*
X174571427Y-44507900D02*
X174357141Y-44436471D01*
X174357141Y-44436471D02*
X174214284Y-44436471D01*
X174214284Y-44436471D02*
X173999998Y-44507900D01*
X173999998Y-44507900D02*
X173928570Y-44579328D01*
X173928570Y-44579328D02*
X173928570Y-45079328D01*
X173928570Y-45079328D02*
X174214284Y-45079328D01*
X173285713Y-45222185D02*
X172785713Y-45222185D01*
X172571427Y-44436471D02*
X173285713Y-44436471D01*
X173285713Y-44436471D02*
X173285713Y-45936471D01*
X173285713Y-45936471D02*
X172571427Y-45936471D01*
X171928570Y-44436471D02*
X171928570Y-45936471D01*
X171928570Y-45936471D02*
X171071427Y-44436471D01*
X171071427Y-44436471D02*
X171071427Y-45936471D01*
X170428569Y-45793614D02*
X170357141Y-45865042D01*
X170357141Y-45865042D02*
X170214284Y-45936471D01*
X170214284Y-45936471D02*
X169857141Y-45936471D01*
X169857141Y-45936471D02*
X169714284Y-45865042D01*
X169714284Y-45865042D02*
X169642855Y-45793614D01*
X169642855Y-45793614D02*
X169571426Y-45650757D01*
X169571426Y-45650757D02*
X169571426Y-45507900D01*
X169571426Y-45507900D02*
X169642855Y-45293614D01*
X169642855Y-45293614D02*
X170499998Y-44436471D01*
X170499998Y-44436471D02*
X169571426Y-44436471D01*
X169071427Y-45936471D02*
X168142855Y-45936471D01*
X168142855Y-45936471D02*
X168642855Y-45365042D01*
X168642855Y-45365042D02*
X168428570Y-45365042D01*
X168428570Y-45365042D02*
X168285713Y-45293614D01*
X168285713Y-45293614D02*
X168214284Y-45222185D01*
X168214284Y-45222185D02*
X168142855Y-45079328D01*
X168142855Y-45079328D02*
X168142855Y-44722185D01*
X168142855Y-44722185D02*
X168214284Y-44579328D01*
X168214284Y-44579328D02*
X168285713Y-44507900D01*
X168285713Y-44507900D02*
X168428570Y-44436471D01*
X168428570Y-44436471D02*
X168857141Y-44436471D01*
X168857141Y-44436471D02*
X168999998Y-44507900D01*
X168999998Y-44507900D02*
X169071427Y-44579328D01*
X167214284Y-45936471D02*
X167071427Y-45936471D01*
X167071427Y-45936471D02*
X166928570Y-45865042D01*
X166928570Y-45865042D02*
X166857142Y-45793614D01*
X166857142Y-45793614D02*
X166785713Y-45650757D01*
X166785713Y-45650757D02*
X166714284Y-45365042D01*
X166714284Y-45365042D02*
X166714284Y-45007900D01*
X166714284Y-45007900D02*
X166785713Y-44722185D01*
X166785713Y-44722185D02*
X166857142Y-44579328D01*
X166857142Y-44579328D02*
X166928570Y-44507900D01*
X166928570Y-44507900D02*
X167071427Y-44436471D01*
X167071427Y-44436471D02*
X167214284Y-44436471D01*
X167214284Y-44436471D02*
X167357142Y-44507900D01*
X167357142Y-44507900D02*
X167428570Y-44579328D01*
X167428570Y-44579328D02*
X167499999Y-44722185D01*
X167499999Y-44722185D02*
X167571427Y-45007900D01*
X167571427Y-45007900D02*
X167571427Y-45365042D01*
X167571427Y-45365042D02*
X167499999Y-45650757D01*
X167499999Y-45650757D02*
X167428570Y-45793614D01*
X167428570Y-45793614D02*
X167357142Y-45865042D01*
X167357142Y-45865042D02*
X167214284Y-45936471D01*
X164428571Y-45222185D02*
X164928571Y-45222185D01*
X164928571Y-44436471D02*
X164928571Y-45936471D01*
X164928571Y-45936471D02*
X164214285Y-45936471D01*
X163642857Y-44436471D02*
X163642857Y-45436471D01*
X163642857Y-45936471D02*
X163714285Y-45865042D01*
X163714285Y-45865042D02*
X163642857Y-45793614D01*
X163642857Y-45793614D02*
X163571428Y-45865042D01*
X163571428Y-45865042D02*
X163642857Y-45936471D01*
X163642857Y-45936471D02*
X163642857Y-45793614D01*
X162714285Y-44436471D02*
X162857142Y-44507900D01*
X162857142Y-44507900D02*
X162928571Y-44650757D01*
X162928571Y-44650757D02*
X162928571Y-45936471D01*
X161500000Y-44436471D02*
X161500000Y-45222185D01*
X161500000Y-45222185D02*
X161571428Y-45365042D01*
X161571428Y-45365042D02*
X161714285Y-45436471D01*
X161714285Y-45436471D02*
X162000000Y-45436471D01*
X162000000Y-45436471D02*
X162142857Y-45365042D01*
X161500000Y-44507900D02*
X161642857Y-44436471D01*
X161642857Y-44436471D02*
X162000000Y-44436471D01*
X162000000Y-44436471D02*
X162142857Y-44507900D01*
X162142857Y-44507900D02*
X162214285Y-44650757D01*
X162214285Y-44650757D02*
X162214285Y-44793614D01*
X162214285Y-44793614D02*
X162142857Y-44936471D01*
X162142857Y-44936471D02*
X162000000Y-45007900D01*
X162000000Y-45007900D02*
X161642857Y-45007900D01*
X161642857Y-45007900D02*
X161500000Y-45079328D01*
X160785714Y-44436471D02*
X160785714Y-45436471D01*
X160785714Y-45293614D02*
X160714285Y-45365042D01*
X160714285Y-45365042D02*
X160571428Y-45436471D01*
X160571428Y-45436471D02*
X160357142Y-45436471D01*
X160357142Y-45436471D02*
X160214285Y-45365042D01*
X160214285Y-45365042D02*
X160142857Y-45222185D01*
X160142857Y-45222185D02*
X160142857Y-44436471D01*
X160142857Y-45222185D02*
X160071428Y-45365042D01*
X160071428Y-45365042D02*
X159928571Y-45436471D01*
X159928571Y-45436471D02*
X159714285Y-45436471D01*
X159714285Y-45436471D02*
X159571428Y-45365042D01*
X159571428Y-45365042D02*
X159499999Y-45222185D01*
X159499999Y-45222185D02*
X159499999Y-44436471D01*
X158214285Y-44507900D02*
X158357142Y-44436471D01*
X158357142Y-44436471D02*
X158642857Y-44436471D01*
X158642857Y-44436471D02*
X158785714Y-44507900D01*
X158785714Y-44507900D02*
X158857142Y-44650757D01*
X158857142Y-44650757D02*
X158857142Y-45222185D01*
X158857142Y-45222185D02*
X158785714Y-45365042D01*
X158785714Y-45365042D02*
X158642857Y-45436471D01*
X158642857Y-45436471D02*
X158357142Y-45436471D01*
X158357142Y-45436471D02*
X158214285Y-45365042D01*
X158214285Y-45365042D02*
X158142857Y-45222185D01*
X158142857Y-45222185D02*
X158142857Y-45079328D01*
X158142857Y-45079328D02*
X158857142Y-44936471D01*
X157500000Y-45436471D02*
X157500000Y-44436471D01*
X157500000Y-45293614D02*
X157428571Y-45365042D01*
X157428571Y-45365042D02*
X157285714Y-45436471D01*
X157285714Y-45436471D02*
X157071428Y-45436471D01*
X157071428Y-45436471D02*
X156928571Y-45365042D01*
X156928571Y-45365042D02*
X156857143Y-45222185D01*
X156857143Y-45222185D02*
X156857143Y-44436471D01*
X156357142Y-45436471D02*
X155785714Y-45436471D01*
X156142857Y-45936471D02*
X156142857Y-44650757D01*
X156142857Y-44650757D02*
X156071428Y-44507900D01*
X156071428Y-44507900D02*
X155928571Y-44436471D01*
X155928571Y-44436471D02*
X155785714Y-44436471D01*
X154285714Y-45936471D02*
X153928571Y-44436471D01*
X153928571Y-44436471D02*
X153642857Y-45507900D01*
X153642857Y-45507900D02*
X153357142Y-44436471D01*
X153357142Y-44436471D02*
X153000000Y-45936471D01*
X152428571Y-44436471D02*
X152428571Y-45436471D01*
X152428571Y-45936471D02*
X152499999Y-45865042D01*
X152499999Y-45865042D02*
X152428571Y-45793614D01*
X152428571Y-45793614D02*
X152357142Y-45865042D01*
X152357142Y-45865042D02*
X152428571Y-45936471D01*
X152428571Y-45936471D02*
X152428571Y-45793614D01*
X151714285Y-45436471D02*
X151714285Y-44436471D01*
X151714285Y-45293614D02*
X151642856Y-45365042D01*
X151642856Y-45365042D02*
X151499999Y-45436471D01*
X151499999Y-45436471D02*
X151285713Y-45436471D01*
X151285713Y-45436471D02*
X151142856Y-45365042D01*
X151142856Y-45365042D02*
X151071428Y-45222185D01*
X151071428Y-45222185D02*
X151071428Y-44436471D01*
X149714285Y-44436471D02*
X149714285Y-45936471D01*
X149714285Y-44507900D02*
X149857142Y-44436471D01*
X149857142Y-44436471D02*
X150142856Y-44436471D01*
X150142856Y-44436471D02*
X150285713Y-44507900D01*
X150285713Y-44507900D02*
X150357142Y-44579328D01*
X150357142Y-44579328D02*
X150428570Y-44722185D01*
X150428570Y-44722185D02*
X150428570Y-45150757D01*
X150428570Y-45150757D02*
X150357142Y-45293614D01*
X150357142Y-45293614D02*
X150285713Y-45365042D01*
X150285713Y-45365042D02*
X150142856Y-45436471D01*
X150142856Y-45436471D02*
X149857142Y-45436471D01*
X149857142Y-45436471D02*
X149714285Y-45365042D01*
X148428570Y-44507900D02*
X148571427Y-44436471D01*
X148571427Y-44436471D02*
X148857142Y-44436471D01*
X148857142Y-44436471D02*
X148999999Y-44507900D01*
X148999999Y-44507900D02*
X149071427Y-44650757D01*
X149071427Y-44650757D02*
X149071427Y-45222185D01*
X149071427Y-45222185D02*
X148999999Y-45365042D01*
X148999999Y-45365042D02*
X148857142Y-45436471D01*
X148857142Y-45436471D02*
X148571427Y-45436471D01*
X148571427Y-45436471D02*
X148428570Y-45365042D01*
X148428570Y-45365042D02*
X148357142Y-45222185D01*
X148357142Y-45222185D02*
X148357142Y-45079328D01*
X148357142Y-45079328D02*
X149071427Y-44936471D01*
X147714285Y-44436471D02*
X147714285Y-45436471D01*
X147714285Y-45150757D02*
X147642856Y-45293614D01*
X147642856Y-45293614D02*
X147571428Y-45365042D01*
X147571428Y-45365042D02*
X147428570Y-45436471D01*
X147428570Y-45436471D02*
X147285713Y-45436471D01*
X172785713Y-42164412D02*
X172857141Y-42092984D01*
X172857141Y-42092984D02*
X173071427Y-42021555D01*
X173071427Y-42021555D02*
X173214284Y-42021555D01*
X173214284Y-42021555D02*
X173428570Y-42092984D01*
X173428570Y-42092984D02*
X173571427Y-42235841D01*
X173571427Y-42235841D02*
X173642856Y-42378698D01*
X173642856Y-42378698D02*
X173714284Y-42664412D01*
X173714284Y-42664412D02*
X173714284Y-42878698D01*
X173714284Y-42878698D02*
X173642856Y-43164412D01*
X173642856Y-43164412D02*
X173571427Y-43307269D01*
X173571427Y-43307269D02*
X173428570Y-43450126D01*
X173428570Y-43450126D02*
X173214284Y-43521555D01*
X173214284Y-43521555D02*
X173071427Y-43521555D01*
X173071427Y-43521555D02*
X172857141Y-43450126D01*
X172857141Y-43450126D02*
X172785713Y-43378698D01*
X171928570Y-42021555D02*
X172071427Y-42092984D01*
X172071427Y-42092984D02*
X172142856Y-42164412D01*
X172142856Y-42164412D02*
X172214284Y-42307269D01*
X172214284Y-42307269D02*
X172214284Y-42735841D01*
X172214284Y-42735841D02*
X172142856Y-42878698D01*
X172142856Y-42878698D02*
X172071427Y-42950126D01*
X172071427Y-42950126D02*
X171928570Y-43021555D01*
X171928570Y-43021555D02*
X171714284Y-43021555D01*
X171714284Y-43021555D02*
X171571427Y-42950126D01*
X171571427Y-42950126D02*
X171499999Y-42878698D01*
X171499999Y-42878698D02*
X171428570Y-42735841D01*
X171428570Y-42735841D02*
X171428570Y-42307269D01*
X171428570Y-42307269D02*
X171499999Y-42164412D01*
X171499999Y-42164412D02*
X171571427Y-42092984D01*
X171571427Y-42092984D02*
X171714284Y-42021555D01*
X171714284Y-42021555D02*
X171928570Y-42021555D01*
X170785713Y-43021555D02*
X170785713Y-42021555D01*
X170785713Y-42878698D02*
X170714284Y-42950126D01*
X170714284Y-42950126D02*
X170571427Y-43021555D01*
X170571427Y-43021555D02*
X170357141Y-43021555D01*
X170357141Y-43021555D02*
X170214284Y-42950126D01*
X170214284Y-42950126D02*
X170142856Y-42807269D01*
X170142856Y-42807269D02*
X170142856Y-42021555D01*
X169642855Y-43021555D02*
X169071427Y-43021555D01*
X169428570Y-43521555D02*
X169428570Y-42235841D01*
X169428570Y-42235841D02*
X169357141Y-42092984D01*
X169357141Y-42092984D02*
X169214284Y-42021555D01*
X169214284Y-42021555D02*
X169071427Y-42021555D01*
X168571427Y-42021555D02*
X168571427Y-43021555D01*
X168571427Y-42735841D02*
X168499998Y-42878698D01*
X168499998Y-42878698D02*
X168428570Y-42950126D01*
X168428570Y-42950126D02*
X168285712Y-43021555D01*
X168285712Y-43021555D02*
X168142855Y-43021555D01*
X167428570Y-42021555D02*
X167571427Y-42092984D01*
X167571427Y-42092984D02*
X167642856Y-42164412D01*
X167642856Y-42164412D02*
X167714284Y-42307269D01*
X167714284Y-42307269D02*
X167714284Y-42735841D01*
X167714284Y-42735841D02*
X167642856Y-42878698D01*
X167642856Y-42878698D02*
X167571427Y-42950126D01*
X167571427Y-42950126D02*
X167428570Y-43021555D01*
X167428570Y-43021555D02*
X167214284Y-43021555D01*
X167214284Y-43021555D02*
X167071427Y-42950126D01*
X167071427Y-42950126D02*
X166999999Y-42878698D01*
X166999999Y-42878698D02*
X166928570Y-42735841D01*
X166928570Y-42735841D02*
X166928570Y-42307269D01*
X166928570Y-42307269D02*
X166999999Y-42164412D01*
X166999999Y-42164412D02*
X167071427Y-42092984D01*
X167071427Y-42092984D02*
X167214284Y-42021555D01*
X167214284Y-42021555D02*
X167428570Y-42021555D01*
X166071427Y-42021555D02*
X166214284Y-42092984D01*
X166214284Y-42092984D02*
X166285713Y-42235841D01*
X166285713Y-42235841D02*
X166285713Y-43521555D01*
X163857142Y-42807269D02*
X163642856Y-42735841D01*
X163642856Y-42735841D02*
X163571427Y-42664412D01*
X163571427Y-42664412D02*
X163499999Y-42521555D01*
X163499999Y-42521555D02*
X163499999Y-42307269D01*
X163499999Y-42307269D02*
X163571427Y-42164412D01*
X163571427Y-42164412D02*
X163642856Y-42092984D01*
X163642856Y-42092984D02*
X163785713Y-42021555D01*
X163785713Y-42021555D02*
X164357142Y-42021555D01*
X164357142Y-42021555D02*
X164357142Y-43521555D01*
X164357142Y-43521555D02*
X163857142Y-43521555D01*
X163857142Y-43521555D02*
X163714285Y-43450126D01*
X163714285Y-43450126D02*
X163642856Y-43378698D01*
X163642856Y-43378698D02*
X163571427Y-43235841D01*
X163571427Y-43235841D02*
X163571427Y-43092984D01*
X163571427Y-43092984D02*
X163642856Y-42950126D01*
X163642856Y-42950126D02*
X163714285Y-42878698D01*
X163714285Y-42878698D02*
X163857142Y-42807269D01*
X163857142Y-42807269D02*
X164357142Y-42807269D01*
X162642856Y-42021555D02*
X162785713Y-42092984D01*
X162785713Y-42092984D02*
X162857142Y-42164412D01*
X162857142Y-42164412D02*
X162928570Y-42307269D01*
X162928570Y-42307269D02*
X162928570Y-42735841D01*
X162928570Y-42735841D02*
X162857142Y-42878698D01*
X162857142Y-42878698D02*
X162785713Y-42950126D01*
X162785713Y-42950126D02*
X162642856Y-43021555D01*
X162642856Y-43021555D02*
X162428570Y-43021555D01*
X162428570Y-43021555D02*
X162285713Y-42950126D01*
X162285713Y-42950126D02*
X162214285Y-42878698D01*
X162214285Y-42878698D02*
X162142856Y-42735841D01*
X162142856Y-42735841D02*
X162142856Y-42307269D01*
X162142856Y-42307269D02*
X162214285Y-42164412D01*
X162214285Y-42164412D02*
X162285713Y-42092984D01*
X162285713Y-42092984D02*
X162428570Y-42021555D01*
X162428570Y-42021555D02*
X162642856Y-42021555D01*
X160857142Y-42021555D02*
X160857142Y-42807269D01*
X160857142Y-42807269D02*
X160928570Y-42950126D01*
X160928570Y-42950126D02*
X161071427Y-43021555D01*
X161071427Y-43021555D02*
X161357142Y-43021555D01*
X161357142Y-43021555D02*
X161499999Y-42950126D01*
X160857142Y-42092984D02*
X160999999Y-42021555D01*
X160999999Y-42021555D02*
X161357142Y-42021555D01*
X161357142Y-42021555D02*
X161499999Y-42092984D01*
X161499999Y-42092984D02*
X161571427Y-42235841D01*
X161571427Y-42235841D02*
X161571427Y-42378698D01*
X161571427Y-42378698D02*
X161499999Y-42521555D01*
X161499999Y-42521555D02*
X161357142Y-42592984D01*
X161357142Y-42592984D02*
X160999999Y-42592984D01*
X160999999Y-42592984D02*
X160857142Y-42664412D01*
X160142856Y-42021555D02*
X160142856Y-43021555D01*
X160142856Y-42735841D02*
X160071427Y-42878698D01*
X160071427Y-42878698D02*
X159999999Y-42950126D01*
X159999999Y-42950126D02*
X159857141Y-43021555D01*
X159857141Y-43021555D02*
X159714284Y-43021555D01*
X158571428Y-42021555D02*
X158571428Y-43521555D01*
X158571428Y-42092984D02*
X158714285Y-42021555D01*
X158714285Y-42021555D02*
X158999999Y-42021555D01*
X158999999Y-42021555D02*
X159142856Y-42092984D01*
X159142856Y-42092984D02*
X159214285Y-42164412D01*
X159214285Y-42164412D02*
X159285713Y-42307269D01*
X159285713Y-42307269D02*
X159285713Y-42735841D01*
X159285713Y-42735841D02*
X159214285Y-42878698D01*
X159214285Y-42878698D02*
X159142856Y-42950126D01*
X159142856Y-42950126D02*
X158999999Y-43021555D01*
X158999999Y-43021555D02*
X158714285Y-43021555D01*
X158714285Y-43021555D02*
X158571428Y-42950126D01*
X156714285Y-42021555D02*
X156714285Y-43021555D01*
X156714285Y-42735841D02*
X156642856Y-42878698D01*
X156642856Y-42878698D02*
X156571428Y-42950126D01*
X156571428Y-42950126D02*
X156428570Y-43021555D01*
X156428570Y-43021555D02*
X156285713Y-43021555D01*
X155214285Y-42092984D02*
X155357142Y-42021555D01*
X155357142Y-42021555D02*
X155642857Y-42021555D01*
X155642857Y-42021555D02*
X155785714Y-42092984D01*
X155785714Y-42092984D02*
X155857142Y-42235841D01*
X155857142Y-42235841D02*
X155857142Y-42807269D01*
X155857142Y-42807269D02*
X155785714Y-42950126D01*
X155785714Y-42950126D02*
X155642857Y-43021555D01*
X155642857Y-43021555D02*
X155357142Y-43021555D01*
X155357142Y-43021555D02*
X155214285Y-42950126D01*
X155214285Y-42950126D02*
X155142857Y-42807269D01*
X155142857Y-42807269D02*
X155142857Y-42664412D01*
X155142857Y-42664412D02*
X155857142Y-42521555D01*
X154642857Y-43021555D02*
X154285714Y-42021555D01*
X154285714Y-42021555D02*
X153928571Y-43021555D01*
X151428571Y-42021555D02*
X152285714Y-42021555D01*
X151857143Y-42021555D02*
X151857143Y-43521555D01*
X151857143Y-43521555D02*
X152000000Y-43307269D01*
X152000000Y-43307269D02*
X152142857Y-43164412D01*
X152142857Y-43164412D02*
X152285714Y-43092984D01*
X150785715Y-42164412D02*
X150714286Y-42092984D01*
X150714286Y-42092984D02*
X150785715Y-42021555D01*
X150785715Y-42021555D02*
X150857143Y-42092984D01*
X150857143Y-42092984D02*
X150785715Y-42164412D01*
X150785715Y-42164412D02*
X150785715Y-42021555D01*
X149785714Y-43521555D02*
X149642857Y-43521555D01*
X149642857Y-43521555D02*
X149500000Y-43450126D01*
X149500000Y-43450126D02*
X149428572Y-43378698D01*
X149428572Y-43378698D02*
X149357143Y-43235841D01*
X149357143Y-43235841D02*
X149285714Y-42950126D01*
X149285714Y-42950126D02*
X149285714Y-42592984D01*
X149285714Y-42592984D02*
X149357143Y-42307269D01*
X149357143Y-42307269D02*
X149428572Y-42164412D01*
X149428572Y-42164412D02*
X149500000Y-42092984D01*
X149500000Y-42092984D02*
X149642857Y-42021555D01*
X149642857Y-42021555D02*
X149785714Y-42021555D01*
X149785714Y-42021555D02*
X149928572Y-42092984D01*
X149928572Y-42092984D02*
X150000000Y-42164412D01*
X150000000Y-42164412D02*
X150071429Y-42307269D01*
X150071429Y-42307269D02*
X150142857Y-42592984D01*
X150142857Y-42592984D02*
X150142857Y-42950126D01*
X150142857Y-42950126D02*
X150071429Y-43235841D01*
X150071429Y-43235841D02*
X150000000Y-43378698D01*
X150000000Y-43378698D02*
X149928572Y-43450126D01*
X149928572Y-43450126D02*
X149785714Y-43521555D01*
X174357142Y-39749496D02*
X174428570Y-39678068D01*
X174428570Y-39678068D02*
X174642856Y-39606639D01*
X174642856Y-39606639D02*
X174785713Y-39606639D01*
X174785713Y-39606639D02*
X174999999Y-39678068D01*
X174999999Y-39678068D02*
X175142856Y-39820925D01*
X175142856Y-39820925D02*
X175214285Y-39963782D01*
X175214285Y-39963782D02*
X175285713Y-40249496D01*
X175285713Y-40249496D02*
X175285713Y-40463782D01*
X175285713Y-40463782D02*
X175214285Y-40749496D01*
X175214285Y-40749496D02*
X175142856Y-40892353D01*
X175142856Y-40892353D02*
X174999999Y-41035210D01*
X174999999Y-41035210D02*
X174785713Y-41106639D01*
X174785713Y-41106639D02*
X174642856Y-41106639D01*
X174642856Y-41106639D02*
X174428570Y-41035210D01*
X174428570Y-41035210D02*
X174357142Y-40963782D01*
X173714285Y-39606639D02*
X173714285Y-41106639D01*
X173071428Y-39606639D02*
X173071428Y-40392353D01*
X173071428Y-40392353D02*
X173142856Y-40535210D01*
X173142856Y-40535210D02*
X173285713Y-40606639D01*
X173285713Y-40606639D02*
X173499999Y-40606639D01*
X173499999Y-40606639D02*
X173642856Y-40535210D01*
X173642856Y-40535210D02*
X173714285Y-40463782D01*
X172357142Y-39606639D02*
X172357142Y-40606639D01*
X172357142Y-40320925D02*
X172285713Y-40463782D01*
X172285713Y-40463782D02*
X172214285Y-40535210D01*
X172214285Y-40535210D02*
X172071427Y-40606639D01*
X172071427Y-40606639D02*
X171928570Y-40606639D01*
X171428571Y-39606639D02*
X171428571Y-40606639D01*
X171428571Y-41106639D02*
X171499999Y-41035210D01*
X171499999Y-41035210D02*
X171428571Y-40963782D01*
X171428571Y-40963782D02*
X171357142Y-41035210D01*
X171357142Y-41035210D02*
X171428571Y-41106639D01*
X171428571Y-41106639D02*
X171428571Y-40963782D01*
X170785713Y-39678068D02*
X170642856Y-39606639D01*
X170642856Y-39606639D02*
X170357142Y-39606639D01*
X170357142Y-39606639D02*
X170214285Y-39678068D01*
X170214285Y-39678068D02*
X170142856Y-39820925D01*
X170142856Y-39820925D02*
X170142856Y-39892353D01*
X170142856Y-39892353D02*
X170214285Y-40035210D01*
X170214285Y-40035210D02*
X170357142Y-40106639D01*
X170357142Y-40106639D02*
X170571428Y-40106639D01*
X170571428Y-40106639D02*
X170714285Y-40178068D01*
X170714285Y-40178068D02*
X170785713Y-40320925D01*
X170785713Y-40320925D02*
X170785713Y-40392353D01*
X170785713Y-40392353D02*
X170714285Y-40535210D01*
X170714285Y-40535210D02*
X170571428Y-40606639D01*
X170571428Y-40606639D02*
X170357142Y-40606639D01*
X170357142Y-40606639D02*
X170214285Y-40535210D01*
X169714284Y-40606639D02*
X169142856Y-40606639D01*
X169499999Y-41106639D02*
X169499999Y-39820925D01*
X169499999Y-39820925D02*
X169428570Y-39678068D01*
X169428570Y-39678068D02*
X169285713Y-39606639D01*
X169285713Y-39606639D02*
X169142856Y-39606639D01*
X168428570Y-39606639D02*
X168571427Y-39678068D01*
X168571427Y-39678068D02*
X168642856Y-39749496D01*
X168642856Y-39749496D02*
X168714284Y-39892353D01*
X168714284Y-39892353D02*
X168714284Y-40320925D01*
X168714284Y-40320925D02*
X168642856Y-40463782D01*
X168642856Y-40463782D02*
X168571427Y-40535210D01*
X168571427Y-40535210D02*
X168428570Y-40606639D01*
X168428570Y-40606639D02*
X168214284Y-40606639D01*
X168214284Y-40606639D02*
X168071427Y-40535210D01*
X168071427Y-40535210D02*
X167999999Y-40463782D01*
X167999999Y-40463782D02*
X167928570Y-40320925D01*
X167928570Y-40320925D02*
X167928570Y-39892353D01*
X167928570Y-39892353D02*
X167999999Y-39749496D01*
X167999999Y-39749496D02*
X168071427Y-39678068D01*
X168071427Y-39678068D02*
X168214284Y-39606639D01*
X168214284Y-39606639D02*
X168428570Y-39606639D01*
X167285713Y-40606639D02*
X167285713Y-39106639D01*
X167285713Y-40535210D02*
X167142856Y-40606639D01*
X167142856Y-40606639D02*
X166857141Y-40606639D01*
X166857141Y-40606639D02*
X166714284Y-40535210D01*
X166714284Y-40535210D02*
X166642856Y-40463782D01*
X166642856Y-40463782D02*
X166571427Y-40320925D01*
X166571427Y-40320925D02*
X166571427Y-39892353D01*
X166571427Y-39892353D02*
X166642856Y-39749496D01*
X166642856Y-39749496D02*
X166714284Y-39678068D01*
X166714284Y-39678068D02*
X166857141Y-39606639D01*
X166857141Y-39606639D02*
X167142856Y-39606639D01*
X167142856Y-39606639D02*
X167285713Y-39678068D01*
X165928570Y-39606639D02*
X165928570Y-41106639D01*
X165285713Y-39606639D02*
X165285713Y-40392353D01*
X165285713Y-40392353D02*
X165357141Y-40535210D01*
X165357141Y-40535210D02*
X165499998Y-40606639D01*
X165499998Y-40606639D02*
X165714284Y-40606639D01*
X165714284Y-40606639D02*
X165857141Y-40535210D01*
X165857141Y-40535210D02*
X165928570Y-40463782D01*
X163999998Y-39678068D02*
X164142855Y-39606639D01*
X164142855Y-39606639D02*
X164428570Y-39606639D01*
X164428570Y-39606639D02*
X164571427Y-39678068D01*
X164571427Y-39678068D02*
X164642855Y-39820925D01*
X164642855Y-39820925D02*
X164642855Y-40392353D01*
X164642855Y-40392353D02*
X164571427Y-40535210D01*
X164571427Y-40535210D02*
X164428570Y-40606639D01*
X164428570Y-40606639D02*
X164142855Y-40606639D01*
X164142855Y-40606639D02*
X163999998Y-40535210D01*
X163999998Y-40535210D02*
X163928570Y-40392353D01*
X163928570Y-40392353D02*
X163928570Y-40249496D01*
X163928570Y-40249496D02*
X164642855Y-40106639D01*
X163285713Y-39606639D02*
X163285713Y-40606639D01*
X163285713Y-40320925D02*
X163214284Y-40463782D01*
X163214284Y-40463782D02*
X163142856Y-40535210D01*
X163142856Y-40535210D02*
X162999998Y-40606639D01*
X162999998Y-40606639D02*
X162857141Y-40606639D01*
X161214285Y-39606639D02*
X161214285Y-41106639D01*
X160357142Y-39606639D02*
X160999999Y-40463782D01*
X160357142Y-41106639D02*
X161214285Y-40249496D01*
X159071428Y-39606639D02*
X159071428Y-40392353D01*
X159071428Y-40392353D02*
X159142856Y-40535210D01*
X159142856Y-40535210D02*
X159285713Y-40606639D01*
X159285713Y-40606639D02*
X159571428Y-40606639D01*
X159571428Y-40606639D02*
X159714285Y-40535210D01*
X159071428Y-39678068D02*
X159214285Y-39606639D01*
X159214285Y-39606639D02*
X159571428Y-39606639D01*
X159571428Y-39606639D02*
X159714285Y-39678068D01*
X159714285Y-39678068D02*
X159785713Y-39820925D01*
X159785713Y-39820925D02*
X159785713Y-39963782D01*
X159785713Y-39963782D02*
X159714285Y-40106639D01*
X159714285Y-40106639D02*
X159571428Y-40178068D01*
X159571428Y-40178068D02*
X159214285Y-40178068D01*
X159214285Y-40178068D02*
X159071428Y-40249496D01*
X158142856Y-39606639D02*
X158285713Y-39678068D01*
X158285713Y-39678068D02*
X158357142Y-39820925D01*
X158357142Y-39820925D02*
X158357142Y-41106639D01*
X157571428Y-39606639D02*
X157571428Y-40606639D01*
X157571428Y-41106639D02*
X157642856Y-41035210D01*
X157642856Y-41035210D02*
X157571428Y-40963782D01*
X157571428Y-40963782D02*
X157499999Y-41035210D01*
X157499999Y-41035210D02*
X157571428Y-41106639D01*
X157571428Y-41106639D02*
X157571428Y-40963782D01*
X157071427Y-40606639D02*
X156499999Y-40606639D01*
X156857142Y-41106639D02*
X156857142Y-39820925D01*
X156857142Y-39820925D02*
X156785713Y-39678068D01*
X156785713Y-39678068D02*
X156642856Y-39606639D01*
X156642856Y-39606639D02*
X156499999Y-39606639D01*
X155999999Y-39606639D02*
X155999999Y-40606639D01*
X155999999Y-41106639D02*
X156071427Y-41035210D01*
X156071427Y-41035210D02*
X155999999Y-40963782D01*
X155999999Y-40963782D02*
X155928570Y-41035210D01*
X155928570Y-41035210D02*
X155999999Y-41106639D01*
X155999999Y-41106639D02*
X155999999Y-40963782D01*
X155285713Y-40606639D02*
X155285713Y-39606639D01*
X155285713Y-40463782D02*
X155214284Y-40535210D01*
X155214284Y-40535210D02*
X155071427Y-40606639D01*
X155071427Y-40606639D02*
X154857141Y-40606639D01*
X154857141Y-40606639D02*
X154714284Y-40535210D01*
X154714284Y-40535210D02*
X154642856Y-40392353D01*
X154642856Y-40392353D02*
X154642856Y-39606639D01*
X152857141Y-40963782D02*
X152785713Y-41035210D01*
X152785713Y-41035210D02*
X152642856Y-41106639D01*
X152642856Y-41106639D02*
X152285713Y-41106639D01*
X152285713Y-41106639D02*
X152142856Y-41035210D01*
X152142856Y-41035210D02*
X152071427Y-40963782D01*
X152071427Y-40963782D02*
X151999998Y-40820925D01*
X151999998Y-40820925D02*
X151999998Y-40678068D01*
X151999998Y-40678068D02*
X152071427Y-40463782D01*
X152071427Y-40463782D02*
X152928570Y-39606639D01*
X152928570Y-39606639D02*
X151999998Y-39606639D01*
X151071427Y-41106639D02*
X150928570Y-41106639D01*
X150928570Y-41106639D02*
X150785713Y-41035210D01*
X150785713Y-41035210D02*
X150714285Y-40963782D01*
X150714285Y-40963782D02*
X150642856Y-40820925D01*
X150642856Y-40820925D02*
X150571427Y-40535210D01*
X150571427Y-40535210D02*
X150571427Y-40178068D01*
X150571427Y-40178068D02*
X150642856Y-39892353D01*
X150642856Y-39892353D02*
X150714285Y-39749496D01*
X150714285Y-39749496D02*
X150785713Y-39678068D01*
X150785713Y-39678068D02*
X150928570Y-39606639D01*
X150928570Y-39606639D02*
X151071427Y-39606639D01*
X151071427Y-39606639D02*
X151214285Y-39678068D01*
X151214285Y-39678068D02*
X151285713Y-39749496D01*
X151285713Y-39749496D02*
X151357142Y-39892353D01*
X151357142Y-39892353D02*
X151428570Y-40178068D01*
X151428570Y-40178068D02*
X151428570Y-40535210D01*
X151428570Y-40535210D02*
X151357142Y-40820925D01*
X151357142Y-40820925D02*
X151285713Y-40963782D01*
X151285713Y-40963782D02*
X151214285Y-41035210D01*
X151214285Y-41035210D02*
X151071427Y-41106639D01*
X149999999Y-40963782D02*
X149928571Y-41035210D01*
X149928571Y-41035210D02*
X149785714Y-41106639D01*
X149785714Y-41106639D02*
X149428571Y-41106639D01*
X149428571Y-41106639D02*
X149285714Y-41035210D01*
X149285714Y-41035210D02*
X149214285Y-40963782D01*
X149214285Y-40963782D02*
X149142856Y-40820925D01*
X149142856Y-40820925D02*
X149142856Y-40678068D01*
X149142856Y-40678068D02*
X149214285Y-40463782D01*
X149214285Y-40463782D02*
X150071428Y-39606639D01*
X150071428Y-39606639D02*
X149142856Y-39606639D01*
X147857143Y-41106639D02*
X148142857Y-41106639D01*
X148142857Y-41106639D02*
X148285714Y-41035210D01*
X148285714Y-41035210D02*
X148357143Y-40963782D01*
X148357143Y-40963782D02*
X148500000Y-40749496D01*
X148500000Y-40749496D02*
X148571428Y-40463782D01*
X148571428Y-40463782D02*
X148571428Y-39892353D01*
X148571428Y-39892353D02*
X148500000Y-39749496D01*
X148500000Y-39749496D02*
X148428571Y-39678068D01*
X148428571Y-39678068D02*
X148285714Y-39606639D01*
X148285714Y-39606639D02*
X148000000Y-39606639D01*
X148000000Y-39606639D02*
X147857143Y-39678068D01*
X147857143Y-39678068D02*
X147785714Y-39749496D01*
X147785714Y-39749496D02*
X147714285Y-39892353D01*
X147714285Y-39892353D02*
X147714285Y-40249496D01*
X147714285Y-40249496D02*
X147785714Y-40392353D01*
X147785714Y-40392353D02*
X147857143Y-40463782D01*
X147857143Y-40463782D02*
X148000000Y-40535210D01*
X148000000Y-40535210D02*
X148285714Y-40535210D01*
X148285714Y-40535210D02*
X148428571Y-40463782D01*
X148428571Y-40463782D02*
X148500000Y-40392353D01*
X148500000Y-40392353D02*
X148571428Y-40249496D01*
X180438528Y-109535714D02*
X178938528Y-109535714D01*
X178938528Y-109535714D02*
X180009957Y-109035714D01*
X180009957Y-109035714D02*
X178938528Y-108535714D01*
X178938528Y-108535714D02*
X180438528Y-108535714D01*
X180438528Y-107607142D02*
X180367100Y-107749999D01*
X180367100Y-107749999D02*
X180295671Y-107821428D01*
X180295671Y-107821428D02*
X180152814Y-107892856D01*
X180152814Y-107892856D02*
X179724242Y-107892856D01*
X179724242Y-107892856D02*
X179581385Y-107821428D01*
X179581385Y-107821428D02*
X179509957Y-107749999D01*
X179509957Y-107749999D02*
X179438528Y-107607142D01*
X179438528Y-107607142D02*
X179438528Y-107392856D01*
X179438528Y-107392856D02*
X179509957Y-107249999D01*
X179509957Y-107249999D02*
X179581385Y-107178571D01*
X179581385Y-107178571D02*
X179724242Y-107107142D01*
X179724242Y-107107142D02*
X180152814Y-107107142D01*
X180152814Y-107107142D02*
X180295671Y-107178571D01*
X180295671Y-107178571D02*
X180367100Y-107249999D01*
X180367100Y-107249999D02*
X180438528Y-107392856D01*
X180438528Y-107392856D02*
X180438528Y-107607142D01*
X179438528Y-106678570D02*
X179438528Y-106107142D01*
X178938528Y-106464285D02*
X180224242Y-106464285D01*
X180224242Y-106464285D02*
X180367100Y-106392856D01*
X180367100Y-106392856D02*
X180438528Y-106249999D01*
X180438528Y-106249999D02*
X180438528Y-106107142D01*
X180438528Y-105392856D02*
X180367100Y-105535713D01*
X180367100Y-105535713D02*
X180295671Y-105607142D01*
X180295671Y-105607142D02*
X180152814Y-105678570D01*
X180152814Y-105678570D02*
X179724242Y-105678570D01*
X179724242Y-105678570D02*
X179581385Y-105607142D01*
X179581385Y-105607142D02*
X179509957Y-105535713D01*
X179509957Y-105535713D02*
X179438528Y-105392856D01*
X179438528Y-105392856D02*
X179438528Y-105178570D01*
X179438528Y-105178570D02*
X179509957Y-105035713D01*
X179509957Y-105035713D02*
X179581385Y-104964285D01*
X179581385Y-104964285D02*
X179724242Y-104892856D01*
X179724242Y-104892856D02*
X180152814Y-104892856D01*
X180152814Y-104892856D02*
X180295671Y-104964285D01*
X180295671Y-104964285D02*
X180367100Y-105035713D01*
X180367100Y-105035713D02*
X180438528Y-105178570D01*
X180438528Y-105178570D02*
X180438528Y-105392856D01*
X180438528Y-104249999D02*
X179438528Y-104249999D01*
X179724242Y-104249999D02*
X179581385Y-104178570D01*
X179581385Y-104178570D02*
X179509957Y-104107142D01*
X179509957Y-104107142D02*
X179438528Y-103964284D01*
X179438528Y-103964284D02*
X179438528Y-103821427D01*
X179438528Y-101535714D02*
X180438528Y-101535714D01*
X178867100Y-101892856D02*
X179938528Y-102249999D01*
X179938528Y-102249999D02*
X179938528Y-101321428D01*
X180751028Y-75178571D02*
X180751028Y-75892857D01*
X180751028Y-75892857D02*
X179251028Y-75892857D01*
X180751028Y-74678571D02*
X179751028Y-74678571D01*
X179251028Y-74678571D02*
X179322457Y-74749999D01*
X179322457Y-74749999D02*
X179393885Y-74678571D01*
X179393885Y-74678571D02*
X179322457Y-74607142D01*
X179322457Y-74607142D02*
X179251028Y-74678571D01*
X179251028Y-74678571D02*
X179393885Y-74678571D01*
X180751028Y-73964285D02*
X179751028Y-73964285D01*
X179893885Y-73964285D02*
X179822457Y-73892856D01*
X179822457Y-73892856D02*
X179751028Y-73749999D01*
X179751028Y-73749999D02*
X179751028Y-73535713D01*
X179751028Y-73535713D02*
X179822457Y-73392856D01*
X179822457Y-73392856D02*
X179965314Y-73321428D01*
X179965314Y-73321428D02*
X180751028Y-73321428D01*
X179965314Y-73321428D02*
X179822457Y-73249999D01*
X179822457Y-73249999D02*
X179751028Y-73107142D01*
X179751028Y-73107142D02*
X179751028Y-72892856D01*
X179751028Y-72892856D02*
X179822457Y-72749999D01*
X179822457Y-72749999D02*
X179965314Y-72678570D01*
X179965314Y-72678570D02*
X180751028Y-72678570D01*
X180751028Y-71964285D02*
X179751028Y-71964285D01*
X179251028Y-71964285D02*
X179322457Y-72035713D01*
X179322457Y-72035713D02*
X179393885Y-71964285D01*
X179393885Y-71964285D02*
X179322457Y-71892856D01*
X179322457Y-71892856D02*
X179251028Y-71964285D01*
X179251028Y-71964285D02*
X179393885Y-71964285D01*
X179751028Y-71464284D02*
X179751028Y-70892856D01*
X179251028Y-71249999D02*
X180536742Y-71249999D01*
X180536742Y-71249999D02*
X180679600Y-71178570D01*
X180679600Y-71178570D02*
X180751028Y-71035713D01*
X180751028Y-71035713D02*
X180751028Y-70892856D01*
X183094516Y-78107142D02*
X183165944Y-77892857D01*
X183165944Y-77892857D02*
X183165944Y-77535714D01*
X183165944Y-77535714D02*
X183094516Y-77392857D01*
X183094516Y-77392857D02*
X183023087Y-77321428D01*
X183023087Y-77321428D02*
X182880230Y-77249999D01*
X182880230Y-77249999D02*
X182737373Y-77249999D01*
X182737373Y-77249999D02*
X182594516Y-77321428D01*
X182594516Y-77321428D02*
X182523087Y-77392857D01*
X182523087Y-77392857D02*
X182451658Y-77535714D01*
X182451658Y-77535714D02*
X182380230Y-77821428D01*
X182380230Y-77821428D02*
X182308801Y-77964285D01*
X182308801Y-77964285D02*
X182237373Y-78035714D01*
X182237373Y-78035714D02*
X182094516Y-78107142D01*
X182094516Y-78107142D02*
X181951658Y-78107142D01*
X181951658Y-78107142D02*
X181808801Y-78035714D01*
X181808801Y-78035714D02*
X181737373Y-77964285D01*
X181737373Y-77964285D02*
X181665944Y-77821428D01*
X181665944Y-77821428D02*
X181665944Y-77464285D01*
X181665944Y-77464285D02*
X181737373Y-77249999D01*
X182165944Y-76750000D02*
X183165944Y-76464286D01*
X183165944Y-76464286D02*
X182451658Y-76178571D01*
X182451658Y-76178571D02*
X183165944Y-75892857D01*
X183165944Y-75892857D02*
X182165944Y-75607143D01*
X183165944Y-75035714D02*
X182165944Y-75035714D01*
X181665944Y-75035714D02*
X181737373Y-75107142D01*
X181737373Y-75107142D02*
X181808801Y-75035714D01*
X181808801Y-75035714D02*
X181737373Y-74964285D01*
X181737373Y-74964285D02*
X181665944Y-75035714D01*
X181665944Y-75035714D02*
X181808801Y-75035714D01*
X182165944Y-74535713D02*
X182165944Y-73964285D01*
X181665944Y-74321428D02*
X182951658Y-74321428D01*
X182951658Y-74321428D02*
X183094516Y-74249999D01*
X183094516Y-74249999D02*
X183165944Y-74107142D01*
X183165944Y-74107142D02*
X183165944Y-73964285D01*
X183094516Y-72821428D02*
X183165944Y-72964285D01*
X183165944Y-72964285D02*
X183165944Y-73249999D01*
X183165944Y-73249999D02*
X183094516Y-73392856D01*
X183094516Y-73392856D02*
X183023087Y-73464285D01*
X183023087Y-73464285D02*
X182880230Y-73535713D01*
X182880230Y-73535713D02*
X182451658Y-73535713D01*
X182451658Y-73535713D02*
X182308801Y-73464285D01*
X182308801Y-73464285D02*
X182237373Y-73392856D01*
X182237373Y-73392856D02*
X182165944Y-73249999D01*
X182165944Y-73249999D02*
X182165944Y-72964285D01*
X182165944Y-72964285D02*
X182237373Y-72821428D01*
X183165944Y-72178571D02*
X181665944Y-72178571D01*
X183165944Y-71535714D02*
X182380230Y-71535714D01*
X182380230Y-71535714D02*
X182237373Y-71607142D01*
X182237373Y-71607142D02*
X182165944Y-71749999D01*
X182165944Y-71749999D02*
X182165944Y-71964285D01*
X182165944Y-71964285D02*
X182237373Y-72107142D01*
X182237373Y-72107142D02*
X182308801Y-72178571D01*
X183165944Y-68892856D02*
X183165944Y-69749999D01*
X183165944Y-69321428D02*
X181665944Y-69321428D01*
X181665944Y-69321428D02*
X181880230Y-69464285D01*
X181880230Y-69464285D02*
X182023087Y-69607142D01*
X182023087Y-69607142D02*
X182094516Y-69749999D01*
X180751028Y-88678571D02*
X180751028Y-89392857D01*
X180751028Y-89392857D02*
X179251028Y-89392857D01*
X180751028Y-88178571D02*
X179751028Y-88178571D01*
X179251028Y-88178571D02*
X179322457Y-88249999D01*
X179322457Y-88249999D02*
X179393885Y-88178571D01*
X179393885Y-88178571D02*
X179322457Y-88107142D01*
X179322457Y-88107142D02*
X179251028Y-88178571D01*
X179251028Y-88178571D02*
X179393885Y-88178571D01*
X180751028Y-87464285D02*
X179751028Y-87464285D01*
X179893885Y-87464285D02*
X179822457Y-87392856D01*
X179822457Y-87392856D02*
X179751028Y-87249999D01*
X179751028Y-87249999D02*
X179751028Y-87035713D01*
X179751028Y-87035713D02*
X179822457Y-86892856D01*
X179822457Y-86892856D02*
X179965314Y-86821428D01*
X179965314Y-86821428D02*
X180751028Y-86821428D01*
X179965314Y-86821428D02*
X179822457Y-86749999D01*
X179822457Y-86749999D02*
X179751028Y-86607142D01*
X179751028Y-86607142D02*
X179751028Y-86392856D01*
X179751028Y-86392856D02*
X179822457Y-86249999D01*
X179822457Y-86249999D02*
X179965314Y-86178570D01*
X179965314Y-86178570D02*
X180751028Y-86178570D01*
X180751028Y-85464285D02*
X179751028Y-85464285D01*
X179251028Y-85464285D02*
X179322457Y-85535713D01*
X179322457Y-85535713D02*
X179393885Y-85464285D01*
X179393885Y-85464285D02*
X179322457Y-85392856D01*
X179322457Y-85392856D02*
X179251028Y-85464285D01*
X179251028Y-85464285D02*
X179393885Y-85464285D01*
X179751028Y-84964284D02*
X179751028Y-84392856D01*
X179251028Y-84749999D02*
X180536742Y-84749999D01*
X180536742Y-84749999D02*
X180679600Y-84678570D01*
X180679600Y-84678570D02*
X180751028Y-84535713D01*
X180751028Y-84535713D02*
X180751028Y-84392856D01*
X183094516Y-91607142D02*
X183165944Y-91392857D01*
X183165944Y-91392857D02*
X183165944Y-91035714D01*
X183165944Y-91035714D02*
X183094516Y-90892857D01*
X183094516Y-90892857D02*
X183023087Y-90821428D01*
X183023087Y-90821428D02*
X182880230Y-90749999D01*
X182880230Y-90749999D02*
X182737373Y-90749999D01*
X182737373Y-90749999D02*
X182594516Y-90821428D01*
X182594516Y-90821428D02*
X182523087Y-90892857D01*
X182523087Y-90892857D02*
X182451658Y-91035714D01*
X182451658Y-91035714D02*
X182380230Y-91321428D01*
X182380230Y-91321428D02*
X182308801Y-91464285D01*
X182308801Y-91464285D02*
X182237373Y-91535714D01*
X182237373Y-91535714D02*
X182094516Y-91607142D01*
X182094516Y-91607142D02*
X181951658Y-91607142D01*
X181951658Y-91607142D02*
X181808801Y-91535714D01*
X181808801Y-91535714D02*
X181737373Y-91464285D01*
X181737373Y-91464285D02*
X181665944Y-91321428D01*
X181665944Y-91321428D02*
X181665944Y-90964285D01*
X181665944Y-90964285D02*
X181737373Y-90749999D01*
X182165944Y-90250000D02*
X183165944Y-89964286D01*
X183165944Y-89964286D02*
X182451658Y-89678571D01*
X182451658Y-89678571D02*
X183165944Y-89392857D01*
X183165944Y-89392857D02*
X182165944Y-89107143D01*
X183165944Y-88535714D02*
X182165944Y-88535714D01*
X181665944Y-88535714D02*
X181737373Y-88607142D01*
X181737373Y-88607142D02*
X181808801Y-88535714D01*
X181808801Y-88535714D02*
X181737373Y-88464285D01*
X181737373Y-88464285D02*
X181665944Y-88535714D01*
X181665944Y-88535714D02*
X181808801Y-88535714D01*
X182165944Y-88035713D02*
X182165944Y-87464285D01*
X181665944Y-87821428D02*
X182951658Y-87821428D01*
X182951658Y-87821428D02*
X183094516Y-87749999D01*
X183094516Y-87749999D02*
X183165944Y-87607142D01*
X183165944Y-87607142D02*
X183165944Y-87464285D01*
X183094516Y-86321428D02*
X183165944Y-86464285D01*
X183165944Y-86464285D02*
X183165944Y-86749999D01*
X183165944Y-86749999D02*
X183094516Y-86892856D01*
X183094516Y-86892856D02*
X183023087Y-86964285D01*
X183023087Y-86964285D02*
X182880230Y-87035713D01*
X182880230Y-87035713D02*
X182451658Y-87035713D01*
X182451658Y-87035713D02*
X182308801Y-86964285D01*
X182308801Y-86964285D02*
X182237373Y-86892856D01*
X182237373Y-86892856D02*
X182165944Y-86749999D01*
X182165944Y-86749999D02*
X182165944Y-86464285D01*
X182165944Y-86464285D02*
X182237373Y-86321428D01*
X183165944Y-85678571D02*
X181665944Y-85678571D01*
X183165944Y-85035714D02*
X182380230Y-85035714D01*
X182380230Y-85035714D02*
X182237373Y-85107142D01*
X182237373Y-85107142D02*
X182165944Y-85249999D01*
X182165944Y-85249999D02*
X182165944Y-85464285D01*
X182165944Y-85464285D02*
X182237373Y-85607142D01*
X182237373Y-85607142D02*
X182308801Y-85678571D01*
X181808801Y-83249999D02*
X181737373Y-83178571D01*
X181737373Y-83178571D02*
X181665944Y-83035714D01*
X181665944Y-83035714D02*
X181665944Y-82678571D01*
X181665944Y-82678571D02*
X181737373Y-82535714D01*
X181737373Y-82535714D02*
X181808801Y-82464285D01*
X181808801Y-82464285D02*
X181951658Y-82392856D01*
X181951658Y-82392856D02*
X182094516Y-82392856D01*
X182094516Y-82392856D02*
X182308801Y-82464285D01*
X182308801Y-82464285D02*
X183165944Y-83321428D01*
X183165944Y-83321428D02*
X183165944Y-82392856D01*
D12*
X171495180Y-73166666D02*
X170780895Y-73166666D01*
X170780895Y-73166666D02*
X170638038Y-73119047D01*
X170638038Y-73119047D02*
X170542800Y-73023809D01*
X170542800Y-73023809D02*
X170495180Y-72880952D01*
X170495180Y-72880952D02*
X170495180Y-72785714D01*
X171495180Y-74071428D02*
X171495180Y-73880952D01*
X171495180Y-73880952D02*
X171447561Y-73785714D01*
X171447561Y-73785714D02*
X171399942Y-73738095D01*
X171399942Y-73738095D02*
X171257085Y-73642857D01*
X171257085Y-73642857D02*
X171066609Y-73595238D01*
X171066609Y-73595238D02*
X170685657Y-73595238D01*
X170685657Y-73595238D02*
X170590419Y-73642857D01*
X170590419Y-73642857D02*
X170542800Y-73690476D01*
X170542800Y-73690476D02*
X170495180Y-73785714D01*
X170495180Y-73785714D02*
X170495180Y-73976190D01*
X170495180Y-73976190D02*
X170542800Y-74071428D01*
X170542800Y-74071428D02*
X170590419Y-74119047D01*
X170590419Y-74119047D02*
X170685657Y-74166666D01*
X170685657Y-74166666D02*
X170923752Y-74166666D01*
X170923752Y-74166666D02*
X171018990Y-74119047D01*
X171018990Y-74119047D02*
X171066609Y-74071428D01*
X171066609Y-74071428D02*
X171114228Y-73976190D01*
X171114228Y-73976190D02*
X171114228Y-73785714D01*
X171114228Y-73785714D02*
X171066609Y-73690476D01*
X171066609Y-73690476D02*
X171018990Y-73642857D01*
X171018990Y-73642857D02*
X170923752Y-73595238D01*
X171470180Y-105166666D02*
X170755895Y-105166666D01*
X170755895Y-105166666D02*
X170613038Y-105119047D01*
X170613038Y-105119047D02*
X170517800Y-105023809D01*
X170517800Y-105023809D02*
X170470180Y-104880952D01*
X170470180Y-104880952D02*
X170470180Y-104785714D01*
X171136847Y-106071428D02*
X170470180Y-106071428D01*
X171517800Y-105833333D02*
X170803514Y-105595238D01*
X170803514Y-105595238D02*
X170803514Y-106214285D01*
X60238094Y-44545180D02*
X60238094Y-45545180D01*
X60238094Y-45545180D02*
X59999999Y-45545180D01*
X59999999Y-45545180D02*
X59857142Y-45497561D01*
X59857142Y-45497561D02*
X59761904Y-45402323D01*
X59761904Y-45402323D02*
X59714285Y-45307085D01*
X59714285Y-45307085D02*
X59666666Y-45116609D01*
X59666666Y-45116609D02*
X59666666Y-44973752D01*
X59666666Y-44973752D02*
X59714285Y-44783276D01*
X59714285Y-44783276D02*
X59761904Y-44688038D01*
X59761904Y-44688038D02*
X59857142Y-44592800D01*
X59857142Y-44592800D02*
X59999999Y-44545180D01*
X59999999Y-44545180D02*
X60238094Y-44545180D01*
X59285713Y-45449942D02*
X59238094Y-45497561D01*
X59238094Y-45497561D02*
X59142856Y-45545180D01*
X59142856Y-45545180D02*
X58904761Y-45545180D01*
X58904761Y-45545180D02*
X58809523Y-45497561D01*
X58809523Y-45497561D02*
X58761904Y-45449942D01*
X58761904Y-45449942D02*
X58714285Y-45354704D01*
X58714285Y-45354704D02*
X58714285Y-45259466D01*
X58714285Y-45259466D02*
X58761904Y-45116609D01*
X58761904Y-45116609D02*
X59333332Y-44545180D01*
X59333332Y-44545180D02*
X58714285Y-44545180D01*
X171470180Y-128666666D02*
X170755895Y-128666666D01*
X170755895Y-128666666D02*
X170613038Y-128619047D01*
X170613038Y-128619047D02*
X170517800Y-128523809D01*
X170517800Y-128523809D02*
X170470180Y-128380952D01*
X170470180Y-128380952D02*
X170470180Y-128285714D01*
X171470180Y-129047619D02*
X171470180Y-129666666D01*
X171470180Y-129666666D02*
X171089228Y-129333333D01*
X171089228Y-129333333D02*
X171089228Y-129476190D01*
X171089228Y-129476190D02*
X171041609Y-129571428D01*
X171041609Y-129571428D02*
X170993990Y-129619047D01*
X170993990Y-129619047D02*
X170898752Y-129666666D01*
X170898752Y-129666666D02*
X170660657Y-129666666D01*
X170660657Y-129666666D02*
X170565419Y-129619047D01*
X170565419Y-129619047D02*
X170517800Y-129571428D01*
X170517800Y-129571428D02*
X170470180Y-129476190D01*
X170470180Y-129476190D02*
X170470180Y-129190476D01*
X170470180Y-129190476D02*
X170517800Y-129095238D01*
X170517800Y-129095238D02*
X170565419Y-129047619D01*
D10*
X160761904Y-84542580D02*
X160761904Y-83733057D01*
X160761904Y-83733057D02*
X160714285Y-83637819D01*
X160714285Y-83637819D02*
X160666666Y-83590200D01*
X160666666Y-83590200D02*
X160571428Y-83542580D01*
X160571428Y-83542580D02*
X160380952Y-83542580D01*
X160380952Y-83542580D02*
X160285714Y-83590200D01*
X160285714Y-83590200D02*
X160238095Y-83637819D01*
X160238095Y-83637819D02*
X160190476Y-83733057D01*
X160190476Y-83733057D02*
X160190476Y-84542580D01*
X159285714Y-84209247D02*
X159285714Y-83542580D01*
X159523809Y-84590200D02*
X159761904Y-83875914D01*
X159761904Y-83875914D02*
X159142857Y-83875914D01*
X125071428Y-61042580D02*
X124500000Y-61042580D01*
X124785714Y-60042580D02*
X124785714Y-61042580D01*
X124166666Y-60042580D02*
X124166666Y-61042580D01*
X123738095Y-60042580D02*
X123738095Y-60566390D01*
X123738095Y-60566390D02*
X123785714Y-60661628D01*
X123785714Y-60661628D02*
X123880952Y-60709247D01*
X123880952Y-60709247D02*
X124023809Y-60709247D01*
X124023809Y-60709247D02*
X124119047Y-60661628D01*
X124119047Y-60661628D02*
X124166666Y-60614009D01*
X123261904Y-60042580D02*
X123261904Y-60709247D01*
X123261904Y-61042580D02*
X123309523Y-60994961D01*
X123309523Y-60994961D02*
X123261904Y-60947342D01*
X123261904Y-60947342D02*
X123214285Y-60994961D01*
X123214285Y-60994961D02*
X123261904Y-61042580D01*
X123261904Y-61042580D02*
X123261904Y-60947342D01*
X122357143Y-60090200D02*
X122452381Y-60042580D01*
X122452381Y-60042580D02*
X122642857Y-60042580D01*
X122642857Y-60042580D02*
X122738095Y-60090200D01*
X122738095Y-60090200D02*
X122785714Y-60137819D01*
X122785714Y-60137819D02*
X122833333Y-60233057D01*
X122833333Y-60233057D02*
X122833333Y-60518771D01*
X122833333Y-60518771D02*
X122785714Y-60614009D01*
X122785714Y-60614009D02*
X122738095Y-60661628D01*
X122738095Y-60661628D02*
X122642857Y-60709247D01*
X122642857Y-60709247D02*
X122452381Y-60709247D01*
X122452381Y-60709247D02*
X122357143Y-60661628D01*
X121928571Y-60042580D02*
X121928571Y-61042580D01*
X121833333Y-60423533D02*
X121547619Y-60042580D01*
X121547619Y-60709247D02*
X121928571Y-60328295D01*
X119785714Y-60042580D02*
X120119047Y-60518771D01*
X120357142Y-60042580D02*
X120357142Y-61042580D01*
X120357142Y-61042580D02*
X119976190Y-61042580D01*
X119976190Y-61042580D02*
X119880952Y-60994961D01*
X119880952Y-60994961D02*
X119833333Y-60947342D01*
X119833333Y-60947342D02*
X119785714Y-60852104D01*
X119785714Y-60852104D02*
X119785714Y-60709247D01*
X119785714Y-60709247D02*
X119833333Y-60614009D01*
X119833333Y-60614009D02*
X119880952Y-60566390D01*
X119880952Y-60566390D02*
X119976190Y-60518771D01*
X119976190Y-60518771D02*
X120357142Y-60518771D01*
X118976190Y-60090200D02*
X119071428Y-60042580D01*
X119071428Y-60042580D02*
X119261904Y-60042580D01*
X119261904Y-60042580D02*
X119357142Y-60090200D01*
X119357142Y-60090200D02*
X119404761Y-60185438D01*
X119404761Y-60185438D02*
X119404761Y-60566390D01*
X119404761Y-60566390D02*
X119357142Y-60661628D01*
X119357142Y-60661628D02*
X119261904Y-60709247D01*
X119261904Y-60709247D02*
X119071428Y-60709247D01*
X119071428Y-60709247D02*
X118976190Y-60661628D01*
X118976190Y-60661628D02*
X118928571Y-60566390D01*
X118928571Y-60566390D02*
X118928571Y-60471152D01*
X118928571Y-60471152D02*
X119404761Y-60375914D01*
X118071428Y-60042580D02*
X118071428Y-61042580D01*
X118071428Y-60090200D02*
X118166666Y-60042580D01*
X118166666Y-60042580D02*
X118357142Y-60042580D01*
X118357142Y-60042580D02*
X118452380Y-60090200D01*
X118452380Y-60090200D02*
X118499999Y-60137819D01*
X118499999Y-60137819D02*
X118547618Y-60233057D01*
X118547618Y-60233057D02*
X118547618Y-60518771D01*
X118547618Y-60518771D02*
X118499999Y-60614009D01*
X118499999Y-60614009D02*
X118452380Y-60661628D01*
X118452380Y-60661628D02*
X118357142Y-60709247D01*
X118357142Y-60709247D02*
X118166666Y-60709247D01*
X118166666Y-60709247D02*
X118071428Y-60661628D01*
X112476190Y-50066390D02*
X112333333Y-50018771D01*
X112333333Y-50018771D02*
X112285714Y-49971152D01*
X112285714Y-49971152D02*
X112238095Y-49875914D01*
X112238095Y-49875914D02*
X112238095Y-49733057D01*
X112238095Y-49733057D02*
X112285714Y-49637819D01*
X112285714Y-49637819D02*
X112333333Y-49590200D01*
X112333333Y-49590200D02*
X112428571Y-49542580D01*
X112428571Y-49542580D02*
X112809523Y-49542580D01*
X112809523Y-49542580D02*
X112809523Y-50542580D01*
X112809523Y-50542580D02*
X112476190Y-50542580D01*
X112476190Y-50542580D02*
X112380952Y-50494961D01*
X112380952Y-50494961D02*
X112333333Y-50447342D01*
X112333333Y-50447342D02*
X112285714Y-50352104D01*
X112285714Y-50352104D02*
X112285714Y-50256866D01*
X112285714Y-50256866D02*
X112333333Y-50161628D01*
X112333333Y-50161628D02*
X112380952Y-50114009D01*
X112380952Y-50114009D02*
X112476190Y-50066390D01*
X112476190Y-50066390D02*
X112809523Y-50066390D01*
X111666666Y-49542580D02*
X111761904Y-49590200D01*
X111761904Y-49590200D02*
X111809523Y-49685438D01*
X111809523Y-49685438D02*
X111809523Y-50542580D01*
X110857142Y-49542580D02*
X110857142Y-50066390D01*
X110857142Y-50066390D02*
X110904761Y-50161628D01*
X110904761Y-50161628D02*
X110999999Y-50209247D01*
X110999999Y-50209247D02*
X111190475Y-50209247D01*
X111190475Y-50209247D02*
X111285713Y-50161628D01*
X110857142Y-49590200D02*
X110952380Y-49542580D01*
X110952380Y-49542580D02*
X111190475Y-49542580D01*
X111190475Y-49542580D02*
X111285713Y-49590200D01*
X111285713Y-49590200D02*
X111333332Y-49685438D01*
X111333332Y-49685438D02*
X111333332Y-49780676D01*
X111333332Y-49780676D02*
X111285713Y-49875914D01*
X111285713Y-49875914D02*
X111190475Y-49923533D01*
X111190475Y-49923533D02*
X110952380Y-49923533D01*
X110952380Y-49923533D02*
X110857142Y-49971152D01*
X109952380Y-49590200D02*
X110047618Y-49542580D01*
X110047618Y-49542580D02*
X110238094Y-49542580D01*
X110238094Y-49542580D02*
X110333332Y-49590200D01*
X110333332Y-49590200D02*
X110380951Y-49637819D01*
X110380951Y-49637819D02*
X110428570Y-49733057D01*
X110428570Y-49733057D02*
X110428570Y-50018771D01*
X110428570Y-50018771D02*
X110380951Y-50114009D01*
X110380951Y-50114009D02*
X110333332Y-50161628D01*
X110333332Y-50161628D02*
X110238094Y-50209247D01*
X110238094Y-50209247D02*
X110047618Y-50209247D01*
X110047618Y-50209247D02*
X109952380Y-50161628D01*
X109523808Y-49542580D02*
X109523808Y-50542580D01*
X109428570Y-49923533D02*
X109142856Y-49542580D01*
X109142856Y-50209247D02*
X109523808Y-49828295D01*
X114333333Y-58090200D02*
X114190476Y-58042580D01*
X114190476Y-58042580D02*
X113952381Y-58042580D01*
X113952381Y-58042580D02*
X113857143Y-58090200D01*
X113857143Y-58090200D02*
X113809524Y-58137819D01*
X113809524Y-58137819D02*
X113761905Y-58233057D01*
X113761905Y-58233057D02*
X113761905Y-58328295D01*
X113761905Y-58328295D02*
X113809524Y-58423533D01*
X113809524Y-58423533D02*
X113857143Y-58471152D01*
X113857143Y-58471152D02*
X113952381Y-58518771D01*
X113952381Y-58518771D02*
X114142857Y-58566390D01*
X114142857Y-58566390D02*
X114238095Y-58614009D01*
X114238095Y-58614009D02*
X114285714Y-58661628D01*
X114285714Y-58661628D02*
X114333333Y-58756866D01*
X114333333Y-58756866D02*
X114333333Y-58852104D01*
X114333333Y-58852104D02*
X114285714Y-58947342D01*
X114285714Y-58947342D02*
X114238095Y-58994961D01*
X114238095Y-58994961D02*
X114142857Y-59042580D01*
X114142857Y-59042580D02*
X113904762Y-59042580D01*
X113904762Y-59042580D02*
X113761905Y-58994961D01*
X113333333Y-58042580D02*
X113333333Y-59042580D01*
X112904762Y-58042580D02*
X112904762Y-58566390D01*
X112904762Y-58566390D02*
X112952381Y-58661628D01*
X112952381Y-58661628D02*
X113047619Y-58709247D01*
X113047619Y-58709247D02*
X113190476Y-58709247D01*
X113190476Y-58709247D02*
X113285714Y-58661628D01*
X113285714Y-58661628D02*
X113333333Y-58614009D01*
X112000000Y-58709247D02*
X112000000Y-58042580D01*
X112428571Y-58709247D02*
X112428571Y-58185438D01*
X112428571Y-58185438D02*
X112380952Y-58090200D01*
X112380952Y-58090200D02*
X112285714Y-58042580D01*
X112285714Y-58042580D02*
X112142857Y-58042580D01*
X112142857Y-58042580D02*
X112047619Y-58090200D01*
X112047619Y-58090200D02*
X112000000Y-58137819D01*
X111523809Y-58709247D02*
X111523809Y-58042580D01*
X111523809Y-58614009D02*
X111476190Y-58661628D01*
X111476190Y-58661628D02*
X111380952Y-58709247D01*
X111380952Y-58709247D02*
X111238095Y-58709247D01*
X111238095Y-58709247D02*
X111142857Y-58661628D01*
X111142857Y-58661628D02*
X111095238Y-58566390D01*
X111095238Y-58566390D02*
X111095238Y-58042580D01*
X110761904Y-58709247D02*
X110380952Y-58709247D01*
X110619047Y-59042580D02*
X110619047Y-58185438D01*
X110619047Y-58185438D02*
X110571428Y-58090200D01*
X110571428Y-58090200D02*
X110476190Y-58042580D01*
X110476190Y-58042580D02*
X110380952Y-58042580D01*
X108761904Y-58994961D02*
X108857142Y-59042580D01*
X108857142Y-59042580D02*
X108999999Y-59042580D01*
X108999999Y-59042580D02*
X109142856Y-58994961D01*
X109142856Y-58994961D02*
X109238094Y-58899723D01*
X109238094Y-58899723D02*
X109285713Y-58804485D01*
X109285713Y-58804485D02*
X109333332Y-58614009D01*
X109333332Y-58614009D02*
X109333332Y-58471152D01*
X109333332Y-58471152D02*
X109285713Y-58280676D01*
X109285713Y-58280676D02*
X109238094Y-58185438D01*
X109238094Y-58185438D02*
X109142856Y-58090200D01*
X109142856Y-58090200D02*
X108999999Y-58042580D01*
X108999999Y-58042580D02*
X108904761Y-58042580D01*
X108904761Y-58042580D02*
X108761904Y-58090200D01*
X108761904Y-58090200D02*
X108714285Y-58137819D01*
X108714285Y-58137819D02*
X108714285Y-58471152D01*
X108714285Y-58471152D02*
X108904761Y-58471152D01*
X108285713Y-58042580D02*
X108285713Y-59042580D01*
X108285713Y-59042580D02*
X107714285Y-58042580D01*
X107714285Y-58042580D02*
X107714285Y-59042580D01*
X107238094Y-58042580D02*
X107238094Y-59042580D01*
X107238094Y-59042580D02*
X106999999Y-59042580D01*
X106999999Y-59042580D02*
X106857142Y-58994961D01*
X106857142Y-58994961D02*
X106761904Y-58899723D01*
X106761904Y-58899723D02*
X106714285Y-58804485D01*
X106714285Y-58804485D02*
X106666666Y-58614009D01*
X106666666Y-58614009D02*
X106666666Y-58471152D01*
X106666666Y-58471152D02*
X106714285Y-58280676D01*
X106714285Y-58280676D02*
X106761904Y-58185438D01*
X106761904Y-58185438D02*
X106857142Y-58090200D01*
X106857142Y-58090200D02*
X106999999Y-58042580D01*
X106999999Y-58042580D02*
X107238094Y-58042580D01*
X122333332Y-48542580D02*
X121999999Y-47542580D01*
X121999999Y-47542580D02*
X121666666Y-48542580D01*
X120761904Y-47637819D02*
X120809523Y-47590200D01*
X120809523Y-47590200D02*
X120952380Y-47542580D01*
X120952380Y-47542580D02*
X121047618Y-47542580D01*
X121047618Y-47542580D02*
X121190475Y-47590200D01*
X121190475Y-47590200D02*
X121285713Y-47685438D01*
X121285713Y-47685438D02*
X121333332Y-47780676D01*
X121333332Y-47780676D02*
X121380951Y-47971152D01*
X121380951Y-47971152D02*
X121380951Y-48114009D01*
X121380951Y-48114009D02*
X121333332Y-48304485D01*
X121333332Y-48304485D02*
X121285713Y-48399723D01*
X121285713Y-48399723D02*
X121190475Y-48494961D01*
X121190475Y-48494961D02*
X121047618Y-48542580D01*
X121047618Y-48542580D02*
X120952380Y-48542580D01*
X120952380Y-48542580D02*
X120809523Y-48494961D01*
X120809523Y-48494961D02*
X120761904Y-48447342D01*
X119761904Y-47637819D02*
X119809523Y-47590200D01*
X119809523Y-47590200D02*
X119952380Y-47542580D01*
X119952380Y-47542580D02*
X120047618Y-47542580D01*
X120047618Y-47542580D02*
X120190475Y-47590200D01*
X120190475Y-47590200D02*
X120285713Y-47685438D01*
X120285713Y-47685438D02*
X120333332Y-47780676D01*
X120333332Y-47780676D02*
X120380951Y-47971152D01*
X120380951Y-47971152D02*
X120380951Y-48114009D01*
X120380951Y-48114009D02*
X120333332Y-48304485D01*
X120333332Y-48304485D02*
X120285713Y-48399723D01*
X120285713Y-48399723D02*
X120190475Y-48494961D01*
X120190475Y-48494961D02*
X120047618Y-48542580D01*
X120047618Y-48542580D02*
X119952380Y-48542580D01*
X119952380Y-48542580D02*
X119809523Y-48494961D01*
X119809523Y-48494961D02*
X119761904Y-48447342D01*
X111761904Y-48494961D02*
X111857142Y-48542580D01*
X111857142Y-48542580D02*
X111999999Y-48542580D01*
X111999999Y-48542580D02*
X112142856Y-48494961D01*
X112142856Y-48494961D02*
X112238094Y-48399723D01*
X112238094Y-48399723D02*
X112285713Y-48304485D01*
X112285713Y-48304485D02*
X112333332Y-48114009D01*
X112333332Y-48114009D02*
X112333332Y-47971152D01*
X112333332Y-47971152D02*
X112285713Y-47780676D01*
X112285713Y-47780676D02*
X112238094Y-47685438D01*
X112238094Y-47685438D02*
X112142856Y-47590200D01*
X112142856Y-47590200D02*
X111999999Y-47542580D01*
X111999999Y-47542580D02*
X111904761Y-47542580D01*
X111904761Y-47542580D02*
X111761904Y-47590200D01*
X111761904Y-47590200D02*
X111714285Y-47637819D01*
X111714285Y-47637819D02*
X111714285Y-47971152D01*
X111714285Y-47971152D02*
X111904761Y-47971152D01*
X111285713Y-47542580D02*
X111285713Y-48542580D01*
X111285713Y-48542580D02*
X110714285Y-47542580D01*
X110714285Y-47542580D02*
X110714285Y-48542580D01*
X110238094Y-47542580D02*
X110238094Y-48542580D01*
X110238094Y-48542580D02*
X109999999Y-48542580D01*
X109999999Y-48542580D02*
X109857142Y-48494961D01*
X109857142Y-48494961D02*
X109761904Y-48399723D01*
X109761904Y-48399723D02*
X109714285Y-48304485D01*
X109714285Y-48304485D02*
X109666666Y-48114009D01*
X109666666Y-48114009D02*
X109666666Y-47971152D01*
X109666666Y-47971152D02*
X109714285Y-47780676D01*
X109714285Y-47780676D02*
X109761904Y-47685438D01*
X109761904Y-47685438D02*
X109857142Y-47590200D01*
X109857142Y-47590200D02*
X109999999Y-47542580D01*
X109999999Y-47542580D02*
X110238094Y-47542580D01*
X121571428Y-49542580D02*
X121904761Y-50018771D01*
X122142856Y-49542580D02*
X122142856Y-50542580D01*
X122142856Y-50542580D02*
X121761904Y-50542580D01*
X121761904Y-50542580D02*
X121666666Y-50494961D01*
X121666666Y-50494961D02*
X121619047Y-50447342D01*
X121619047Y-50447342D02*
X121571428Y-50352104D01*
X121571428Y-50352104D02*
X121571428Y-50209247D01*
X121571428Y-50209247D02*
X121619047Y-50114009D01*
X121619047Y-50114009D02*
X121666666Y-50066390D01*
X121666666Y-50066390D02*
X121761904Y-50018771D01*
X121761904Y-50018771D02*
X122142856Y-50018771D01*
X120761904Y-49590200D02*
X120857142Y-49542580D01*
X120857142Y-49542580D02*
X121047618Y-49542580D01*
X121047618Y-49542580D02*
X121142856Y-49590200D01*
X121142856Y-49590200D02*
X121190475Y-49685438D01*
X121190475Y-49685438D02*
X121190475Y-50066390D01*
X121190475Y-50066390D02*
X121142856Y-50161628D01*
X121142856Y-50161628D02*
X121047618Y-50209247D01*
X121047618Y-50209247D02*
X120857142Y-50209247D01*
X120857142Y-50209247D02*
X120761904Y-50161628D01*
X120761904Y-50161628D02*
X120714285Y-50066390D01*
X120714285Y-50066390D02*
X120714285Y-49971152D01*
X120714285Y-49971152D02*
X121190475Y-49875914D01*
X119857142Y-49542580D02*
X119857142Y-50542580D01*
X119857142Y-49590200D02*
X119952380Y-49542580D01*
X119952380Y-49542580D02*
X120142856Y-49542580D01*
X120142856Y-49542580D02*
X120238094Y-49590200D01*
X120238094Y-49590200D02*
X120285713Y-49637819D01*
X120285713Y-49637819D02*
X120333332Y-49733057D01*
X120333332Y-49733057D02*
X120333332Y-50018771D01*
X120333332Y-50018771D02*
X120285713Y-50114009D01*
X120285713Y-50114009D02*
X120238094Y-50161628D01*
X120238094Y-50161628D02*
X120142856Y-50209247D01*
X120142856Y-50209247D02*
X119952380Y-50209247D01*
X119952380Y-50209247D02*
X119857142Y-50161628D01*
X114738095Y-61042580D02*
X114166667Y-61042580D01*
X114452381Y-60042580D02*
X114452381Y-61042580D01*
X113833333Y-60042580D02*
X113833333Y-61042580D01*
X113404762Y-60042580D02*
X113404762Y-60566390D01*
X113404762Y-60566390D02*
X113452381Y-60661628D01*
X113452381Y-60661628D02*
X113547619Y-60709247D01*
X113547619Y-60709247D02*
X113690476Y-60709247D01*
X113690476Y-60709247D02*
X113785714Y-60661628D01*
X113785714Y-60661628D02*
X113833333Y-60614009D01*
X112928571Y-60042580D02*
X112928571Y-60709247D01*
X112928571Y-61042580D02*
X112976190Y-60994961D01*
X112976190Y-60994961D02*
X112928571Y-60947342D01*
X112928571Y-60947342D02*
X112880952Y-60994961D01*
X112880952Y-60994961D02*
X112928571Y-61042580D01*
X112928571Y-61042580D02*
X112928571Y-60947342D01*
X112023810Y-60090200D02*
X112119048Y-60042580D01*
X112119048Y-60042580D02*
X112309524Y-60042580D01*
X112309524Y-60042580D02*
X112404762Y-60090200D01*
X112404762Y-60090200D02*
X112452381Y-60137819D01*
X112452381Y-60137819D02*
X112500000Y-60233057D01*
X112500000Y-60233057D02*
X112500000Y-60518771D01*
X112500000Y-60518771D02*
X112452381Y-60614009D01*
X112452381Y-60614009D02*
X112404762Y-60661628D01*
X112404762Y-60661628D02*
X112309524Y-60709247D01*
X112309524Y-60709247D02*
X112119048Y-60709247D01*
X112119048Y-60709247D02*
X112023810Y-60661628D01*
X111595238Y-60042580D02*
X111595238Y-61042580D01*
X111500000Y-60423533D02*
X111214286Y-60042580D01*
X111214286Y-60709247D02*
X111595238Y-60328295D01*
X109690476Y-60566390D02*
X109547619Y-60518771D01*
X109547619Y-60518771D02*
X109500000Y-60471152D01*
X109500000Y-60471152D02*
X109452381Y-60375914D01*
X109452381Y-60375914D02*
X109452381Y-60233057D01*
X109452381Y-60233057D02*
X109500000Y-60137819D01*
X109500000Y-60137819D02*
X109547619Y-60090200D01*
X109547619Y-60090200D02*
X109642857Y-60042580D01*
X109642857Y-60042580D02*
X110023809Y-60042580D01*
X110023809Y-60042580D02*
X110023809Y-61042580D01*
X110023809Y-61042580D02*
X109690476Y-61042580D01*
X109690476Y-61042580D02*
X109595238Y-60994961D01*
X109595238Y-60994961D02*
X109547619Y-60947342D01*
X109547619Y-60947342D02*
X109500000Y-60852104D01*
X109500000Y-60852104D02*
X109500000Y-60756866D01*
X109500000Y-60756866D02*
X109547619Y-60661628D01*
X109547619Y-60661628D02*
X109595238Y-60614009D01*
X109595238Y-60614009D02*
X109690476Y-60566390D01*
X109690476Y-60566390D02*
X110023809Y-60566390D01*
X108880952Y-60042580D02*
X108976190Y-60090200D01*
X108976190Y-60090200D02*
X109023809Y-60185438D01*
X109023809Y-60185438D02*
X109023809Y-61042580D01*
X108071428Y-60042580D02*
X108071428Y-60566390D01*
X108071428Y-60566390D02*
X108119047Y-60661628D01*
X108119047Y-60661628D02*
X108214285Y-60709247D01*
X108214285Y-60709247D02*
X108404761Y-60709247D01*
X108404761Y-60709247D02*
X108499999Y-60661628D01*
X108071428Y-60090200D02*
X108166666Y-60042580D01*
X108166666Y-60042580D02*
X108404761Y-60042580D01*
X108404761Y-60042580D02*
X108499999Y-60090200D01*
X108499999Y-60090200D02*
X108547618Y-60185438D01*
X108547618Y-60185438D02*
X108547618Y-60280676D01*
X108547618Y-60280676D02*
X108499999Y-60375914D01*
X108499999Y-60375914D02*
X108404761Y-60423533D01*
X108404761Y-60423533D02*
X108166666Y-60423533D01*
X108166666Y-60423533D02*
X108071428Y-60471152D01*
X107166666Y-60090200D02*
X107261904Y-60042580D01*
X107261904Y-60042580D02*
X107452380Y-60042580D01*
X107452380Y-60042580D02*
X107547618Y-60090200D01*
X107547618Y-60090200D02*
X107595237Y-60137819D01*
X107595237Y-60137819D02*
X107642856Y-60233057D01*
X107642856Y-60233057D02*
X107642856Y-60518771D01*
X107642856Y-60518771D02*
X107595237Y-60614009D01*
X107595237Y-60614009D02*
X107547618Y-60661628D01*
X107547618Y-60661628D02*
X107452380Y-60709247D01*
X107452380Y-60709247D02*
X107261904Y-60709247D01*
X107261904Y-60709247D02*
X107166666Y-60661628D01*
X106738094Y-60042580D02*
X106738094Y-61042580D01*
X106642856Y-60423533D02*
X106357142Y-60042580D01*
X106357142Y-60709247D02*
X106738094Y-60328295D01*
X118285714Y-47590200D02*
X118142857Y-47542580D01*
X118142857Y-47542580D02*
X117904762Y-47542580D01*
X117904762Y-47542580D02*
X117809524Y-47590200D01*
X117809524Y-47590200D02*
X117761905Y-47637819D01*
X117761905Y-47637819D02*
X117714286Y-47733057D01*
X117714286Y-47733057D02*
X117714286Y-47828295D01*
X117714286Y-47828295D02*
X117761905Y-47923533D01*
X117761905Y-47923533D02*
X117809524Y-47971152D01*
X117809524Y-47971152D02*
X117904762Y-48018771D01*
X117904762Y-48018771D02*
X118095238Y-48066390D01*
X118095238Y-48066390D02*
X118190476Y-48114009D01*
X118190476Y-48114009D02*
X118238095Y-48161628D01*
X118238095Y-48161628D02*
X118285714Y-48256866D01*
X118285714Y-48256866D02*
X118285714Y-48352104D01*
X118285714Y-48352104D02*
X118238095Y-48447342D01*
X118238095Y-48447342D02*
X118190476Y-48494961D01*
X118190476Y-48494961D02*
X118095238Y-48542580D01*
X118095238Y-48542580D02*
X117857143Y-48542580D01*
X117857143Y-48542580D02*
X117714286Y-48494961D01*
X116857143Y-48209247D02*
X116857143Y-47542580D01*
X117285714Y-48209247D02*
X117285714Y-47685438D01*
X117285714Y-47685438D02*
X117238095Y-47590200D01*
X117238095Y-47590200D02*
X117142857Y-47542580D01*
X117142857Y-47542580D02*
X117000000Y-47542580D01*
X117000000Y-47542580D02*
X116904762Y-47590200D01*
X116904762Y-47590200D02*
X116857143Y-47637819D01*
X116380952Y-48209247D02*
X116380952Y-47209247D01*
X116380952Y-48161628D02*
X116285714Y-48209247D01*
X116285714Y-48209247D02*
X116095238Y-48209247D01*
X116095238Y-48209247D02*
X116000000Y-48161628D01*
X116000000Y-48161628D02*
X115952381Y-48114009D01*
X115952381Y-48114009D02*
X115904762Y-48018771D01*
X115904762Y-48018771D02*
X115904762Y-47733057D01*
X115904762Y-47733057D02*
X115952381Y-47637819D01*
X115952381Y-47637819D02*
X116000000Y-47590200D01*
X116000000Y-47590200D02*
X116095238Y-47542580D01*
X116095238Y-47542580D02*
X116285714Y-47542580D01*
X116285714Y-47542580D02*
X116380952Y-47590200D01*
X115476190Y-48209247D02*
X115476190Y-47209247D01*
X115476190Y-48161628D02*
X115380952Y-48209247D01*
X115380952Y-48209247D02*
X115190476Y-48209247D01*
X115190476Y-48209247D02*
X115095238Y-48161628D01*
X115095238Y-48161628D02*
X115047619Y-48114009D01*
X115047619Y-48114009D02*
X115000000Y-48018771D01*
X115000000Y-48018771D02*
X115000000Y-47733057D01*
X115000000Y-47733057D02*
X115047619Y-47637819D01*
X115047619Y-47637819D02*
X115095238Y-47590200D01*
X115095238Y-47590200D02*
X115190476Y-47542580D01*
X115190476Y-47542580D02*
X115380952Y-47542580D01*
X115380952Y-47542580D02*
X115476190Y-47590200D01*
X114428571Y-47542580D02*
X114523809Y-47590200D01*
X114523809Y-47590200D02*
X114571428Y-47685438D01*
X114571428Y-47685438D02*
X114571428Y-48542580D01*
X114142856Y-48209247D02*
X113904761Y-47542580D01*
X113666666Y-48209247D02*
X113904761Y-47542580D01*
X113904761Y-47542580D02*
X113999999Y-47304485D01*
X113999999Y-47304485D02*
X114047618Y-47256866D01*
X114047618Y-47256866D02*
X114142856Y-47209247D01*
X127357143Y-58090200D02*
X127214286Y-58042580D01*
X127214286Y-58042580D02*
X126976191Y-58042580D01*
X126976191Y-58042580D02*
X126880953Y-58090200D01*
X126880953Y-58090200D02*
X126833334Y-58137819D01*
X126833334Y-58137819D02*
X126785715Y-58233057D01*
X126785715Y-58233057D02*
X126785715Y-58328295D01*
X126785715Y-58328295D02*
X126833334Y-58423533D01*
X126833334Y-58423533D02*
X126880953Y-58471152D01*
X126880953Y-58471152D02*
X126976191Y-58518771D01*
X126976191Y-58518771D02*
X127166667Y-58566390D01*
X127166667Y-58566390D02*
X127261905Y-58614009D01*
X127261905Y-58614009D02*
X127309524Y-58661628D01*
X127309524Y-58661628D02*
X127357143Y-58756866D01*
X127357143Y-58756866D02*
X127357143Y-58852104D01*
X127357143Y-58852104D02*
X127309524Y-58947342D01*
X127309524Y-58947342D02*
X127261905Y-58994961D01*
X127261905Y-58994961D02*
X127166667Y-59042580D01*
X127166667Y-59042580D02*
X126928572Y-59042580D01*
X126928572Y-59042580D02*
X126785715Y-58994961D01*
X126357143Y-58042580D02*
X126357143Y-59042580D01*
X125928572Y-58042580D02*
X125928572Y-58566390D01*
X125928572Y-58566390D02*
X125976191Y-58661628D01*
X125976191Y-58661628D02*
X126071429Y-58709247D01*
X126071429Y-58709247D02*
X126214286Y-58709247D01*
X126214286Y-58709247D02*
X126309524Y-58661628D01*
X126309524Y-58661628D02*
X126357143Y-58614009D01*
X125023810Y-58709247D02*
X125023810Y-58042580D01*
X125452381Y-58709247D02*
X125452381Y-58185438D01*
X125452381Y-58185438D02*
X125404762Y-58090200D01*
X125404762Y-58090200D02*
X125309524Y-58042580D01*
X125309524Y-58042580D02*
X125166667Y-58042580D01*
X125166667Y-58042580D02*
X125071429Y-58090200D01*
X125071429Y-58090200D02*
X125023810Y-58137819D01*
X124547619Y-58709247D02*
X124547619Y-58042580D01*
X124547619Y-58614009D02*
X124500000Y-58661628D01*
X124500000Y-58661628D02*
X124404762Y-58709247D01*
X124404762Y-58709247D02*
X124261905Y-58709247D01*
X124261905Y-58709247D02*
X124166667Y-58661628D01*
X124166667Y-58661628D02*
X124119048Y-58566390D01*
X124119048Y-58566390D02*
X124119048Y-58042580D01*
X123785714Y-58709247D02*
X123404762Y-58709247D01*
X123642857Y-59042580D02*
X123642857Y-58185438D01*
X123642857Y-58185438D02*
X123595238Y-58090200D01*
X123595238Y-58090200D02*
X123500000Y-58042580D01*
X123500000Y-58042580D02*
X123404762Y-58042580D01*
X121833333Y-58042580D02*
X122309523Y-58042580D01*
X122309523Y-58042580D02*
X122309523Y-59042580D01*
X121357142Y-58042580D02*
X121452380Y-58090200D01*
X121452380Y-58090200D02*
X121499999Y-58137819D01*
X121499999Y-58137819D02*
X121547618Y-58233057D01*
X121547618Y-58233057D02*
X121547618Y-58518771D01*
X121547618Y-58518771D02*
X121499999Y-58614009D01*
X121499999Y-58614009D02*
X121452380Y-58661628D01*
X121452380Y-58661628D02*
X121357142Y-58709247D01*
X121357142Y-58709247D02*
X121214285Y-58709247D01*
X121214285Y-58709247D02*
X121119047Y-58661628D01*
X121119047Y-58661628D02*
X121071428Y-58614009D01*
X121071428Y-58614009D02*
X121023809Y-58518771D01*
X121023809Y-58518771D02*
X121023809Y-58233057D01*
X121023809Y-58233057D02*
X121071428Y-58137819D01*
X121071428Y-58137819D02*
X121119047Y-58090200D01*
X121119047Y-58090200D02*
X121214285Y-58042580D01*
X121214285Y-58042580D02*
X121357142Y-58042580D01*
X120166666Y-58042580D02*
X120166666Y-58566390D01*
X120166666Y-58566390D02*
X120214285Y-58661628D01*
X120214285Y-58661628D02*
X120309523Y-58709247D01*
X120309523Y-58709247D02*
X120499999Y-58709247D01*
X120499999Y-58709247D02*
X120595237Y-58661628D01*
X120166666Y-58090200D02*
X120261904Y-58042580D01*
X120261904Y-58042580D02*
X120499999Y-58042580D01*
X120499999Y-58042580D02*
X120595237Y-58090200D01*
X120595237Y-58090200D02*
X120642856Y-58185438D01*
X120642856Y-58185438D02*
X120642856Y-58280676D01*
X120642856Y-58280676D02*
X120595237Y-58375914D01*
X120595237Y-58375914D02*
X120499999Y-58423533D01*
X120499999Y-58423533D02*
X120261904Y-58423533D01*
X120261904Y-58423533D02*
X120166666Y-58471152D01*
X119261904Y-58042580D02*
X119261904Y-59042580D01*
X119261904Y-58090200D02*
X119357142Y-58042580D01*
X119357142Y-58042580D02*
X119547618Y-58042580D01*
X119547618Y-58042580D02*
X119642856Y-58090200D01*
X119642856Y-58090200D02*
X119690475Y-58137819D01*
X119690475Y-58137819D02*
X119738094Y-58233057D01*
X119738094Y-58233057D02*
X119738094Y-58518771D01*
X119738094Y-58518771D02*
X119690475Y-58614009D01*
X119690475Y-58614009D02*
X119642856Y-58661628D01*
X119642856Y-58661628D02*
X119547618Y-58709247D01*
X119547618Y-58709247D02*
X119357142Y-58709247D01*
X119357142Y-58709247D02*
X119261904Y-58661628D01*
X118023808Y-58042580D02*
X118023808Y-59042580D01*
X118023808Y-59042580D02*
X117452380Y-58042580D01*
X117452380Y-58042580D02*
X117452380Y-59042580D01*
X116595237Y-58090200D02*
X116690475Y-58042580D01*
X116690475Y-58042580D02*
X116880951Y-58042580D01*
X116880951Y-58042580D02*
X116976189Y-58090200D01*
X116976189Y-58090200D02*
X117023808Y-58185438D01*
X117023808Y-58185438D02*
X117023808Y-58566390D01*
X117023808Y-58566390D02*
X116976189Y-58661628D01*
X116976189Y-58661628D02*
X116880951Y-58709247D01*
X116880951Y-58709247D02*
X116690475Y-58709247D01*
X116690475Y-58709247D02*
X116595237Y-58661628D01*
X116595237Y-58661628D02*
X116547618Y-58566390D01*
X116547618Y-58566390D02*
X116547618Y-58471152D01*
X116547618Y-58471152D02*
X117023808Y-58375914D01*
X115690475Y-58709247D02*
X115690475Y-57899723D01*
X115690475Y-57899723D02*
X115738094Y-57804485D01*
X115738094Y-57804485D02*
X115785713Y-57756866D01*
X115785713Y-57756866D02*
X115880951Y-57709247D01*
X115880951Y-57709247D02*
X116023808Y-57709247D01*
X116023808Y-57709247D02*
X116119046Y-57756866D01*
X115690475Y-58090200D02*
X115785713Y-58042580D01*
X115785713Y-58042580D02*
X115976189Y-58042580D01*
X115976189Y-58042580D02*
X116071427Y-58090200D01*
X116071427Y-58090200D02*
X116119046Y-58137819D01*
X116119046Y-58137819D02*
X116166665Y-58233057D01*
X116166665Y-58233057D02*
X116166665Y-58518771D01*
X116166665Y-58518771D02*
X116119046Y-58614009D01*
X116119046Y-58614009D02*
X116071427Y-58661628D01*
X116071427Y-58661628D02*
X115976189Y-58709247D01*
X115976189Y-58709247D02*
X115785713Y-58709247D01*
X115785713Y-58709247D02*
X115690475Y-58661628D01*
X117928571Y-50018771D02*
X117928571Y-49542580D01*
X118261904Y-50542580D02*
X117928571Y-50018771D01*
X117928571Y-50018771D02*
X117595238Y-50542580D01*
X116880952Y-49590200D02*
X116976190Y-49542580D01*
X116976190Y-49542580D02*
X117166666Y-49542580D01*
X117166666Y-49542580D02*
X117261904Y-49590200D01*
X117261904Y-49590200D02*
X117309523Y-49685438D01*
X117309523Y-49685438D02*
X117309523Y-50066390D01*
X117309523Y-50066390D02*
X117261904Y-50161628D01*
X117261904Y-50161628D02*
X117166666Y-50209247D01*
X117166666Y-50209247D02*
X116976190Y-50209247D01*
X116976190Y-50209247D02*
X116880952Y-50161628D01*
X116880952Y-50161628D02*
X116833333Y-50066390D01*
X116833333Y-50066390D02*
X116833333Y-49971152D01*
X116833333Y-49971152D02*
X117309523Y-49875914D01*
X116261904Y-49542580D02*
X116357142Y-49590200D01*
X116357142Y-49590200D02*
X116404761Y-49685438D01*
X116404761Y-49685438D02*
X116404761Y-50542580D01*
X115738094Y-49542580D02*
X115833332Y-49590200D01*
X115833332Y-49590200D02*
X115880951Y-49685438D01*
X115880951Y-49685438D02*
X115880951Y-50542580D01*
X115214284Y-49542580D02*
X115309522Y-49590200D01*
X115309522Y-49590200D02*
X115357141Y-49637819D01*
X115357141Y-49637819D02*
X115404760Y-49733057D01*
X115404760Y-49733057D02*
X115404760Y-50018771D01*
X115404760Y-50018771D02*
X115357141Y-50114009D01*
X115357141Y-50114009D02*
X115309522Y-50161628D01*
X115309522Y-50161628D02*
X115214284Y-50209247D01*
X115214284Y-50209247D02*
X115071427Y-50209247D01*
X115071427Y-50209247D02*
X114976189Y-50161628D01*
X114976189Y-50161628D02*
X114928570Y-50114009D01*
X114928570Y-50114009D02*
X114880951Y-50018771D01*
X114880951Y-50018771D02*
X114880951Y-49733057D01*
X114880951Y-49733057D02*
X114928570Y-49637819D01*
X114928570Y-49637819D02*
X114976189Y-49590200D01*
X114976189Y-49590200D02*
X115071427Y-49542580D01*
X115071427Y-49542580D02*
X115214284Y-49542580D01*
X114547617Y-50209247D02*
X114357141Y-49542580D01*
X114357141Y-49542580D02*
X114166665Y-50018771D01*
X114166665Y-50018771D02*
X113976189Y-49542580D01*
X113976189Y-49542580D02*
X113785713Y-50209247D01*
X160761904Y-120542580D02*
X160761904Y-119733057D01*
X160761904Y-119733057D02*
X160714285Y-119637819D01*
X160714285Y-119637819D02*
X160666666Y-119590200D01*
X160666666Y-119590200D02*
X160571428Y-119542580D01*
X160571428Y-119542580D02*
X160380952Y-119542580D01*
X160380952Y-119542580D02*
X160285714Y-119590200D01*
X160285714Y-119590200D02*
X160238095Y-119637819D01*
X160238095Y-119637819D02*
X160190476Y-119733057D01*
X160190476Y-119733057D02*
X160190476Y-120542580D01*
X159761904Y-120447342D02*
X159714285Y-120494961D01*
X159714285Y-120494961D02*
X159619047Y-120542580D01*
X159619047Y-120542580D02*
X159380952Y-120542580D01*
X159380952Y-120542580D02*
X159285714Y-120494961D01*
X159285714Y-120494961D02*
X159238095Y-120447342D01*
X159238095Y-120447342D02*
X159190476Y-120352104D01*
X159190476Y-120352104D02*
X159190476Y-120256866D01*
X159190476Y-120256866D02*
X159238095Y-120114009D01*
X159238095Y-120114009D02*
X159809523Y-119542580D01*
X159809523Y-119542580D02*
X159190476Y-119542580D01*
D12*
X130333333Y-146545180D02*
X130333333Y-145830895D01*
X130333333Y-145830895D02*
X130380952Y-145688038D01*
X130380952Y-145688038D02*
X130476190Y-145592800D01*
X130476190Y-145592800D02*
X130619047Y-145545180D01*
X130619047Y-145545180D02*
X130714285Y-145545180D01*
X129333333Y-145545180D02*
X129904761Y-145545180D01*
X129619047Y-145545180D02*
X129619047Y-146545180D01*
X129619047Y-146545180D02*
X129714285Y-146402323D01*
X129714285Y-146402323D02*
X129809523Y-146307085D01*
X129809523Y-146307085D02*
X129904761Y-146259466D01*
D10*
X160761904Y-102542580D02*
X160761904Y-101733057D01*
X160761904Y-101733057D02*
X160714285Y-101637819D01*
X160714285Y-101637819D02*
X160666666Y-101590200D01*
X160666666Y-101590200D02*
X160571428Y-101542580D01*
X160571428Y-101542580D02*
X160380952Y-101542580D01*
X160380952Y-101542580D02*
X160285714Y-101590200D01*
X160285714Y-101590200D02*
X160238095Y-101637819D01*
X160238095Y-101637819D02*
X160190476Y-101733057D01*
X160190476Y-101733057D02*
X160190476Y-102542580D01*
X159809523Y-102542580D02*
X159190476Y-102542580D01*
X159190476Y-102542580D02*
X159523809Y-102161628D01*
X159523809Y-102161628D02*
X159380952Y-102161628D01*
X159380952Y-102161628D02*
X159285714Y-102114009D01*
X159285714Y-102114009D02*
X159238095Y-102066390D01*
X159238095Y-102066390D02*
X159190476Y-101971152D01*
X159190476Y-101971152D02*
X159190476Y-101733057D01*
X159190476Y-101733057D02*
X159238095Y-101637819D01*
X159238095Y-101637819D02*
X159285714Y-101590200D01*
X159285714Y-101590200D02*
X159380952Y-101542580D01*
X159380952Y-101542580D02*
X159666666Y-101542580D01*
X159666666Y-101542580D02*
X159761904Y-101590200D01*
X159761904Y-101590200D02*
X159809523Y-101637819D01*
X113286904Y-155542580D02*
X113286904Y-154733057D01*
X113286904Y-154733057D02*
X113239285Y-154637819D01*
X113239285Y-154637819D02*
X113191666Y-154590200D01*
X113191666Y-154590200D02*
X113096428Y-154542580D01*
X113096428Y-154542580D02*
X112905952Y-154542580D01*
X112905952Y-154542580D02*
X112810714Y-154590200D01*
X112810714Y-154590200D02*
X112763095Y-154637819D01*
X112763095Y-154637819D02*
X112715476Y-154733057D01*
X112715476Y-154733057D02*
X112715476Y-155542580D01*
X111810714Y-155542580D02*
X112001190Y-155542580D01*
X112001190Y-155542580D02*
X112096428Y-155494961D01*
X112096428Y-155494961D02*
X112144047Y-155447342D01*
X112144047Y-155447342D02*
X112239285Y-155304485D01*
X112239285Y-155304485D02*
X112286904Y-155114009D01*
X112286904Y-155114009D02*
X112286904Y-154733057D01*
X112286904Y-154733057D02*
X112239285Y-154637819D01*
X112239285Y-154637819D02*
X112191666Y-154590200D01*
X112191666Y-154590200D02*
X112096428Y-154542580D01*
X112096428Y-154542580D02*
X111905952Y-154542580D01*
X111905952Y-154542580D02*
X111810714Y-154590200D01*
X111810714Y-154590200D02*
X111763095Y-154637819D01*
X111763095Y-154637819D02*
X111715476Y-154733057D01*
X111715476Y-154733057D02*
X111715476Y-154971152D01*
X111715476Y-154971152D02*
X111763095Y-155066390D01*
X111763095Y-155066390D02*
X111810714Y-155114009D01*
X111810714Y-155114009D02*
X111905952Y-155161628D01*
X111905952Y-155161628D02*
X112096428Y-155161628D01*
X112096428Y-155161628D02*
X112191666Y-155114009D01*
X112191666Y-155114009D02*
X112239285Y-155066390D01*
X112239285Y-155066390D02*
X112286904Y-154971152D01*
D12*
X101464411Y-78082561D02*
X101559649Y-78130180D01*
X101559649Y-78130180D02*
X101702506Y-78130180D01*
X101702506Y-78130180D02*
X101845363Y-78082561D01*
X101845363Y-78082561D02*
X101940601Y-77987323D01*
X101940601Y-77987323D02*
X101988220Y-77892085D01*
X101988220Y-77892085D02*
X102035839Y-77701609D01*
X102035839Y-77701609D02*
X102035839Y-77558752D01*
X102035839Y-77558752D02*
X101988220Y-77368276D01*
X101988220Y-77368276D02*
X101940601Y-77273038D01*
X101940601Y-77273038D02*
X101845363Y-77177800D01*
X101845363Y-77177800D02*
X101702506Y-77130180D01*
X101702506Y-77130180D02*
X101607268Y-77130180D01*
X101607268Y-77130180D02*
X101464411Y-77177800D01*
X101464411Y-77177800D02*
X101416792Y-77225419D01*
X101416792Y-77225419D02*
X101416792Y-77558752D01*
X101416792Y-77558752D02*
X101607268Y-77558752D01*
X100988220Y-77130180D02*
X100988220Y-78130180D01*
X100988220Y-78130180D02*
X100416792Y-77130180D01*
X100416792Y-77130180D02*
X100416792Y-78130180D01*
X99940601Y-77130180D02*
X99940601Y-78130180D01*
X99940601Y-78130180D02*
X99702506Y-78130180D01*
X99702506Y-78130180D02*
X99559649Y-78082561D01*
X99559649Y-78082561D02*
X99464411Y-77987323D01*
X99464411Y-77987323D02*
X99416792Y-77892085D01*
X99416792Y-77892085D02*
X99369173Y-77701609D01*
X99369173Y-77701609D02*
X99369173Y-77558752D01*
X99369173Y-77558752D02*
X99416792Y-77368276D01*
X99416792Y-77368276D02*
X99464411Y-77273038D01*
X99464411Y-77273038D02*
X99559649Y-77177800D01*
X99559649Y-77177800D02*
X99702506Y-77130180D01*
X99702506Y-77130180D02*
X99940601Y-77130180D01*
X91023684Y-77130180D02*
X91595112Y-77130180D01*
X91309398Y-77130180D02*
X91309398Y-78130180D01*
X91309398Y-78130180D02*
X91404636Y-77987323D01*
X91404636Y-77987323D02*
X91499874Y-77892085D01*
X91499874Y-77892085D02*
X91595112Y-77844466D01*
X90642731Y-78034942D02*
X90595112Y-78082561D01*
X90595112Y-78082561D02*
X90499874Y-78130180D01*
X90499874Y-78130180D02*
X90261779Y-78130180D01*
X90261779Y-78130180D02*
X90166541Y-78082561D01*
X90166541Y-78082561D02*
X90118922Y-78034942D01*
X90118922Y-78034942D02*
X90071303Y-77939704D01*
X90071303Y-77939704D02*
X90071303Y-77844466D01*
X90071303Y-77844466D02*
X90118922Y-77701609D01*
X90118922Y-77701609D02*
X90690350Y-77130180D01*
X90690350Y-77130180D02*
X90071303Y-77130180D01*
X89785588Y-78130180D02*
X89452255Y-77130180D01*
X89452255Y-77130180D02*
X89118922Y-78130180D01*
X56064411Y-78082561D02*
X56159649Y-78130180D01*
X56159649Y-78130180D02*
X56302506Y-78130180D01*
X56302506Y-78130180D02*
X56445363Y-78082561D01*
X56445363Y-78082561D02*
X56540601Y-77987323D01*
X56540601Y-77987323D02*
X56588220Y-77892085D01*
X56588220Y-77892085D02*
X56635839Y-77701609D01*
X56635839Y-77701609D02*
X56635839Y-77558752D01*
X56635839Y-77558752D02*
X56588220Y-77368276D01*
X56588220Y-77368276D02*
X56540601Y-77273038D01*
X56540601Y-77273038D02*
X56445363Y-77177800D01*
X56445363Y-77177800D02*
X56302506Y-77130180D01*
X56302506Y-77130180D02*
X56207268Y-77130180D01*
X56207268Y-77130180D02*
X56064411Y-77177800D01*
X56064411Y-77177800D02*
X56016792Y-77225419D01*
X56016792Y-77225419D02*
X56016792Y-77558752D01*
X56016792Y-77558752D02*
X56207268Y-77558752D01*
X55588220Y-77130180D02*
X55588220Y-78130180D01*
X55588220Y-78130180D02*
X55016792Y-77130180D01*
X55016792Y-77130180D02*
X55016792Y-78130180D01*
X54540601Y-77130180D02*
X54540601Y-78130180D01*
X54540601Y-78130180D02*
X54302506Y-78130180D01*
X54302506Y-78130180D02*
X54159649Y-78082561D01*
X54159649Y-78082561D02*
X54064411Y-77987323D01*
X54064411Y-77987323D02*
X54016792Y-77892085D01*
X54016792Y-77892085D02*
X53969173Y-77701609D01*
X53969173Y-77701609D02*
X53969173Y-77558752D01*
X53969173Y-77558752D02*
X54016792Y-77368276D01*
X54016792Y-77368276D02*
X54064411Y-77273038D01*
X54064411Y-77273038D02*
X54159649Y-77177800D01*
X54159649Y-77177800D02*
X54302506Y-77130180D01*
X54302506Y-77130180D02*
X54540601Y-77130180D01*
X72718922Y-78130180D02*
X73195112Y-78130180D01*
X73195112Y-78130180D02*
X73242731Y-77653990D01*
X73242731Y-77653990D02*
X73195112Y-77701609D01*
X73195112Y-77701609D02*
X73099874Y-77749228D01*
X73099874Y-77749228D02*
X72861779Y-77749228D01*
X72861779Y-77749228D02*
X72766541Y-77701609D01*
X72766541Y-77701609D02*
X72718922Y-77653990D01*
X72718922Y-77653990D02*
X72671303Y-77558752D01*
X72671303Y-77558752D02*
X72671303Y-77320657D01*
X72671303Y-77320657D02*
X72718922Y-77225419D01*
X72718922Y-77225419D02*
X72766541Y-77177800D01*
X72766541Y-77177800D02*
X72861779Y-77130180D01*
X72861779Y-77130180D02*
X73099874Y-77130180D01*
X73099874Y-77130180D02*
X73195112Y-77177800D01*
X73195112Y-77177800D02*
X73242731Y-77225419D01*
X72385588Y-78130180D02*
X72052255Y-77130180D01*
X72052255Y-77130180D02*
X71718922Y-78130180D01*
X87464411Y-78082561D02*
X87559649Y-78130180D01*
X87559649Y-78130180D02*
X87702506Y-78130180D01*
X87702506Y-78130180D02*
X87845363Y-78082561D01*
X87845363Y-78082561D02*
X87940601Y-77987323D01*
X87940601Y-77987323D02*
X87988220Y-77892085D01*
X87988220Y-77892085D02*
X88035839Y-77701609D01*
X88035839Y-77701609D02*
X88035839Y-77558752D01*
X88035839Y-77558752D02*
X87988220Y-77368276D01*
X87988220Y-77368276D02*
X87940601Y-77273038D01*
X87940601Y-77273038D02*
X87845363Y-77177800D01*
X87845363Y-77177800D02*
X87702506Y-77130180D01*
X87702506Y-77130180D02*
X87607268Y-77130180D01*
X87607268Y-77130180D02*
X87464411Y-77177800D01*
X87464411Y-77177800D02*
X87416792Y-77225419D01*
X87416792Y-77225419D02*
X87416792Y-77558752D01*
X87416792Y-77558752D02*
X87607268Y-77558752D01*
X86988220Y-77130180D02*
X86988220Y-78130180D01*
X86988220Y-78130180D02*
X86416792Y-77130180D01*
X86416792Y-77130180D02*
X86416792Y-78130180D01*
X85940601Y-77130180D02*
X85940601Y-78130180D01*
X85940601Y-78130180D02*
X85702506Y-78130180D01*
X85702506Y-78130180D02*
X85559649Y-78082561D01*
X85559649Y-78082561D02*
X85464411Y-77987323D01*
X85464411Y-77987323D02*
X85416792Y-77892085D01*
X85416792Y-77892085D02*
X85369173Y-77701609D01*
X85369173Y-77701609D02*
X85369173Y-77558752D01*
X85369173Y-77558752D02*
X85416792Y-77368276D01*
X85416792Y-77368276D02*
X85464411Y-77273038D01*
X85464411Y-77273038D02*
X85559649Y-77177800D01*
X85559649Y-77177800D02*
X85702506Y-77130180D01*
X85702506Y-77130180D02*
X85940601Y-77130180D01*
X106785588Y-77511133D02*
X106023684Y-77511133D01*
X105023684Y-77130180D02*
X105595112Y-77130180D01*
X105309398Y-77130180D02*
X105309398Y-78130180D01*
X105309398Y-78130180D02*
X105404636Y-77987323D01*
X105404636Y-77987323D02*
X105499874Y-77892085D01*
X105499874Y-77892085D02*
X105595112Y-77844466D01*
X104642731Y-78034942D02*
X104595112Y-78082561D01*
X104595112Y-78082561D02*
X104499874Y-78130180D01*
X104499874Y-78130180D02*
X104261779Y-78130180D01*
X104261779Y-78130180D02*
X104166541Y-78082561D01*
X104166541Y-78082561D02*
X104118922Y-78034942D01*
X104118922Y-78034942D02*
X104071303Y-77939704D01*
X104071303Y-77939704D02*
X104071303Y-77844466D01*
X104071303Y-77844466D02*
X104118922Y-77701609D01*
X104118922Y-77701609D02*
X104690350Y-77130180D01*
X104690350Y-77130180D02*
X104071303Y-77130180D01*
X103785588Y-78130180D02*
X103452255Y-77130180D01*
X103452255Y-77130180D02*
X103118922Y-78130180D01*
X60242731Y-78130180D02*
X59623684Y-78130180D01*
X59623684Y-78130180D02*
X59957017Y-77749228D01*
X59957017Y-77749228D02*
X59814160Y-77749228D01*
X59814160Y-77749228D02*
X59718922Y-77701609D01*
X59718922Y-77701609D02*
X59671303Y-77653990D01*
X59671303Y-77653990D02*
X59623684Y-77558752D01*
X59623684Y-77558752D02*
X59623684Y-77320657D01*
X59623684Y-77320657D02*
X59671303Y-77225419D01*
X59671303Y-77225419D02*
X59718922Y-77177800D01*
X59718922Y-77177800D02*
X59814160Y-77130180D01*
X59814160Y-77130180D02*
X60099874Y-77130180D01*
X60099874Y-77130180D02*
X60195112Y-77177800D01*
X60195112Y-77177800D02*
X60242731Y-77225419D01*
X59337969Y-78130180D02*
X59004636Y-77130180D01*
X59004636Y-77130180D02*
X58671303Y-78130180D01*
X58433207Y-78130180D02*
X57814160Y-78130180D01*
X57814160Y-78130180D02*
X58147493Y-77749228D01*
X58147493Y-77749228D02*
X58004636Y-77749228D01*
X58004636Y-77749228D02*
X57909398Y-77701609D01*
X57909398Y-77701609D02*
X57861779Y-77653990D01*
X57861779Y-77653990D02*
X57814160Y-77558752D01*
X57814160Y-77558752D02*
X57814160Y-77320657D01*
X57814160Y-77320657D02*
X57861779Y-77225419D01*
X57861779Y-77225419D02*
X57909398Y-77177800D01*
X57909398Y-77177800D02*
X58004636Y-77130180D01*
X58004636Y-77130180D02*
X58290350Y-77130180D01*
X58290350Y-77130180D02*
X58385588Y-77177800D01*
X58385588Y-77177800D02*
X58433207Y-77225419D01*
X70164411Y-78082561D02*
X70259649Y-78130180D01*
X70259649Y-78130180D02*
X70402506Y-78130180D01*
X70402506Y-78130180D02*
X70545363Y-78082561D01*
X70545363Y-78082561D02*
X70640601Y-77987323D01*
X70640601Y-77987323D02*
X70688220Y-77892085D01*
X70688220Y-77892085D02*
X70735839Y-77701609D01*
X70735839Y-77701609D02*
X70735839Y-77558752D01*
X70735839Y-77558752D02*
X70688220Y-77368276D01*
X70688220Y-77368276D02*
X70640601Y-77273038D01*
X70640601Y-77273038D02*
X70545363Y-77177800D01*
X70545363Y-77177800D02*
X70402506Y-77130180D01*
X70402506Y-77130180D02*
X70307268Y-77130180D01*
X70307268Y-77130180D02*
X70164411Y-77177800D01*
X70164411Y-77177800D02*
X70116792Y-77225419D01*
X70116792Y-77225419D02*
X70116792Y-77558752D01*
X70116792Y-77558752D02*
X70307268Y-77558752D01*
X69688220Y-77130180D02*
X69688220Y-78130180D01*
X69688220Y-78130180D02*
X69116792Y-77130180D01*
X69116792Y-77130180D02*
X69116792Y-78130180D01*
X68640601Y-77130180D02*
X68640601Y-78130180D01*
X68640601Y-78130180D02*
X68402506Y-78130180D01*
X68402506Y-78130180D02*
X68259649Y-78082561D01*
X68259649Y-78082561D02*
X68164411Y-77987323D01*
X68164411Y-77987323D02*
X68116792Y-77892085D01*
X68116792Y-77892085D02*
X68069173Y-77701609D01*
X68069173Y-77701609D02*
X68069173Y-77558752D01*
X68069173Y-77558752D02*
X68116792Y-77368276D01*
X68116792Y-77368276D02*
X68164411Y-77273038D01*
X68164411Y-77273038D02*
X68259649Y-77177800D01*
X68259649Y-77177800D02*
X68402506Y-77130180D01*
X68402506Y-77130180D02*
X68640601Y-77130180D01*
D10*
X160761904Y-138542580D02*
X160761904Y-137733057D01*
X160761904Y-137733057D02*
X160714285Y-137637819D01*
X160714285Y-137637819D02*
X160666666Y-137590200D01*
X160666666Y-137590200D02*
X160571428Y-137542580D01*
X160571428Y-137542580D02*
X160380952Y-137542580D01*
X160380952Y-137542580D02*
X160285714Y-137590200D01*
X160285714Y-137590200D02*
X160238095Y-137637819D01*
X160238095Y-137637819D02*
X160190476Y-137733057D01*
X160190476Y-137733057D02*
X160190476Y-138542580D01*
X159190476Y-137542580D02*
X159761904Y-137542580D01*
X159476190Y-137542580D02*
X159476190Y-138542580D01*
X159476190Y-138542580D02*
X159571428Y-138399723D01*
X159571428Y-138399723D02*
X159666666Y-138304485D01*
X159666666Y-138304485D02*
X159761904Y-138256866D01*
D12*
X171495180Y-86666666D02*
X170780895Y-86666666D01*
X170780895Y-86666666D02*
X170638038Y-86619047D01*
X170638038Y-86619047D02*
X170542800Y-86523809D01*
X170542800Y-86523809D02*
X170495180Y-86380952D01*
X170495180Y-86380952D02*
X170495180Y-86285714D01*
X171495180Y-87047619D02*
X171495180Y-87714285D01*
X171495180Y-87714285D02*
X170495180Y-87285714D01*
X112545180Y-72666666D02*
X111830895Y-72666666D01*
X111830895Y-72666666D02*
X111688038Y-72619047D01*
X111688038Y-72619047D02*
X111592800Y-72523809D01*
X111592800Y-72523809D02*
X111545180Y-72380952D01*
X111545180Y-72380952D02*
X111545180Y-72285714D01*
X112545180Y-73619047D02*
X112545180Y-73142857D01*
X112545180Y-73142857D02*
X112068990Y-73095238D01*
X112068990Y-73095238D02*
X112116609Y-73142857D01*
X112116609Y-73142857D02*
X112164228Y-73238095D01*
X112164228Y-73238095D02*
X112164228Y-73476190D01*
X112164228Y-73476190D02*
X112116609Y-73571428D01*
X112116609Y-73571428D02*
X112068990Y-73619047D01*
X112068990Y-73619047D02*
X111973752Y-73666666D01*
X111973752Y-73666666D02*
X111735657Y-73666666D01*
X111735657Y-73666666D02*
X111640419Y-73619047D01*
X111640419Y-73619047D02*
X111592800Y-73571428D01*
X111592800Y-73571428D02*
X111545180Y-73476190D01*
X111545180Y-73476190D02*
X111545180Y-73238095D01*
X111545180Y-73238095D02*
X111592800Y-73142857D01*
X111592800Y-73142857D02*
X111640419Y-73095238D01*
X154333333Y-146545180D02*
X154333333Y-145830895D01*
X154333333Y-145830895D02*
X154380952Y-145688038D01*
X154380952Y-145688038D02*
X154476190Y-145592800D01*
X154476190Y-145592800D02*
X154619047Y-145545180D01*
X154619047Y-145545180D02*
X154714285Y-145545180D01*
X153904761Y-146449942D02*
X153857142Y-146497561D01*
X153857142Y-146497561D02*
X153761904Y-146545180D01*
X153761904Y-146545180D02*
X153523809Y-146545180D01*
X153523809Y-146545180D02*
X153428571Y-146497561D01*
X153428571Y-146497561D02*
X153380952Y-146449942D01*
X153380952Y-146449942D02*
X153333333Y-146354704D01*
X153333333Y-146354704D02*
X153333333Y-146259466D01*
X153333333Y-146259466D02*
X153380952Y-146116609D01*
X153380952Y-146116609D02*
X153952380Y-145545180D01*
X153952380Y-145545180D02*
X153333333Y-145545180D01*
X54961009Y-44641904D02*
X54961009Y-44308571D01*
X55484819Y-44165714D02*
X55484819Y-44641904D01*
X55484819Y-44641904D02*
X54484819Y-44641904D01*
X54484819Y-44641904D02*
X54484819Y-44165714D01*
X54818152Y-43737142D02*
X55484819Y-43737142D01*
X54913390Y-43737142D02*
X54865771Y-43689523D01*
X54865771Y-43689523D02*
X54818152Y-43594285D01*
X54818152Y-43594285D02*
X54818152Y-43451428D01*
X54818152Y-43451428D02*
X54865771Y-43356190D01*
X54865771Y-43356190D02*
X54961009Y-43308571D01*
X54961009Y-43308571D02*
X55484819Y-43308571D01*
X55484819Y-42403809D02*
X54961009Y-42403809D01*
X54961009Y-42403809D02*
X54865771Y-42451428D01*
X54865771Y-42451428D02*
X54818152Y-42546666D01*
X54818152Y-42546666D02*
X54818152Y-42737142D01*
X54818152Y-42737142D02*
X54865771Y-42832380D01*
X55437200Y-42403809D02*
X55484819Y-42499047D01*
X55484819Y-42499047D02*
X55484819Y-42737142D01*
X55484819Y-42737142D02*
X55437200Y-42832380D01*
X55437200Y-42832380D02*
X55341961Y-42879999D01*
X55341961Y-42879999D02*
X55246723Y-42879999D01*
X55246723Y-42879999D02*
X55151485Y-42832380D01*
X55151485Y-42832380D02*
X55103866Y-42737142D01*
X55103866Y-42737142D02*
X55103866Y-42499047D01*
X55103866Y-42499047D02*
X55056247Y-42403809D01*
X55484819Y-41927618D02*
X54484819Y-41927618D01*
X54865771Y-41927618D02*
X54818152Y-41832380D01*
X54818152Y-41832380D02*
X54818152Y-41641904D01*
X54818152Y-41641904D02*
X54865771Y-41546666D01*
X54865771Y-41546666D02*
X54913390Y-41499047D01*
X54913390Y-41499047D02*
X55008628Y-41451428D01*
X55008628Y-41451428D02*
X55294342Y-41451428D01*
X55294342Y-41451428D02*
X55389580Y-41499047D01*
X55389580Y-41499047D02*
X55437200Y-41546666D01*
X55437200Y-41546666D02*
X55484819Y-41641904D01*
X55484819Y-41641904D02*
X55484819Y-41832380D01*
X55484819Y-41832380D02*
X55437200Y-41927618D01*
X55484819Y-40879999D02*
X55437200Y-40975237D01*
X55437200Y-40975237D02*
X55341961Y-41022856D01*
X55341961Y-41022856D02*
X54484819Y-41022856D01*
X55437200Y-40118094D02*
X55484819Y-40213332D01*
X55484819Y-40213332D02*
X55484819Y-40403808D01*
X55484819Y-40403808D02*
X55437200Y-40499046D01*
X55437200Y-40499046D02*
X55341961Y-40546665D01*
X55341961Y-40546665D02*
X54961009Y-40546665D01*
X54961009Y-40546665D02*
X54865771Y-40499046D01*
X54865771Y-40499046D02*
X54818152Y-40403808D01*
X54818152Y-40403808D02*
X54818152Y-40213332D01*
X54818152Y-40213332D02*
X54865771Y-40118094D01*
X54865771Y-40118094D02*
X54961009Y-40070475D01*
X54961009Y-40070475D02*
X55056247Y-40070475D01*
X55056247Y-40070475D02*
X55151485Y-40546665D01*
X50674819Y-51261904D02*
X51484342Y-51261904D01*
X51484342Y-51261904D02*
X51579580Y-51214285D01*
X51579580Y-51214285D02*
X51627200Y-51166666D01*
X51627200Y-51166666D02*
X51674819Y-51071428D01*
X51674819Y-51071428D02*
X51674819Y-50880952D01*
X51674819Y-50880952D02*
X51627200Y-50785714D01*
X51627200Y-50785714D02*
X51579580Y-50738095D01*
X51579580Y-50738095D02*
X51484342Y-50690476D01*
X51484342Y-50690476D02*
X50674819Y-50690476D01*
X51627200Y-50261904D02*
X51674819Y-50119047D01*
X51674819Y-50119047D02*
X51674819Y-49880952D01*
X51674819Y-49880952D02*
X51627200Y-49785714D01*
X51627200Y-49785714D02*
X51579580Y-49738095D01*
X51579580Y-49738095D02*
X51484342Y-49690476D01*
X51484342Y-49690476D02*
X51389104Y-49690476D01*
X51389104Y-49690476D02*
X51293866Y-49738095D01*
X51293866Y-49738095D02*
X51246247Y-49785714D01*
X51246247Y-49785714D02*
X51198628Y-49880952D01*
X51198628Y-49880952D02*
X51151009Y-50071428D01*
X51151009Y-50071428D02*
X51103390Y-50166666D01*
X51103390Y-50166666D02*
X51055771Y-50214285D01*
X51055771Y-50214285D02*
X50960533Y-50261904D01*
X50960533Y-50261904D02*
X50865295Y-50261904D01*
X50865295Y-50261904D02*
X50770057Y-50214285D01*
X50770057Y-50214285D02*
X50722438Y-50166666D01*
X50722438Y-50166666D02*
X50674819Y-50071428D01*
X50674819Y-50071428D02*
X50674819Y-49833333D01*
X50674819Y-49833333D02*
X50722438Y-49690476D01*
X51151009Y-48928571D02*
X51198628Y-48785714D01*
X51198628Y-48785714D02*
X51246247Y-48738095D01*
X51246247Y-48738095D02*
X51341485Y-48690476D01*
X51341485Y-48690476D02*
X51484342Y-48690476D01*
X51484342Y-48690476D02*
X51579580Y-48738095D01*
X51579580Y-48738095D02*
X51627200Y-48785714D01*
X51627200Y-48785714D02*
X51674819Y-48880952D01*
X51674819Y-48880952D02*
X51674819Y-49261904D01*
X51674819Y-49261904D02*
X50674819Y-49261904D01*
X50674819Y-49261904D02*
X50674819Y-48928571D01*
X50674819Y-48928571D02*
X50722438Y-48833333D01*
X50722438Y-48833333D02*
X50770057Y-48785714D01*
X50770057Y-48785714D02*
X50865295Y-48738095D01*
X50865295Y-48738095D02*
X50960533Y-48738095D01*
X50960533Y-48738095D02*
X51055771Y-48785714D01*
X51055771Y-48785714D02*
X51103390Y-48833333D01*
X51103390Y-48833333D02*
X51151009Y-48928571D01*
X51151009Y-48928571D02*
X51151009Y-49261904D01*
X54961009Y-58739047D02*
X55008628Y-58596190D01*
X55008628Y-58596190D02*
X55056247Y-58548571D01*
X55056247Y-58548571D02*
X55151485Y-58500952D01*
X55151485Y-58500952D02*
X55294342Y-58500952D01*
X55294342Y-58500952D02*
X55389580Y-58548571D01*
X55389580Y-58548571D02*
X55437200Y-58596190D01*
X55437200Y-58596190D02*
X55484819Y-58691428D01*
X55484819Y-58691428D02*
X55484819Y-59072380D01*
X55484819Y-59072380D02*
X54484819Y-59072380D01*
X54484819Y-59072380D02*
X54484819Y-58739047D01*
X54484819Y-58739047D02*
X54532438Y-58643809D01*
X54532438Y-58643809D02*
X54580057Y-58596190D01*
X54580057Y-58596190D02*
X54675295Y-58548571D01*
X54675295Y-58548571D02*
X54770533Y-58548571D01*
X54770533Y-58548571D02*
X54865771Y-58596190D01*
X54865771Y-58596190D02*
X54913390Y-58643809D01*
X54913390Y-58643809D02*
X54961009Y-58739047D01*
X54961009Y-58739047D02*
X54961009Y-59072380D01*
X55484819Y-57929523D02*
X55437200Y-58024761D01*
X55437200Y-58024761D02*
X55389580Y-58072380D01*
X55389580Y-58072380D02*
X55294342Y-58119999D01*
X55294342Y-58119999D02*
X55008628Y-58119999D01*
X55008628Y-58119999D02*
X54913390Y-58072380D01*
X54913390Y-58072380D02*
X54865771Y-58024761D01*
X54865771Y-58024761D02*
X54818152Y-57929523D01*
X54818152Y-57929523D02*
X54818152Y-57786666D01*
X54818152Y-57786666D02*
X54865771Y-57691428D01*
X54865771Y-57691428D02*
X54913390Y-57643809D01*
X54913390Y-57643809D02*
X55008628Y-57596190D01*
X55008628Y-57596190D02*
X55294342Y-57596190D01*
X55294342Y-57596190D02*
X55389580Y-57643809D01*
X55389580Y-57643809D02*
X55437200Y-57691428D01*
X55437200Y-57691428D02*
X55484819Y-57786666D01*
X55484819Y-57786666D02*
X55484819Y-57929523D01*
X55484819Y-57024761D02*
X55437200Y-57119999D01*
X55437200Y-57119999D02*
X55389580Y-57167618D01*
X55389580Y-57167618D02*
X55294342Y-57215237D01*
X55294342Y-57215237D02*
X55008628Y-57215237D01*
X55008628Y-57215237D02*
X54913390Y-57167618D01*
X54913390Y-57167618D02*
X54865771Y-57119999D01*
X54865771Y-57119999D02*
X54818152Y-57024761D01*
X54818152Y-57024761D02*
X54818152Y-56881904D01*
X54818152Y-56881904D02*
X54865771Y-56786666D01*
X54865771Y-56786666D02*
X54913390Y-56739047D01*
X54913390Y-56739047D02*
X55008628Y-56691428D01*
X55008628Y-56691428D02*
X55294342Y-56691428D01*
X55294342Y-56691428D02*
X55389580Y-56739047D01*
X55389580Y-56739047D02*
X55437200Y-56786666D01*
X55437200Y-56786666D02*
X55484819Y-56881904D01*
X55484819Y-56881904D02*
X55484819Y-57024761D01*
X54818152Y-56405713D02*
X54818152Y-56024761D01*
X54484819Y-56262856D02*
X55341961Y-56262856D01*
X55341961Y-56262856D02*
X55437200Y-56215237D01*
X55437200Y-56215237D02*
X55484819Y-56119999D01*
X55484819Y-56119999D02*
X55484819Y-56024761D01*
D13*
%TO.C,J6*%
X171750000Y-77600000D02*
X171750000Y-78850000D01*
X171750000Y-78850000D02*
X173000000Y-78850000D01*
X174300000Y-68450000D02*
X174300000Y-69200000D01*
X174300000Y-69200000D02*
X177250000Y-69200000D01*
X174300000Y-77800000D02*
X177250000Y-77800000D01*
X174300000Y-78550000D02*
X174300000Y-77800000D01*
X177250000Y-69200000D02*
X177250000Y-73500000D01*
X177250000Y-77800000D02*
X177250000Y-73500000D01*
X172040000Y-78560000D02*
X178010000Y-78560000D01*
X178010000Y-68440000D01*
X172040000Y-68440000D01*
X172040000Y-78560000D01*
X172050000Y-70250000D02*
X172800000Y-70250000D01*
X172800000Y-68450000D01*
X172050000Y-68450000D01*
X172050000Y-70250000D01*
X172050000Y-75250000D02*
X172800000Y-75250000D01*
X172800000Y-71750000D01*
X172050000Y-71750000D01*
X172050000Y-75250000D01*
X172050000Y-78550000D02*
X172800000Y-78550000D01*
X172800000Y-76750000D01*
X172050000Y-76750000D01*
X172050000Y-78550000D01*
%TO.C,J4*%
X171725000Y-114600000D02*
X171725000Y-115850000D01*
X171725000Y-115850000D02*
X172975000Y-115850000D01*
X172015000Y-95440000D02*
X172015000Y-115560000D01*
X172015000Y-115560000D02*
X177985000Y-115560000D01*
X172025000Y-95450000D02*
X172025000Y-97250000D01*
X172025000Y-97250000D02*
X172775000Y-97250000D01*
X172025000Y-98750000D02*
X172025000Y-112250000D01*
X172025000Y-112250000D02*
X172775000Y-112250000D01*
X172025000Y-113750000D02*
X172025000Y-115550000D01*
X172025000Y-115550000D02*
X172775000Y-115550000D01*
X172775000Y-95450000D02*
X172025000Y-95450000D01*
X172775000Y-97250000D02*
X172775000Y-95450000D01*
X172775000Y-98750000D02*
X172025000Y-98750000D01*
X172775000Y-112250000D02*
X172775000Y-98750000D01*
X172775000Y-113750000D02*
X172025000Y-113750000D01*
X172775000Y-115550000D02*
X172775000Y-113750000D01*
X174275000Y-95450000D02*
X174275000Y-96200000D01*
X174275000Y-96200000D02*
X177225000Y-96200000D01*
X174275000Y-114800000D02*
X177225000Y-114800000D01*
X174275000Y-115550000D02*
X174275000Y-114800000D01*
X177225000Y-96200000D02*
X177225000Y-105500000D01*
X177225000Y-114800000D02*
X177225000Y-105500000D01*
X177985000Y-95440000D02*
X172015000Y-95440000D01*
X177985000Y-115560000D02*
X177985000Y-95440000D01*
%TO.C,D2*%
X57850000Y-46490000D02*
X57850000Y-52000000D01*
X61150000Y-46490000D02*
X57850000Y-46490000D01*
X61150000Y-46490000D02*
X61150000Y-52000000D01*
%TO.C,J3*%
X171725000Y-138100000D02*
X171725000Y-139350000D01*
X171725000Y-139350000D02*
X172975000Y-139350000D01*
X172015000Y-118940000D02*
X172015000Y-139060000D01*
X172015000Y-139060000D02*
X177985000Y-139060000D01*
X172025000Y-118950000D02*
X172025000Y-120750000D01*
X172025000Y-120750000D02*
X172775000Y-120750000D01*
X172025000Y-122250000D02*
X172025000Y-135750000D01*
X172025000Y-135750000D02*
X172775000Y-135750000D01*
X172025000Y-137250000D02*
X172025000Y-139050000D01*
X172025000Y-139050000D02*
X172775000Y-139050000D01*
X172775000Y-118950000D02*
X172025000Y-118950000D01*
X172775000Y-120750000D02*
X172775000Y-118950000D01*
X172775000Y-122250000D02*
X172025000Y-122250000D01*
X172775000Y-135750000D02*
X172775000Y-122250000D01*
X172775000Y-137250000D02*
X172025000Y-137250000D01*
X172775000Y-139050000D02*
X172775000Y-137250000D01*
X174275000Y-118950000D02*
X174275000Y-119700000D01*
X174275000Y-119700000D02*
X177225000Y-119700000D01*
X174275000Y-138300000D02*
X177225000Y-138300000D01*
X174275000Y-139050000D02*
X174275000Y-138300000D01*
X177225000Y-119700000D02*
X177225000Y-129000000D01*
X177225000Y-138300000D02*
X177225000Y-129000000D01*
X177985000Y-118940000D02*
X172015000Y-118940000D01*
X177985000Y-139060000D02*
X177985000Y-118940000D01*
%TO.C,U4*%
D11*
X161350000Y-85250000D02*
X124650000Y-85250000D01*
X124650000Y-68750000D01*
X161350000Y-68750000D01*
X161350000Y-85250000D01*
%TO.C,U2*%
X161350000Y-121250000D02*
X124650000Y-121250000D01*
X124650000Y-104750000D01*
X161350000Y-104750000D01*
X161350000Y-121250000D01*
D13*
%TO.C,J1*%
X119650000Y-146725000D02*
X119650000Y-147975000D01*
X119940000Y-147015000D02*
X119940000Y-152985000D01*
X119940000Y-152985000D02*
X140060000Y-152985000D01*
X119950000Y-147025000D02*
X119950000Y-147775000D01*
X119950000Y-147775000D02*
X121750000Y-147775000D01*
X119950000Y-149275000D02*
X120700000Y-149275000D01*
X120700000Y-149275000D02*
X120700000Y-152225000D01*
X120700000Y-152225000D02*
X130000000Y-152225000D01*
X120900000Y-146725000D02*
X119650000Y-146725000D01*
X121750000Y-147025000D02*
X119950000Y-147025000D01*
X121750000Y-147775000D02*
X121750000Y-147025000D01*
X123250000Y-147025000D02*
X123250000Y-147775000D01*
X123250000Y-147775000D02*
X136750000Y-147775000D01*
X136750000Y-147025000D02*
X123250000Y-147025000D01*
X136750000Y-147775000D02*
X136750000Y-147025000D01*
X138250000Y-147025000D02*
X138250000Y-147775000D01*
X138250000Y-147775000D02*
X140050000Y-147775000D01*
X139300000Y-149275000D02*
X139300000Y-152225000D01*
X139300000Y-152225000D02*
X130000000Y-152225000D01*
X140050000Y-147025000D02*
X138250000Y-147025000D01*
X140050000Y-147775000D02*
X140050000Y-147025000D01*
X140050000Y-149275000D02*
X139300000Y-149275000D01*
X140060000Y-147015000D02*
X119940000Y-147015000D01*
X140060000Y-152985000D02*
X140060000Y-147015000D01*
%TO.C,U3*%
D11*
X161350000Y-103250000D02*
X124650000Y-103250000D01*
X124650000Y-86750000D01*
X161350000Y-86750000D01*
X161350000Y-103250000D01*
%TO.C,U6*%
X105750000Y-153650000D02*
X54250000Y-153650000D01*
X54250000Y-140950000D01*
X105750000Y-140950000D01*
X105750000Y-153650000D01*
X113655000Y-153655000D02*
X46345000Y-153655000D01*
X46345000Y-86345000D01*
X113655000Y-86345000D01*
X113655000Y-153655000D01*
%TO.C,U1*%
X161350000Y-139250000D02*
X124650000Y-139250000D01*
X124650000Y-122750000D01*
X161350000Y-122750000D01*
X161350000Y-139250000D01*
D13*
%TO.C,J7*%
X171750000Y-91100000D02*
X171750000Y-92350000D01*
X171750000Y-92350000D02*
X173000000Y-92350000D01*
X174300000Y-81950000D02*
X174300000Y-82700000D01*
X174300000Y-82700000D02*
X177250000Y-82700000D01*
X174300000Y-91300000D02*
X177250000Y-91300000D01*
X174300000Y-92050000D02*
X174300000Y-91300000D01*
X177250000Y-82700000D02*
X177250000Y-87000000D01*
X177250000Y-91300000D02*
X177250000Y-87000000D01*
X172040000Y-92060000D02*
X178010000Y-92060000D01*
X178010000Y-81940000D01*
X172040000Y-81940000D01*
X172040000Y-92060000D01*
X172050000Y-83750000D02*
X172800000Y-83750000D01*
X172800000Y-81950000D01*
X172050000Y-81950000D01*
X172050000Y-83750000D01*
X172050000Y-88750000D02*
X172800000Y-88750000D01*
X172800000Y-85250000D01*
X172050000Y-85250000D01*
X172050000Y-88750000D01*
X172050000Y-92050000D02*
X172800000Y-92050000D01*
X172800000Y-90250000D01*
X172050000Y-90250000D01*
X172050000Y-92050000D01*
%TO.C,J5*%
X113080000Y-74380000D02*
X113080000Y-73000000D01*
X114460000Y-74380000D02*
X113080000Y-74380000D01*
X115730000Y-71620000D02*
X118380000Y-71620000D01*
X115730000Y-74380000D02*
X115730000Y-71620000D01*
X115730000Y-74380000D02*
X118380000Y-74380000D01*
X118380000Y-74380000D02*
X118380000Y-71620000D01*
%TO.C,J2*%
X143650000Y-146725000D02*
X143650000Y-147975000D01*
X143940000Y-147015000D02*
X143940000Y-152985000D01*
X143940000Y-152985000D02*
X164060000Y-152985000D01*
X143950000Y-147025000D02*
X143950000Y-147775000D01*
X143950000Y-147775000D02*
X145750000Y-147775000D01*
X143950000Y-149275000D02*
X144700000Y-149275000D01*
X144700000Y-149275000D02*
X144700000Y-152225000D01*
X144700000Y-152225000D02*
X154000000Y-152225000D01*
X144900000Y-146725000D02*
X143650000Y-146725000D01*
X145750000Y-147025000D02*
X143950000Y-147025000D01*
X145750000Y-147775000D02*
X145750000Y-147025000D01*
X147250000Y-147025000D02*
X147250000Y-147775000D01*
X147250000Y-147775000D02*
X160750000Y-147775000D01*
X160750000Y-147025000D02*
X147250000Y-147025000D01*
X160750000Y-147775000D02*
X160750000Y-147025000D01*
X162250000Y-147025000D02*
X162250000Y-147775000D01*
X162250000Y-147775000D02*
X164050000Y-147775000D01*
X163300000Y-149275000D02*
X163300000Y-152225000D01*
X163300000Y-152225000D02*
X154000000Y-152225000D01*
X164050000Y-147025000D02*
X162250000Y-147025000D01*
X164050000Y-147775000D02*
X164050000Y-147025000D01*
X164050000Y-149275000D02*
X163300000Y-149275000D01*
X164060000Y-147015000D02*
X143940000Y-147015000D01*
X164060000Y-152985000D02*
X164060000Y-147015000D01*
%TO.C,U5*%
X49250000Y-38000000D02*
X49250000Y-62000000D01*
X49950000Y-41110000D02*
X53760000Y-41110000D01*
X49950000Y-43650000D02*
X49950000Y-41110000D01*
X49950000Y-56350000D02*
X53760000Y-56350000D01*
X49950000Y-58890000D02*
X49950000Y-56350000D01*
X51250000Y-64000000D02*
X98750000Y-64000000D01*
X53760000Y-41110000D02*
X53760000Y-43650000D01*
X53760000Y-43650000D02*
X49950000Y-43650000D01*
X53760000Y-56350000D02*
X53760000Y-58890000D01*
X53760000Y-58890000D02*
X49950000Y-58890000D01*
X55250000Y-46000000D02*
X49250000Y-46000000D01*
X55250000Y-46000000D02*
X55250000Y-54000000D01*
X55250000Y-54000000D02*
X49250000Y-54000000D01*
X98750000Y-36000000D02*
X51250000Y-36000000D01*
X100750000Y-38000000D02*
X100750000Y-62000000D01*
X49250000Y-38000000D02*
G75*
G02*
X51250000Y-36000000I1999999J1D01*
G01*
X51250000Y-64000000D02*
G75*
G02*
X49250000Y-62000000I0J2000000D01*
G01*
X98750000Y-36000000D02*
G75*
G02*
X100750000Y-38000000I1J-1999999D01*
G01*
X100750000Y-62000000D02*
G75*
G02*
X98750000Y-64000000I-2000000J0D01*
G01*
D14*
X52155000Y-42380000D02*
G75*
G02*
X51555000Y-42380000I-300000J0D01*
G01*
X51555000Y-42380000D02*
G75*
G02*
X52155000Y-42380000I300000J0D01*
G01*
X52155000Y-57620000D02*
G75*
G02*
X51555000Y-57620000I-300000J0D01*
G01*
X51555000Y-57620000D02*
G75*
G02*
X52155000Y-57620000I300000J0D01*
G01*
%TD*%
M02*
