M48
; DRILL file {KiCad 9.0.7} date 2026-03-13T14:21:35-0700
; FORMAT={-:-/ absolute / metric / decimal}
; #@! TF.CreationDate,2026-03-13T14:21:35-07:00
; #@! TF.GenerationSoftware,Kicad,Pcbnew,9.0.7
; #@! TF.FileFunction,Plated,1,2,PTH
FMAT,2
METRIC
; #@! TA.AperFunction,Plated,PTH,ComponentDrill
T1C0.950
; #@! TA.AperFunction,Plated,PTH,ComponentDrill
T2C1.000
%
G90
G05
T1
X104.975Y-62.5
X104.975Y-65.0
X104.975Y-67.5
X104.975Y-70.0
X104.975Y-72.5
X104.975Y-75.0
X104.975Y-77.5
X135.0Y-56.5
X135.0Y-59.0
X135.0Y-61.5
X135.0Y-64.0
X135.0Y-66.5
X135.025Y-73.5
X135.025Y-76.0
X135.025Y-78.5
X135.025Y-81.0
X135.025Y-83.5
T2
X113.65Y-61.11
X113.65Y-63.65
X113.65Y-66.19
X113.65Y-68.73
X113.65Y-71.27
X113.65Y-73.81
X113.65Y-76.35
X113.65Y-78.89
X116.19Y-61.11
X118.73Y-61.11
X126.35Y-61.11
X126.35Y-63.65
X126.35Y-66.19
X126.35Y-68.73
X126.35Y-71.27
X126.35Y-73.81
X126.35Y-76.35
X126.35Y-78.89
M30
