%TF.GenerationSoftware,KiCad,Pcbnew,9.0.7*%
%TF.CreationDate,2026-03-13T14:21:13-07:00*%
%TF.ProjectId,motor_controller_interface_pcb,6d6f746f-725f-4636-9f6e-74726f6c6c65,rev?*%
%TF.SameCoordinates,Original*%
%TF.FileFunction,Legend,Top*%
%TF.FilePolarity,Positive*%
%FSLAX46Y46*%
G04 Gerber Fmt 4.6, Leading zero omitted, Abs format (unit mm)*
G04 Created by KiCad (PCBNEW 9.0.7) date 2026-03-13 14:21:13*
%MOMM*%
%LPD*%
G01*
G04 APERTURE LIST*
%ADD10C,0.150000*%
%ADD11C,0.100000*%
%ADD12C,0.120000*%
G04 APERTURE END LIST*
D10*
X116369048Y-47336273D02*
X116369048Y-46086273D01*
X117619047Y-46145797D02*
X117500000Y-46086273D01*
X117500000Y-46086273D02*
X117321428Y-46086273D01*
X117321428Y-46086273D02*
X117142857Y-46145797D01*
X117142857Y-46145797D02*
X117023809Y-46264845D01*
X117023809Y-46264845D02*
X116964286Y-46383892D01*
X116964286Y-46383892D02*
X116904762Y-46621988D01*
X116904762Y-46621988D02*
X116904762Y-46800559D01*
X116904762Y-46800559D02*
X116964286Y-47038654D01*
X116964286Y-47038654D02*
X117023809Y-47157702D01*
X117023809Y-47157702D02*
X117142857Y-47276750D01*
X117142857Y-47276750D02*
X117321428Y-47336273D01*
X117321428Y-47336273D02*
X117440476Y-47336273D01*
X117440476Y-47336273D02*
X117619047Y-47276750D01*
X117619047Y-47276750D02*
X117678571Y-47217226D01*
X117678571Y-47217226D02*
X117678571Y-46800559D01*
X117678571Y-46800559D02*
X117440476Y-46800559D01*
X118214286Y-46681511D02*
X118630952Y-46681511D01*
X118809524Y-47336273D02*
X118214286Y-47336273D01*
X118214286Y-47336273D02*
X118214286Y-46086273D01*
X118214286Y-46086273D02*
X118809524Y-46086273D01*
X119345238Y-47336273D02*
X119345238Y-46086273D01*
X119345238Y-46086273D02*
X120059523Y-47336273D01*
X120059523Y-47336273D02*
X120059523Y-46086273D01*
X120595238Y-46205321D02*
X120654762Y-46145797D01*
X120654762Y-46145797D02*
X120773809Y-46086273D01*
X120773809Y-46086273D02*
X121071428Y-46086273D01*
X121071428Y-46086273D02*
X121190476Y-46145797D01*
X121190476Y-46145797D02*
X121250000Y-46205321D01*
X121250000Y-46205321D02*
X121309523Y-46324369D01*
X121309523Y-46324369D02*
X121309523Y-46443416D01*
X121309523Y-46443416D02*
X121250000Y-46621988D01*
X121250000Y-46621988D02*
X120535714Y-47336273D01*
X120535714Y-47336273D02*
X121309523Y-47336273D01*
X121726190Y-46086273D02*
X122499999Y-46086273D01*
X122499999Y-46086273D02*
X122083333Y-46562464D01*
X122083333Y-46562464D02*
X122261904Y-46562464D01*
X122261904Y-46562464D02*
X122380952Y-46621988D01*
X122380952Y-46621988D02*
X122440476Y-46681511D01*
X122440476Y-46681511D02*
X122499999Y-46800559D01*
X122499999Y-46800559D02*
X122499999Y-47098178D01*
X122499999Y-47098178D02*
X122440476Y-47217226D01*
X122440476Y-47217226D02*
X122380952Y-47276750D01*
X122380952Y-47276750D02*
X122261904Y-47336273D01*
X122261904Y-47336273D02*
X121904761Y-47336273D01*
X121904761Y-47336273D02*
X121785714Y-47276750D01*
X121785714Y-47276750D02*
X121726190Y-47217226D01*
X123273809Y-46086273D02*
X123392856Y-46086273D01*
X123392856Y-46086273D02*
X123511904Y-46145797D01*
X123511904Y-46145797D02*
X123571428Y-46205321D01*
X123571428Y-46205321D02*
X123630952Y-46324369D01*
X123630952Y-46324369D02*
X123690475Y-46562464D01*
X123690475Y-46562464D02*
X123690475Y-46860083D01*
X123690475Y-46860083D02*
X123630952Y-47098178D01*
X123630952Y-47098178D02*
X123571428Y-47217226D01*
X123571428Y-47217226D02*
X123511904Y-47276750D01*
X123511904Y-47276750D02*
X123392856Y-47336273D01*
X123392856Y-47336273D02*
X123273809Y-47336273D01*
X123273809Y-47336273D02*
X123154761Y-47276750D01*
X123154761Y-47276750D02*
X123095237Y-47217226D01*
X123095237Y-47217226D02*
X123035714Y-47098178D01*
X123035714Y-47098178D02*
X122976190Y-46860083D01*
X122976190Y-46860083D02*
X122976190Y-46562464D01*
X122976190Y-46562464D02*
X123035714Y-46324369D01*
X123035714Y-46324369D02*
X123095237Y-46205321D01*
X123095237Y-46205321D02*
X123154761Y-46145797D01*
X123154761Y-46145797D02*
X123273809Y-46086273D01*
X113154761Y-48693941D02*
X112738095Y-48693941D01*
X112738095Y-49348703D02*
X112738095Y-48098703D01*
X112738095Y-48098703D02*
X113333333Y-48098703D01*
X113809524Y-49348703D02*
X113809524Y-48515370D01*
X113809524Y-48098703D02*
X113750000Y-48158227D01*
X113750000Y-48158227D02*
X113809524Y-48217751D01*
X113809524Y-48217751D02*
X113869047Y-48158227D01*
X113869047Y-48158227D02*
X113809524Y-48098703D01*
X113809524Y-48098703D02*
X113809524Y-48217751D01*
X114583333Y-49348703D02*
X114464285Y-49289180D01*
X114464285Y-49289180D02*
X114404762Y-49170132D01*
X114404762Y-49170132D02*
X114404762Y-48098703D01*
X115595238Y-49348703D02*
X115595238Y-48693941D01*
X115595238Y-48693941D02*
X115535714Y-48574894D01*
X115535714Y-48574894D02*
X115416666Y-48515370D01*
X115416666Y-48515370D02*
X115178571Y-48515370D01*
X115178571Y-48515370D02*
X115059524Y-48574894D01*
X115595238Y-49289180D02*
X115476190Y-49348703D01*
X115476190Y-49348703D02*
X115178571Y-49348703D01*
X115178571Y-49348703D02*
X115059524Y-49289180D01*
X115059524Y-49289180D02*
X115000000Y-49170132D01*
X115000000Y-49170132D02*
X115000000Y-49051084D01*
X115000000Y-49051084D02*
X115059524Y-48932037D01*
X115059524Y-48932037D02*
X115178571Y-48872513D01*
X115178571Y-48872513D02*
X115476190Y-48872513D01*
X115476190Y-48872513D02*
X115595238Y-48812989D01*
X116190476Y-49348703D02*
X116190476Y-48515370D01*
X116190476Y-48634418D02*
X116249999Y-48574894D01*
X116249999Y-48574894D02*
X116369047Y-48515370D01*
X116369047Y-48515370D02*
X116547618Y-48515370D01*
X116547618Y-48515370D02*
X116666666Y-48574894D01*
X116666666Y-48574894D02*
X116726190Y-48693941D01*
X116726190Y-48693941D02*
X116726190Y-49348703D01*
X116726190Y-48693941D02*
X116785714Y-48574894D01*
X116785714Y-48574894D02*
X116904761Y-48515370D01*
X116904761Y-48515370D02*
X117083333Y-48515370D01*
X117083333Y-48515370D02*
X117202380Y-48574894D01*
X117202380Y-48574894D02*
X117261904Y-48693941D01*
X117261904Y-48693941D02*
X117261904Y-49348703D01*
X118333333Y-49289180D02*
X118214285Y-49348703D01*
X118214285Y-49348703D02*
X117976190Y-49348703D01*
X117976190Y-49348703D02*
X117857143Y-49289180D01*
X117857143Y-49289180D02*
X117797619Y-49170132D01*
X117797619Y-49170132D02*
X117797619Y-48693941D01*
X117797619Y-48693941D02*
X117857143Y-48574894D01*
X117857143Y-48574894D02*
X117976190Y-48515370D01*
X117976190Y-48515370D02*
X118214285Y-48515370D01*
X118214285Y-48515370D02*
X118333333Y-48574894D01*
X118333333Y-48574894D02*
X118392857Y-48693941D01*
X118392857Y-48693941D02*
X118392857Y-48812989D01*
X118392857Y-48812989D02*
X117797619Y-48932037D01*
X118928572Y-48515370D02*
X118928572Y-49348703D01*
X118928572Y-48634418D02*
X118988095Y-48574894D01*
X118988095Y-48574894D02*
X119107143Y-48515370D01*
X119107143Y-48515370D02*
X119285714Y-48515370D01*
X119285714Y-48515370D02*
X119404762Y-48574894D01*
X119404762Y-48574894D02*
X119464286Y-48693941D01*
X119464286Y-48693941D02*
X119464286Y-49348703D01*
X119880952Y-48515370D02*
X120357143Y-48515370D01*
X120059524Y-48098703D02*
X120059524Y-49170132D01*
X120059524Y-49170132D02*
X120119047Y-49289180D01*
X120119047Y-49289180D02*
X120238095Y-49348703D01*
X120238095Y-49348703D02*
X120357143Y-49348703D01*
X121607143Y-48098703D02*
X121904762Y-49348703D01*
X121904762Y-49348703D02*
X122142857Y-48455846D01*
X122142857Y-48455846D02*
X122380952Y-49348703D01*
X122380952Y-49348703D02*
X122678572Y-48098703D01*
X123154762Y-49348703D02*
X123154762Y-48515370D01*
X123154762Y-48098703D02*
X123095238Y-48158227D01*
X123095238Y-48158227D02*
X123154762Y-48217751D01*
X123154762Y-48217751D02*
X123214285Y-48158227D01*
X123214285Y-48158227D02*
X123154762Y-48098703D01*
X123154762Y-48098703D02*
X123154762Y-48217751D01*
X123750000Y-48515370D02*
X123750000Y-49348703D01*
X123750000Y-48634418D02*
X123809523Y-48574894D01*
X123809523Y-48574894D02*
X123928571Y-48515370D01*
X123928571Y-48515370D02*
X124107142Y-48515370D01*
X124107142Y-48515370D02*
X124226190Y-48574894D01*
X124226190Y-48574894D02*
X124285714Y-48693941D01*
X124285714Y-48693941D02*
X124285714Y-49348703D01*
X125416666Y-49348703D02*
X125416666Y-48098703D01*
X125416666Y-49289180D02*
X125297618Y-49348703D01*
X125297618Y-49348703D02*
X125059523Y-49348703D01*
X125059523Y-49348703D02*
X124940475Y-49289180D01*
X124940475Y-49289180D02*
X124880952Y-49229656D01*
X124880952Y-49229656D02*
X124821428Y-49110608D01*
X124821428Y-49110608D02*
X124821428Y-48753465D01*
X124821428Y-48753465D02*
X124880952Y-48634418D01*
X124880952Y-48634418D02*
X124940475Y-48574894D01*
X124940475Y-48574894D02*
X125059523Y-48515370D01*
X125059523Y-48515370D02*
X125297618Y-48515370D01*
X125297618Y-48515370D02*
X125416666Y-48574894D01*
X126488094Y-49289180D02*
X126369046Y-49348703D01*
X126369046Y-49348703D02*
X126130951Y-49348703D01*
X126130951Y-49348703D02*
X126011904Y-49289180D01*
X126011904Y-49289180D02*
X125952380Y-49170132D01*
X125952380Y-49170132D02*
X125952380Y-48693941D01*
X125952380Y-48693941D02*
X126011904Y-48574894D01*
X126011904Y-48574894D02*
X126130951Y-48515370D01*
X126130951Y-48515370D02*
X126369046Y-48515370D01*
X126369046Y-48515370D02*
X126488094Y-48574894D01*
X126488094Y-48574894D02*
X126547618Y-48693941D01*
X126547618Y-48693941D02*
X126547618Y-48812989D01*
X126547618Y-48812989D02*
X125952380Y-48932037D01*
X127083333Y-49348703D02*
X127083333Y-48515370D01*
X127083333Y-48753465D02*
X127142856Y-48634418D01*
X127142856Y-48634418D02*
X127202380Y-48574894D01*
X127202380Y-48574894D02*
X127321428Y-48515370D01*
X127321428Y-48515370D02*
X127440475Y-48515370D01*
X113095238Y-51361133D02*
X113095238Y-50111133D01*
X113095238Y-50111133D02*
X113511904Y-51003990D01*
X113511904Y-51003990D02*
X113928571Y-50111133D01*
X113928571Y-50111133D02*
X113928571Y-51361133D01*
X114702380Y-51361133D02*
X114583332Y-51301610D01*
X114583332Y-51301610D02*
X114523809Y-51242086D01*
X114523809Y-51242086D02*
X114464285Y-51123038D01*
X114464285Y-51123038D02*
X114464285Y-50765895D01*
X114464285Y-50765895D02*
X114523809Y-50646848D01*
X114523809Y-50646848D02*
X114583332Y-50587324D01*
X114583332Y-50587324D02*
X114702380Y-50527800D01*
X114702380Y-50527800D02*
X114880951Y-50527800D01*
X114880951Y-50527800D02*
X114999999Y-50587324D01*
X114999999Y-50587324D02*
X115059523Y-50646848D01*
X115059523Y-50646848D02*
X115119047Y-50765895D01*
X115119047Y-50765895D02*
X115119047Y-51123038D01*
X115119047Y-51123038D02*
X115059523Y-51242086D01*
X115059523Y-51242086D02*
X114999999Y-51301610D01*
X114999999Y-51301610D02*
X114880951Y-51361133D01*
X114880951Y-51361133D02*
X114702380Y-51361133D01*
X115476189Y-50527800D02*
X115952380Y-50527800D01*
X115654761Y-50111133D02*
X115654761Y-51182562D01*
X115654761Y-51182562D02*
X115714284Y-51301610D01*
X115714284Y-51301610D02*
X115833332Y-51361133D01*
X115833332Y-51361133D02*
X115952380Y-51361133D01*
X116547618Y-51361133D02*
X116428570Y-51301610D01*
X116428570Y-51301610D02*
X116369047Y-51242086D01*
X116369047Y-51242086D02*
X116309523Y-51123038D01*
X116309523Y-51123038D02*
X116309523Y-50765895D01*
X116309523Y-50765895D02*
X116369047Y-50646848D01*
X116369047Y-50646848D02*
X116428570Y-50587324D01*
X116428570Y-50587324D02*
X116547618Y-50527800D01*
X116547618Y-50527800D02*
X116726189Y-50527800D01*
X116726189Y-50527800D02*
X116845237Y-50587324D01*
X116845237Y-50587324D02*
X116904761Y-50646848D01*
X116904761Y-50646848D02*
X116964285Y-50765895D01*
X116964285Y-50765895D02*
X116964285Y-51123038D01*
X116964285Y-51123038D02*
X116904761Y-51242086D01*
X116904761Y-51242086D02*
X116845237Y-51301610D01*
X116845237Y-51301610D02*
X116726189Y-51361133D01*
X116726189Y-51361133D02*
X116547618Y-51361133D01*
X117499999Y-51361133D02*
X117499999Y-50527800D01*
X117499999Y-50765895D02*
X117559522Y-50646848D01*
X117559522Y-50646848D02*
X117619046Y-50587324D01*
X117619046Y-50587324D02*
X117738094Y-50527800D01*
X117738094Y-50527800D02*
X117857141Y-50527800D01*
X119226190Y-51361133D02*
X119226190Y-50111133D01*
X119821428Y-50527800D02*
X119821428Y-51361133D01*
X119821428Y-50646848D02*
X119880951Y-50587324D01*
X119880951Y-50587324D02*
X119999999Y-50527800D01*
X119999999Y-50527800D02*
X120178570Y-50527800D01*
X120178570Y-50527800D02*
X120297618Y-50587324D01*
X120297618Y-50587324D02*
X120357142Y-50706371D01*
X120357142Y-50706371D02*
X120357142Y-51361133D01*
X120773808Y-50527800D02*
X121249999Y-50527800D01*
X120952380Y-50111133D02*
X120952380Y-51182562D01*
X120952380Y-51182562D02*
X121011903Y-51301610D01*
X121011903Y-51301610D02*
X121130951Y-51361133D01*
X121130951Y-51361133D02*
X121249999Y-51361133D01*
X122142856Y-51301610D02*
X122023808Y-51361133D01*
X122023808Y-51361133D02*
X121785713Y-51361133D01*
X121785713Y-51361133D02*
X121666666Y-51301610D01*
X121666666Y-51301610D02*
X121607142Y-51182562D01*
X121607142Y-51182562D02*
X121607142Y-50706371D01*
X121607142Y-50706371D02*
X121666666Y-50587324D01*
X121666666Y-50587324D02*
X121785713Y-50527800D01*
X121785713Y-50527800D02*
X122023808Y-50527800D01*
X122023808Y-50527800D02*
X122142856Y-50587324D01*
X122142856Y-50587324D02*
X122202380Y-50706371D01*
X122202380Y-50706371D02*
X122202380Y-50825419D01*
X122202380Y-50825419D02*
X121607142Y-50944467D01*
X122738095Y-51361133D02*
X122738095Y-50527800D01*
X122738095Y-50765895D02*
X122797618Y-50646848D01*
X122797618Y-50646848D02*
X122857142Y-50587324D01*
X122857142Y-50587324D02*
X122976190Y-50527800D01*
X122976190Y-50527800D02*
X123095237Y-50527800D01*
X123333333Y-50527800D02*
X123809524Y-50527800D01*
X123511905Y-51361133D02*
X123511905Y-50289705D01*
X123511905Y-50289705D02*
X123571428Y-50170657D01*
X123571428Y-50170657D02*
X123690476Y-50111133D01*
X123690476Y-50111133D02*
X123809524Y-50111133D01*
X124761905Y-51361133D02*
X124761905Y-50706371D01*
X124761905Y-50706371D02*
X124702381Y-50587324D01*
X124702381Y-50587324D02*
X124583333Y-50527800D01*
X124583333Y-50527800D02*
X124345238Y-50527800D01*
X124345238Y-50527800D02*
X124226191Y-50587324D01*
X124761905Y-51301610D02*
X124642857Y-51361133D01*
X124642857Y-51361133D02*
X124345238Y-51361133D01*
X124345238Y-51361133D02*
X124226191Y-51301610D01*
X124226191Y-51301610D02*
X124166667Y-51182562D01*
X124166667Y-51182562D02*
X124166667Y-51063514D01*
X124166667Y-51063514D02*
X124226191Y-50944467D01*
X124226191Y-50944467D02*
X124345238Y-50884943D01*
X124345238Y-50884943D02*
X124642857Y-50884943D01*
X124642857Y-50884943D02*
X124761905Y-50825419D01*
X125892857Y-51301610D02*
X125773809Y-51361133D01*
X125773809Y-51361133D02*
X125535714Y-51361133D01*
X125535714Y-51361133D02*
X125416666Y-51301610D01*
X125416666Y-51301610D02*
X125357143Y-51242086D01*
X125357143Y-51242086D02*
X125297619Y-51123038D01*
X125297619Y-51123038D02*
X125297619Y-50765895D01*
X125297619Y-50765895D02*
X125357143Y-50646848D01*
X125357143Y-50646848D02*
X125416666Y-50587324D01*
X125416666Y-50587324D02*
X125535714Y-50527800D01*
X125535714Y-50527800D02*
X125773809Y-50527800D01*
X125773809Y-50527800D02*
X125892857Y-50587324D01*
X126904762Y-51301610D02*
X126785714Y-51361133D01*
X126785714Y-51361133D02*
X126547619Y-51361133D01*
X126547619Y-51361133D02*
X126428572Y-51301610D01*
X126428572Y-51301610D02*
X126369048Y-51182562D01*
X126369048Y-51182562D02*
X126369048Y-50706371D01*
X126369048Y-50706371D02*
X126428572Y-50587324D01*
X126428572Y-50587324D02*
X126547619Y-50527800D01*
X126547619Y-50527800D02*
X126785714Y-50527800D01*
X126785714Y-50527800D02*
X126904762Y-50587324D01*
X126904762Y-50587324D02*
X126964286Y-50706371D01*
X126964286Y-50706371D02*
X126964286Y-50825419D01*
X126964286Y-50825419D02*
X126369048Y-50944467D01*
X114166666Y-52718801D02*
X114345238Y-52778325D01*
X114345238Y-52778325D02*
X114404761Y-52837849D01*
X114404761Y-52837849D02*
X114464285Y-52956897D01*
X114464285Y-52956897D02*
X114464285Y-53135468D01*
X114464285Y-53135468D02*
X114404761Y-53254516D01*
X114404761Y-53254516D02*
X114345238Y-53314040D01*
X114345238Y-53314040D02*
X114226190Y-53373563D01*
X114226190Y-53373563D02*
X113750000Y-53373563D01*
X113750000Y-53373563D02*
X113750000Y-52123563D01*
X113750000Y-52123563D02*
X114166666Y-52123563D01*
X114166666Y-52123563D02*
X114285714Y-52183087D01*
X114285714Y-52183087D02*
X114345238Y-52242611D01*
X114345238Y-52242611D02*
X114404761Y-52361659D01*
X114404761Y-52361659D02*
X114404761Y-52480706D01*
X114404761Y-52480706D02*
X114345238Y-52599754D01*
X114345238Y-52599754D02*
X114285714Y-52659278D01*
X114285714Y-52659278D02*
X114166666Y-52718801D01*
X114166666Y-52718801D02*
X113750000Y-52718801D01*
X115178571Y-53373563D02*
X115059523Y-53314040D01*
X115059523Y-53314040D02*
X115000000Y-53254516D01*
X115000000Y-53254516D02*
X114940476Y-53135468D01*
X114940476Y-53135468D02*
X114940476Y-52778325D01*
X114940476Y-52778325D02*
X115000000Y-52659278D01*
X115000000Y-52659278D02*
X115059523Y-52599754D01*
X115059523Y-52599754D02*
X115178571Y-52540230D01*
X115178571Y-52540230D02*
X115357142Y-52540230D01*
X115357142Y-52540230D02*
X115476190Y-52599754D01*
X115476190Y-52599754D02*
X115535714Y-52659278D01*
X115535714Y-52659278D02*
X115595238Y-52778325D01*
X115595238Y-52778325D02*
X115595238Y-53135468D01*
X115595238Y-53135468D02*
X115535714Y-53254516D01*
X115535714Y-53254516D02*
X115476190Y-53314040D01*
X115476190Y-53314040D02*
X115357142Y-53373563D01*
X115357142Y-53373563D02*
X115178571Y-53373563D01*
X116666666Y-53373563D02*
X116666666Y-52718801D01*
X116666666Y-52718801D02*
X116607142Y-52599754D01*
X116607142Y-52599754D02*
X116488094Y-52540230D01*
X116488094Y-52540230D02*
X116249999Y-52540230D01*
X116249999Y-52540230D02*
X116130952Y-52599754D01*
X116666666Y-53314040D02*
X116547618Y-53373563D01*
X116547618Y-53373563D02*
X116249999Y-53373563D01*
X116249999Y-53373563D02*
X116130952Y-53314040D01*
X116130952Y-53314040D02*
X116071428Y-53194992D01*
X116071428Y-53194992D02*
X116071428Y-53075944D01*
X116071428Y-53075944D02*
X116130952Y-52956897D01*
X116130952Y-52956897D02*
X116249999Y-52897373D01*
X116249999Y-52897373D02*
X116547618Y-52897373D01*
X116547618Y-52897373D02*
X116666666Y-52837849D01*
X117261904Y-53373563D02*
X117261904Y-52540230D01*
X117261904Y-52778325D02*
X117321427Y-52659278D01*
X117321427Y-52659278D02*
X117380951Y-52599754D01*
X117380951Y-52599754D02*
X117499999Y-52540230D01*
X117499999Y-52540230D02*
X117619046Y-52540230D01*
X118571428Y-53373563D02*
X118571428Y-52123563D01*
X118571428Y-53314040D02*
X118452380Y-53373563D01*
X118452380Y-53373563D02*
X118214285Y-53373563D01*
X118214285Y-53373563D02*
X118095237Y-53314040D01*
X118095237Y-53314040D02*
X118035714Y-53254516D01*
X118035714Y-53254516D02*
X117976190Y-53135468D01*
X117976190Y-53135468D02*
X117976190Y-52778325D01*
X117976190Y-52778325D02*
X118035714Y-52659278D01*
X118035714Y-52659278D02*
X118095237Y-52599754D01*
X118095237Y-52599754D02*
X118214285Y-52540230D01*
X118214285Y-52540230D02*
X118452380Y-52540230D01*
X118452380Y-52540230D02*
X118571428Y-52599754D01*
X120119047Y-53373563D02*
X120119047Y-52540230D01*
X120119047Y-52778325D02*
X120178570Y-52659278D01*
X120178570Y-52659278D02*
X120238094Y-52599754D01*
X120238094Y-52599754D02*
X120357142Y-52540230D01*
X120357142Y-52540230D02*
X120476189Y-52540230D01*
X121369047Y-53314040D02*
X121249999Y-53373563D01*
X121249999Y-53373563D02*
X121011904Y-53373563D01*
X121011904Y-53373563D02*
X120892857Y-53314040D01*
X120892857Y-53314040D02*
X120833333Y-53194992D01*
X120833333Y-53194992D02*
X120833333Y-52718801D01*
X120833333Y-52718801D02*
X120892857Y-52599754D01*
X120892857Y-52599754D02*
X121011904Y-52540230D01*
X121011904Y-52540230D02*
X121249999Y-52540230D01*
X121249999Y-52540230D02*
X121369047Y-52599754D01*
X121369047Y-52599754D02*
X121428571Y-52718801D01*
X121428571Y-52718801D02*
X121428571Y-52837849D01*
X121428571Y-52837849D02*
X120833333Y-52956897D01*
X121845238Y-52540230D02*
X122142857Y-53373563D01*
X122142857Y-53373563D02*
X122440476Y-52540230D01*
X124523809Y-53373563D02*
X123809524Y-53373563D01*
X124166667Y-53373563D02*
X124166667Y-52123563D01*
X124166667Y-52123563D02*
X124047619Y-52302135D01*
X124047619Y-52302135D02*
X123928571Y-52421182D01*
X123928571Y-52421182D02*
X123809524Y-52480706D01*
X125059524Y-53254516D02*
X125119047Y-53314040D01*
X125119047Y-53314040D02*
X125059524Y-53373563D01*
X125059524Y-53373563D02*
X125000000Y-53314040D01*
X125000000Y-53314040D02*
X125059524Y-53254516D01*
X125059524Y-53254516D02*
X125059524Y-53373563D01*
X125892857Y-52123563D02*
X126011904Y-52123563D01*
X126011904Y-52123563D02*
X126130952Y-52183087D01*
X126130952Y-52183087D02*
X126190476Y-52242611D01*
X126190476Y-52242611D02*
X126250000Y-52361659D01*
X126250000Y-52361659D02*
X126309523Y-52599754D01*
X126309523Y-52599754D02*
X126309523Y-52897373D01*
X126309523Y-52897373D02*
X126250000Y-53135468D01*
X126250000Y-53135468D02*
X126190476Y-53254516D01*
X126190476Y-53254516D02*
X126130952Y-53314040D01*
X126130952Y-53314040D02*
X126011904Y-53373563D01*
X126011904Y-53373563D02*
X125892857Y-53373563D01*
X125892857Y-53373563D02*
X125773809Y-53314040D01*
X125773809Y-53314040D02*
X125714285Y-53254516D01*
X125714285Y-53254516D02*
X125654762Y-53135468D01*
X125654762Y-53135468D02*
X125595238Y-52897373D01*
X125595238Y-52897373D02*
X125595238Y-52599754D01*
X125595238Y-52599754D02*
X125654762Y-52361659D01*
X125654762Y-52361659D02*
X125714285Y-52242611D01*
X125714285Y-52242611D02*
X125773809Y-52183087D01*
X125773809Y-52183087D02*
X125892857Y-52123563D01*
X115654761Y-55266946D02*
X115595237Y-55326470D01*
X115595237Y-55326470D02*
X115416666Y-55385993D01*
X115416666Y-55385993D02*
X115297618Y-55385993D01*
X115297618Y-55385993D02*
X115119047Y-55326470D01*
X115119047Y-55326470D02*
X114999999Y-55207422D01*
X114999999Y-55207422D02*
X114940476Y-55088374D01*
X114940476Y-55088374D02*
X114880952Y-54850279D01*
X114880952Y-54850279D02*
X114880952Y-54671708D01*
X114880952Y-54671708D02*
X114940476Y-54433612D01*
X114940476Y-54433612D02*
X114999999Y-54314565D01*
X114999999Y-54314565D02*
X115119047Y-54195517D01*
X115119047Y-54195517D02*
X115297618Y-54135993D01*
X115297618Y-54135993D02*
X115416666Y-54135993D01*
X115416666Y-54135993D02*
X115595237Y-54195517D01*
X115595237Y-54195517D02*
X115654761Y-54255041D01*
X116190476Y-55385993D02*
X116190476Y-54135993D01*
X116726190Y-55385993D02*
X116726190Y-54731231D01*
X116726190Y-54731231D02*
X116666666Y-54612184D01*
X116666666Y-54612184D02*
X116547618Y-54552660D01*
X116547618Y-54552660D02*
X116369047Y-54552660D01*
X116369047Y-54552660D02*
X116249999Y-54612184D01*
X116249999Y-54612184D02*
X116190476Y-54671708D01*
X117321428Y-55385993D02*
X117321428Y-54552660D01*
X117321428Y-54790755D02*
X117380951Y-54671708D01*
X117380951Y-54671708D02*
X117440475Y-54612184D01*
X117440475Y-54612184D02*
X117559523Y-54552660D01*
X117559523Y-54552660D02*
X117678570Y-54552660D01*
X118095238Y-55385993D02*
X118095238Y-54552660D01*
X118095238Y-54135993D02*
X118035714Y-54195517D01*
X118035714Y-54195517D02*
X118095238Y-54255041D01*
X118095238Y-54255041D02*
X118154761Y-54195517D01*
X118154761Y-54195517D02*
X118095238Y-54135993D01*
X118095238Y-54135993D02*
X118095238Y-54255041D01*
X118630952Y-55326470D02*
X118749999Y-55385993D01*
X118749999Y-55385993D02*
X118988095Y-55385993D01*
X118988095Y-55385993D02*
X119107142Y-55326470D01*
X119107142Y-55326470D02*
X119166666Y-55207422D01*
X119166666Y-55207422D02*
X119166666Y-55147898D01*
X119166666Y-55147898D02*
X119107142Y-55028850D01*
X119107142Y-55028850D02*
X118988095Y-54969327D01*
X118988095Y-54969327D02*
X118809523Y-54969327D01*
X118809523Y-54969327D02*
X118690476Y-54909803D01*
X118690476Y-54909803D02*
X118630952Y-54790755D01*
X118630952Y-54790755D02*
X118630952Y-54731231D01*
X118630952Y-54731231D02*
X118690476Y-54612184D01*
X118690476Y-54612184D02*
X118809523Y-54552660D01*
X118809523Y-54552660D02*
X118988095Y-54552660D01*
X118988095Y-54552660D02*
X119107142Y-54612184D01*
X119523809Y-54552660D02*
X120000000Y-54552660D01*
X119702381Y-54135993D02*
X119702381Y-55207422D01*
X119702381Y-55207422D02*
X119761904Y-55326470D01*
X119761904Y-55326470D02*
X119880952Y-55385993D01*
X119880952Y-55385993D02*
X120000000Y-55385993D01*
X120595238Y-55385993D02*
X120476190Y-55326470D01*
X120476190Y-55326470D02*
X120416667Y-55266946D01*
X120416667Y-55266946D02*
X120357143Y-55147898D01*
X120357143Y-55147898D02*
X120357143Y-54790755D01*
X120357143Y-54790755D02*
X120416667Y-54671708D01*
X120416667Y-54671708D02*
X120476190Y-54612184D01*
X120476190Y-54612184D02*
X120595238Y-54552660D01*
X120595238Y-54552660D02*
X120773809Y-54552660D01*
X120773809Y-54552660D02*
X120892857Y-54612184D01*
X120892857Y-54612184D02*
X120952381Y-54671708D01*
X120952381Y-54671708D02*
X121011905Y-54790755D01*
X121011905Y-54790755D02*
X121011905Y-55147898D01*
X121011905Y-55147898D02*
X120952381Y-55266946D01*
X120952381Y-55266946D02*
X120892857Y-55326470D01*
X120892857Y-55326470D02*
X120773809Y-55385993D01*
X120773809Y-55385993D02*
X120595238Y-55385993D01*
X121547619Y-54552660D02*
X121547619Y-55802660D01*
X121547619Y-54612184D02*
X121666666Y-54552660D01*
X121666666Y-54552660D02*
X121904761Y-54552660D01*
X121904761Y-54552660D02*
X122023809Y-54612184D01*
X122023809Y-54612184D02*
X122083333Y-54671708D01*
X122083333Y-54671708D02*
X122142857Y-54790755D01*
X122142857Y-54790755D02*
X122142857Y-55147898D01*
X122142857Y-55147898D02*
X122083333Y-55266946D01*
X122083333Y-55266946D02*
X122023809Y-55326470D01*
X122023809Y-55326470D02*
X121904761Y-55385993D01*
X121904761Y-55385993D02*
X121666666Y-55385993D01*
X121666666Y-55385993D02*
X121547619Y-55326470D01*
X122678571Y-55385993D02*
X122678571Y-54135993D01*
X123214285Y-55385993D02*
X123214285Y-54731231D01*
X123214285Y-54731231D02*
X123154761Y-54612184D01*
X123154761Y-54612184D02*
X123035713Y-54552660D01*
X123035713Y-54552660D02*
X122857142Y-54552660D01*
X122857142Y-54552660D02*
X122738094Y-54612184D01*
X122738094Y-54612184D02*
X122678571Y-54671708D01*
X124285713Y-55326470D02*
X124166665Y-55385993D01*
X124166665Y-55385993D02*
X123928570Y-55385993D01*
X123928570Y-55385993D02*
X123809523Y-55326470D01*
X123809523Y-55326470D02*
X123749999Y-55207422D01*
X123749999Y-55207422D02*
X123749999Y-54731231D01*
X123749999Y-54731231D02*
X123809523Y-54612184D01*
X123809523Y-54612184D02*
X123928570Y-54552660D01*
X123928570Y-54552660D02*
X124166665Y-54552660D01*
X124166665Y-54552660D02*
X124285713Y-54612184D01*
X124285713Y-54612184D02*
X124345237Y-54731231D01*
X124345237Y-54731231D02*
X124345237Y-54850279D01*
X124345237Y-54850279D02*
X123749999Y-54969327D01*
X124880952Y-55385993D02*
X124880952Y-54552660D01*
X124880952Y-54790755D02*
X124940475Y-54671708D01*
X124940475Y-54671708D02*
X124999999Y-54612184D01*
X124999999Y-54612184D02*
X125119047Y-54552660D01*
X125119047Y-54552660D02*
X125238094Y-54552660D01*
X114404763Y-57398423D02*
X114404763Y-56148423D01*
X115119048Y-57398423D02*
X114583334Y-56684138D01*
X115119048Y-56148423D02*
X114404763Y-56862709D01*
X116190477Y-57398423D02*
X116190477Y-56743661D01*
X116190477Y-56743661D02*
X116130953Y-56624614D01*
X116130953Y-56624614D02*
X116011905Y-56565090D01*
X116011905Y-56565090D02*
X115773810Y-56565090D01*
X115773810Y-56565090D02*
X115654763Y-56624614D01*
X116190477Y-57338900D02*
X116071429Y-57398423D01*
X116071429Y-57398423D02*
X115773810Y-57398423D01*
X115773810Y-57398423D02*
X115654763Y-57338900D01*
X115654763Y-57338900D02*
X115595239Y-57219852D01*
X115595239Y-57219852D02*
X115595239Y-57100804D01*
X115595239Y-57100804D02*
X115654763Y-56981757D01*
X115654763Y-56981757D02*
X115773810Y-56922233D01*
X115773810Y-56922233D02*
X116071429Y-56922233D01*
X116071429Y-56922233D02*
X116190477Y-56862709D01*
X116964286Y-57398423D02*
X116845238Y-57338900D01*
X116845238Y-57338900D02*
X116785715Y-57219852D01*
X116785715Y-57219852D02*
X116785715Y-56148423D01*
X117440477Y-57398423D02*
X117440477Y-56565090D01*
X117440477Y-56148423D02*
X117380953Y-56207947D01*
X117380953Y-56207947D02*
X117440477Y-56267471D01*
X117440477Y-56267471D02*
X117500000Y-56207947D01*
X117500000Y-56207947D02*
X117440477Y-56148423D01*
X117440477Y-56148423D02*
X117440477Y-56267471D01*
X117857143Y-56565090D02*
X118333334Y-56565090D01*
X118035715Y-56148423D02*
X118035715Y-57219852D01*
X118035715Y-57219852D02*
X118095238Y-57338900D01*
X118095238Y-57338900D02*
X118214286Y-57398423D01*
X118214286Y-57398423D02*
X118333334Y-57398423D01*
X118750001Y-57398423D02*
X118750001Y-56565090D01*
X118750001Y-56148423D02*
X118690477Y-56207947D01*
X118690477Y-56207947D02*
X118750001Y-56267471D01*
X118750001Y-56267471D02*
X118809524Y-56207947D01*
X118809524Y-56207947D02*
X118750001Y-56148423D01*
X118750001Y-56148423D02*
X118750001Y-56267471D01*
X119345239Y-56565090D02*
X119345239Y-57398423D01*
X119345239Y-56684138D02*
X119404762Y-56624614D01*
X119404762Y-56624614D02*
X119523810Y-56565090D01*
X119523810Y-56565090D02*
X119702381Y-56565090D01*
X119702381Y-56565090D02*
X119821429Y-56624614D01*
X119821429Y-56624614D02*
X119880953Y-56743661D01*
X119880953Y-56743661D02*
X119880953Y-57398423D01*
X121369048Y-56267471D02*
X121428572Y-56207947D01*
X121428572Y-56207947D02*
X121547619Y-56148423D01*
X121547619Y-56148423D02*
X121845238Y-56148423D01*
X121845238Y-56148423D02*
X121964286Y-56207947D01*
X121964286Y-56207947D02*
X122023810Y-56267471D01*
X122023810Y-56267471D02*
X122083333Y-56386519D01*
X122083333Y-56386519D02*
X122083333Y-56505566D01*
X122083333Y-56505566D02*
X122023810Y-56684138D01*
X122023810Y-56684138D02*
X121309524Y-57398423D01*
X121309524Y-57398423D02*
X122083333Y-57398423D01*
X122857143Y-56148423D02*
X122976190Y-56148423D01*
X122976190Y-56148423D02*
X123095238Y-56207947D01*
X123095238Y-56207947D02*
X123154762Y-56267471D01*
X123154762Y-56267471D02*
X123214286Y-56386519D01*
X123214286Y-56386519D02*
X123273809Y-56624614D01*
X123273809Y-56624614D02*
X123273809Y-56922233D01*
X123273809Y-56922233D02*
X123214286Y-57160328D01*
X123214286Y-57160328D02*
X123154762Y-57279376D01*
X123154762Y-57279376D02*
X123095238Y-57338900D01*
X123095238Y-57338900D02*
X122976190Y-57398423D01*
X122976190Y-57398423D02*
X122857143Y-57398423D01*
X122857143Y-57398423D02*
X122738095Y-57338900D01*
X122738095Y-57338900D02*
X122678571Y-57279376D01*
X122678571Y-57279376D02*
X122619048Y-57160328D01*
X122619048Y-57160328D02*
X122559524Y-56922233D01*
X122559524Y-56922233D02*
X122559524Y-56624614D01*
X122559524Y-56624614D02*
X122619048Y-56386519D01*
X122619048Y-56386519D02*
X122678571Y-56267471D01*
X122678571Y-56267471D02*
X122738095Y-56207947D01*
X122738095Y-56207947D02*
X122857143Y-56148423D01*
X123750000Y-56267471D02*
X123809524Y-56207947D01*
X123809524Y-56207947D02*
X123928571Y-56148423D01*
X123928571Y-56148423D02*
X124226190Y-56148423D01*
X124226190Y-56148423D02*
X124345238Y-56207947D01*
X124345238Y-56207947D02*
X124404762Y-56267471D01*
X124404762Y-56267471D02*
X124464285Y-56386519D01*
X124464285Y-56386519D02*
X124464285Y-56505566D01*
X124464285Y-56505566D02*
X124404762Y-56684138D01*
X124404762Y-56684138D02*
X123690476Y-57398423D01*
X123690476Y-57398423D02*
X124464285Y-57398423D01*
X125535714Y-56148423D02*
X125297619Y-56148423D01*
X125297619Y-56148423D02*
X125178571Y-56207947D01*
X125178571Y-56207947D02*
X125119047Y-56267471D01*
X125119047Y-56267471D02*
X125000000Y-56446042D01*
X125000000Y-56446042D02*
X124940476Y-56684138D01*
X124940476Y-56684138D02*
X124940476Y-57160328D01*
X124940476Y-57160328D02*
X125000000Y-57279376D01*
X125000000Y-57279376D02*
X125059523Y-57338900D01*
X125059523Y-57338900D02*
X125178571Y-57398423D01*
X125178571Y-57398423D02*
X125416666Y-57398423D01*
X125416666Y-57398423D02*
X125535714Y-57338900D01*
X125535714Y-57338900D02*
X125595238Y-57279376D01*
X125595238Y-57279376D02*
X125654761Y-57160328D01*
X125654761Y-57160328D02*
X125654761Y-56862709D01*
X125654761Y-56862709D02*
X125595238Y-56743661D01*
X125595238Y-56743661D02*
X125535714Y-56684138D01*
X125535714Y-56684138D02*
X125416666Y-56624614D01*
X125416666Y-56624614D02*
X125178571Y-56624614D01*
X125178571Y-56624614D02*
X125059523Y-56684138D01*
X125059523Y-56684138D02*
X125000000Y-56743661D01*
X125000000Y-56743661D02*
X124940476Y-56862709D01*
X138029819Y-78833333D02*
X138744104Y-78833333D01*
X138744104Y-78833333D02*
X138886961Y-78880952D01*
X138886961Y-78880952D02*
X138982200Y-78976190D01*
X138982200Y-78976190D02*
X139029819Y-79119047D01*
X139029819Y-79119047D02*
X139029819Y-79214285D01*
X138029819Y-78452380D02*
X138029819Y-77833333D01*
X138029819Y-77833333D02*
X138410771Y-78166666D01*
X138410771Y-78166666D02*
X138410771Y-78023809D01*
X138410771Y-78023809D02*
X138458390Y-77928571D01*
X138458390Y-77928571D02*
X138506009Y-77880952D01*
X138506009Y-77880952D02*
X138601247Y-77833333D01*
X138601247Y-77833333D02*
X138839342Y-77833333D01*
X138839342Y-77833333D02*
X138934580Y-77880952D01*
X138934580Y-77880952D02*
X138982200Y-77928571D01*
X138982200Y-77928571D02*
X139029819Y-78023809D01*
X139029819Y-78023809D02*
X139029819Y-78309523D01*
X139029819Y-78309523D02*
X138982200Y-78404761D01*
X138982200Y-78404761D02*
X138934580Y-78452380D01*
D11*
X112888095Y-81457419D02*
X112888095Y-82266942D01*
X112888095Y-82266942D02*
X112935714Y-82362180D01*
X112935714Y-82362180D02*
X112983333Y-82409800D01*
X112983333Y-82409800D02*
X113078571Y-82457419D01*
X113078571Y-82457419D02*
X113269047Y-82457419D01*
X113269047Y-82457419D02*
X113364285Y-82409800D01*
X113364285Y-82409800D02*
X113411904Y-82362180D01*
X113411904Y-82362180D02*
X113459523Y-82266942D01*
X113459523Y-82266942D02*
X113459523Y-81457419D01*
X114459523Y-82457419D02*
X113888095Y-82457419D01*
X114173809Y-82457419D02*
X114173809Y-81457419D01*
X114173809Y-81457419D02*
X114078571Y-81600276D01*
X114078571Y-81600276D02*
X113983333Y-81695514D01*
X113983333Y-81695514D02*
X113888095Y-81743133D01*
D10*
X138004819Y-61833333D02*
X138719104Y-61833333D01*
X138719104Y-61833333D02*
X138861961Y-61880952D01*
X138861961Y-61880952D02*
X138957200Y-61976190D01*
X138957200Y-61976190D02*
X139004819Y-62119047D01*
X139004819Y-62119047D02*
X139004819Y-62214285D01*
X138100057Y-61404761D02*
X138052438Y-61357142D01*
X138052438Y-61357142D02*
X138004819Y-61261904D01*
X138004819Y-61261904D02*
X138004819Y-61023809D01*
X138004819Y-61023809D02*
X138052438Y-60928571D01*
X138052438Y-60928571D02*
X138100057Y-60880952D01*
X138100057Y-60880952D02*
X138195295Y-60833333D01*
X138195295Y-60833333D02*
X138290533Y-60833333D01*
X138290533Y-60833333D02*
X138433390Y-60880952D01*
X138433390Y-60880952D02*
X139004819Y-61452380D01*
X139004819Y-61452380D02*
X139004819Y-60833333D01*
X100879819Y-70333333D02*
X101594104Y-70333333D01*
X101594104Y-70333333D02*
X101736961Y-70380952D01*
X101736961Y-70380952D02*
X101832200Y-70476190D01*
X101832200Y-70476190D02*
X101879819Y-70619047D01*
X101879819Y-70619047D02*
X101879819Y-70714285D01*
X101879819Y-69333333D02*
X101879819Y-69904761D01*
X101879819Y-69619047D02*
X100879819Y-69619047D01*
X100879819Y-69619047D02*
X101022676Y-69714285D01*
X101022676Y-69714285D02*
X101117914Y-69809523D01*
X101117914Y-69809523D02*
X101165533Y-69904761D01*
D12*
%TO.C,J3*%
X132275000Y-71700000D02*
X132275000Y-78500000D01*
X132275000Y-85300000D02*
X132275000Y-78500000D01*
X135225000Y-70950000D02*
X135225000Y-71700000D01*
X135225000Y-71700000D02*
X132275000Y-71700000D01*
X135225000Y-85300000D02*
X132275000Y-85300000D01*
X135225000Y-86050000D02*
X135225000Y-85300000D01*
X137775000Y-70650000D02*
X136525000Y-70650000D01*
X137775000Y-71900000D02*
X137775000Y-70650000D01*
X137475000Y-70950000D02*
X136725000Y-70950000D01*
X136725000Y-72750000D01*
X137475000Y-72750000D01*
X137475000Y-70950000D01*
X137475000Y-74250000D02*
X136725000Y-74250000D01*
X136725000Y-82750000D01*
X137475000Y-82750000D01*
X137475000Y-74250000D01*
X137475000Y-84250000D02*
X136725000Y-84250000D01*
X136725000Y-86050000D01*
X137475000Y-86050000D01*
X137475000Y-84250000D01*
X137485000Y-70940000D02*
X131515000Y-70940000D01*
X131515000Y-86060000D01*
X137485000Y-86060000D01*
X137485000Y-70940000D01*
%TO.C,U1*%
X112270000Y-59730000D02*
X112270000Y-80270000D01*
X112270000Y-59730000D02*
X120000000Y-59730000D01*
X112270000Y-80270000D02*
X115030000Y-80270000D01*
X115030000Y-62380000D02*
X115030000Y-80270000D01*
X115030000Y-62380000D02*
X120000000Y-62380000D01*
X120000000Y-62380000D02*
X120000000Y-59730000D01*
X124970000Y-59730000D02*
X124970000Y-80270000D01*
X124970000Y-59730000D02*
X127730000Y-59730000D01*
X124970000Y-80270000D02*
X127730000Y-80270000D01*
X127730000Y-59730000D02*
X127730000Y-80270000D01*
%TO.C,J2*%
X132250000Y-54700000D02*
X132250000Y-61500000D01*
X132250000Y-68300000D02*
X132250000Y-61500000D01*
X135200000Y-53950000D02*
X135200000Y-54700000D01*
X135200000Y-54700000D02*
X132250000Y-54700000D01*
X135200000Y-68300000D02*
X132250000Y-68300000D01*
X135200000Y-69050000D02*
X135200000Y-68300000D01*
X137750000Y-53650000D02*
X136500000Y-53650000D01*
X137750000Y-54900000D02*
X137750000Y-53650000D01*
X137450000Y-53950000D02*
X136700000Y-53950000D01*
X136700000Y-55750000D01*
X137450000Y-55750000D01*
X137450000Y-53950000D01*
X137450000Y-57250000D02*
X136700000Y-57250000D01*
X136700000Y-65750000D01*
X137450000Y-65750000D01*
X137450000Y-57250000D01*
X137450000Y-67250000D02*
X136700000Y-67250000D01*
X136700000Y-69050000D01*
X137450000Y-69050000D01*
X137450000Y-67250000D01*
X137460000Y-53940000D02*
X131490000Y-53940000D01*
X131490000Y-69060000D01*
X137460000Y-69060000D01*
X137460000Y-53940000D01*
%TO.C,J1*%
X102225000Y-79100000D02*
X102225000Y-80350000D01*
X102225000Y-80350000D02*
X103475000Y-80350000D01*
X104775000Y-59950000D02*
X104775000Y-60700000D01*
X104775000Y-60700000D02*
X107725000Y-60700000D01*
X104775000Y-79300000D02*
X107725000Y-79300000D01*
X104775000Y-80050000D02*
X104775000Y-79300000D01*
X107725000Y-60700000D02*
X107725000Y-70000000D01*
X107725000Y-79300000D02*
X107725000Y-70000000D01*
X102515000Y-80060000D02*
X108485000Y-80060000D01*
X108485000Y-59940000D01*
X102515000Y-59940000D01*
X102515000Y-80060000D01*
X102525000Y-61750000D02*
X103275000Y-61750000D01*
X103275000Y-59950000D01*
X102525000Y-59950000D01*
X102525000Y-61750000D01*
X102525000Y-76750000D02*
X103275000Y-76750000D01*
X103275000Y-63250000D01*
X102525000Y-63250000D01*
X102525000Y-76750000D01*
X102525000Y-80050000D02*
X103275000Y-80050000D01*
X103275000Y-78250000D01*
X102525000Y-78250000D01*
X102525000Y-80050000D01*
%TD*%
M02*
