%TF.GenerationSoftware,KiCad,Pcbnew,9.0.7*%
%TF.CreationDate,2026-03-13T14:19:04-07:00*%
%TF.ProjectId,motor_controller_interface_pcb,6d6f746f-725f-4636-9f6e-74726f6c6c65,rev?*%
%TF.SameCoordinates,Original*%
%TF.FileFunction,Copper,L1,Top*%
%TF.FilePolarity,Positive*%
%FSLAX46Y46*%
G04 Gerber Fmt 4.6, Leading zero omitted, Abs format (unit mm)*
G04 Created by KiCad (PCBNEW 9.0.7) date 2026-03-13 14:19:04*
%MOMM*%
%LPD*%
G01*
G04 APERTURE LIST*
G04 Aperture macros list*
%AMRoundRect*
0 Rectangle with rounded corners*
0 $1 Rounding radius*
0 $2 $3 $4 $5 $6 $7 $8 $9 X,Y pos of 4 corners*
0 Add a 4 corners polygon primitive as box body*
4,1,4,$2,$3,$4,$5,$6,$7,$8,$9,$2,$3,0*
0 Add four circle primitives for the rounded corners*
1,1,$1+$1,$2,$3*
1,1,$1+$1,$4,$5*
1,1,$1+$1,$6,$7*
1,1,$1+$1,$8,$9*
0 Add four rect primitives between the rounded corners*
20,1,$1+$1,$2,$3,$4,$5,0*
20,1,$1+$1,$4,$5,$6,$7,0*
20,1,$1+$1,$6,$7,$8,$9,0*
20,1,$1+$1,$8,$9,$2,$3,0*%
G04 Aperture macros list end*
%TA.AperFunction,ComponentPad*%
%ADD10RoundRect,0.250000X-0.725000X0.600000X-0.725000X-0.600000X0.725000X-0.600000X0.725000X0.600000X0*%
%TD*%
%TA.AperFunction,ComponentPad*%
%ADD11O,1.950000X1.700000*%
%TD*%
%TA.AperFunction,ComponentPad*%
%ADD12R,1.700000X1.700000*%
%TD*%
%TA.AperFunction,ComponentPad*%
%ADD13C,1.700000*%
%TD*%
%TA.AperFunction,ComponentPad*%
%ADD14RoundRect,0.250000X0.725000X-0.600000X0.725000X0.600000X-0.725000X0.600000X-0.725000X-0.600000X0*%
%TD*%
%TA.AperFunction,Conductor*%
%ADD15C,1.000000*%
%TD*%
%TA.AperFunction,Conductor*%
%ADD16C,0.200000*%
%TD*%
G04 APERTURE END LIST*
D10*
%TO.P,J3,1,Pin_1*%
%TO.N,/M1A*%
X135025000Y-73500000D03*
D11*
%TO.P,J3,2,Pin_2*%
%TO.N,unconnected-(J3-Pin_2-Pad2)*%
X135025000Y-76000000D03*
%TO.P,J3,3,Pin_3*%
%TO.N,unconnected-(J3-Pin_3-Pad3)*%
X135025000Y-78500000D03*
%TO.P,J3,4,Pin_4*%
%TO.N,unconnected-(J3-Pin_4-Pad4)*%
X135025000Y-81000000D03*
%TO.P,J3,5,Pin_5*%
%TO.N,/M1B*%
X135025000Y-83500000D03*
%TD*%
D12*
%TO.P,U1,1,EN*%
%TO.N,/EN*%
X113650000Y-61110000D03*
D13*
%TO.P,U1,2,MS1*%
%TO.N,unconnected-(U1-MS1-Pad2)*%
X113650000Y-63650000D03*
%TO.P,U1,3,MS2*%
%TO.N,unconnected-(U1-MS2-Pad3)*%
X113650000Y-66190000D03*
%TO.P,U1,4,SPREAD*%
%TO.N,unconnected-(U1-SPREAD-Pad4)*%
X113650000Y-68730000D03*
%TO.P,U1,5,PDN_UART*%
%TO.N,unconnected-(U1-PDN_UART-Pad5)*%
X113650000Y-71270000D03*
%TO.P,U1,6,PDN_UART*%
%TO.N,unconnected-(U1-PDN_UART-Pad6)*%
X113650000Y-73810000D03*
%TO.P,U1,7,STEP*%
%TO.N,/STEP*%
X113650000Y-76350000D03*
%TO.P,U1,8,DIR*%
%TO.N,/DIR*%
X113650000Y-78890000D03*
D12*
%TO.P,U1,9,VM*%
%TO.N,+24V*%
X126350000Y-61110000D03*
D13*
%TO.P,U1,10,GND*%
%TO.N,GND*%
X126350000Y-63650000D03*
%TO.P,U1,11,M2B*%
%TO.N,/M2B*%
X126350000Y-66190000D03*
%TO.P,U1,12,M2A*%
%TO.N,/M2A*%
X126350000Y-68730000D03*
%TO.P,U1,13,M1A*%
%TO.N,/M1A*%
X126350000Y-71270000D03*
%TO.P,U1,14,M1B*%
%TO.N,/M1B*%
X126350000Y-73810000D03*
%TO.P,U1,15,VIO*%
%TO.N,+3V3*%
X126350000Y-76350000D03*
%TO.P,U1,16,GND*%
%TO.N,GND*%
X126350000Y-78890000D03*
%TO.P,U1,17,DIAG*%
%TO.N,unconnected-(U1-DIAG-Pad17)*%
X116190000Y-61110000D03*
%TO.P,U1,18,INDEX*%
%TO.N,unconnected-(U1-INDEX-Pad18)*%
X118730000Y-61110000D03*
%TD*%
D10*
%TO.P,J2,1,Pin_1*%
%TO.N,/M2B*%
X135000000Y-56500000D03*
D11*
%TO.P,J2,2,Pin_2*%
%TO.N,unconnected-(J2-Pin_2-Pad2)*%
X135000000Y-59000000D03*
%TO.P,J2,3,Pin_3*%
%TO.N,unconnected-(J2-Pin_3-Pad3)*%
X135000000Y-61500000D03*
%TO.P,J2,4,Pin_4*%
%TO.N,unconnected-(J2-Pin_4-Pad4)*%
X135000000Y-64000000D03*
%TO.P,J2,5,Pin_5*%
%TO.N,/M2A*%
X135000000Y-66500000D03*
%TD*%
D14*
%TO.P,J1,1,Pin_1*%
%TO.N,GND*%
X104975000Y-77500000D03*
D11*
%TO.P,J1,2,Pin_2*%
X104975000Y-75000000D03*
%TO.P,J1,3,Pin_3*%
%TO.N,/EN*%
X104975000Y-72500000D03*
%TO.P,J1,4,Pin_4*%
%TO.N,/DIR*%
X104975000Y-70000000D03*
%TO.P,J1,5,Pin_5*%
%TO.N,/STEP*%
X104975000Y-67500000D03*
%TO.P,J1,6,Pin_6*%
%TO.N,+3V3*%
X104975000Y-65000000D03*
%TO.P,J1,7,Pin_7*%
%TO.N,+24V*%
X104975000Y-62500000D03*
%TD*%
D15*
%TO.N,+24V*%
X123740000Y-58500000D02*
X126350000Y-61110000D01*
X108975000Y-58500000D02*
X123740000Y-58500000D01*
X104975000Y-62500000D02*
X108975000Y-58500000D01*
D16*
%TO.N,/EN*%
X103500000Y-67222240D02*
X104571240Y-66151000D01*
X104571240Y-66151000D02*
X108609000Y-66151000D01*
X103500000Y-71025000D02*
X103500000Y-67222240D01*
X108609000Y-66151000D02*
X113650000Y-61110000D01*
X104975000Y-72500000D02*
X103500000Y-71025000D01*
%TO.N,/STEP*%
X113650000Y-76150000D02*
X113650000Y-76350000D01*
X104975000Y-67500000D02*
X105000000Y-67500000D01*
X105000000Y-67500000D02*
X113650000Y-76150000D01*
%TO.N,/DIR*%
X112475000Y-77500000D02*
X112500000Y-77500000D01*
X112500000Y-77500000D02*
X113650000Y-78650000D01*
X113650000Y-78650000D02*
X113650000Y-78890000D01*
X104975000Y-70000000D02*
X112475000Y-77500000D01*
D15*
%TO.N,/M2A*%
X128580000Y-66500000D02*
X135000000Y-66500000D01*
X126350000Y-68730000D02*
X128580000Y-66500000D01*
%TO.N,/M2B*%
X133000000Y-58500000D02*
X135000000Y-56500000D01*
X133000000Y-59540000D02*
X133000000Y-58500000D01*
X126350000Y-66190000D02*
X133000000Y-59540000D01*
%TO.N,/M1A*%
X126350000Y-71270000D02*
X128580000Y-73500000D01*
X128580000Y-73500000D02*
X135025000Y-73500000D01*
%TO.N,/M1B*%
X133000000Y-80500000D02*
X133000000Y-81500000D01*
X133000000Y-81500000D02*
X135000000Y-83500000D01*
X130000000Y-77500000D02*
X133000000Y-80500000D01*
X130000000Y-77460000D02*
X130000000Y-77500000D01*
X126350000Y-73810000D02*
X130000000Y-77460000D01*
X135000000Y-83500000D02*
X135025000Y-83500000D01*
%TD*%
%TA.AperFunction,Conductor*%
%TO.N,+3V3*%
G36*
X135002702Y-45500617D02*
G01*
X135386771Y-45517386D01*
X135397506Y-45518326D01*
X135775971Y-45568152D01*
X135786597Y-45570025D01*
X136159284Y-45652648D01*
X136169710Y-45655442D01*
X136533765Y-45770227D01*
X136543911Y-45773920D01*
X136896578Y-45920000D01*
X136906369Y-45924566D01*
X137244942Y-46100816D01*
X137254310Y-46106224D01*
X137576244Y-46311318D01*
X137585105Y-46317523D01*
X137887930Y-46549889D01*
X137896217Y-46556843D01*
X138177635Y-46814715D01*
X138185284Y-46822364D01*
X138443156Y-47103782D01*
X138450110Y-47112069D01*
X138682476Y-47414894D01*
X138688681Y-47423755D01*
X138893775Y-47745689D01*
X138899183Y-47755057D01*
X139075430Y-48093623D01*
X139080002Y-48103427D01*
X139226075Y-48456078D01*
X139229775Y-48466244D01*
X139344554Y-48830278D01*
X139347354Y-48840727D01*
X139429971Y-49213389D01*
X139431849Y-49224042D01*
X139481671Y-49602473D01*
X139482614Y-49613249D01*
X139499382Y-49997297D01*
X139499500Y-50002706D01*
X139499500Y-89997293D01*
X139499382Y-90002702D01*
X139482614Y-90386750D01*
X139481671Y-90397526D01*
X139431849Y-90775957D01*
X139429971Y-90786610D01*
X139347354Y-91159272D01*
X139344554Y-91169721D01*
X139229775Y-91533755D01*
X139226075Y-91543921D01*
X139080002Y-91896572D01*
X139075430Y-91906376D01*
X138899183Y-92244942D01*
X138893775Y-92254310D01*
X138688681Y-92576244D01*
X138682476Y-92585105D01*
X138450110Y-92887930D01*
X138443156Y-92896217D01*
X138185284Y-93177635D01*
X138177635Y-93185284D01*
X137896217Y-93443156D01*
X137887930Y-93450110D01*
X137585105Y-93682476D01*
X137576244Y-93688681D01*
X137254310Y-93893775D01*
X137244942Y-93899183D01*
X136906376Y-94075430D01*
X136896572Y-94080002D01*
X136543921Y-94226075D01*
X136533755Y-94229775D01*
X136169721Y-94344554D01*
X136159272Y-94347354D01*
X135786610Y-94429971D01*
X135775957Y-94431849D01*
X135397526Y-94481671D01*
X135386750Y-94482614D01*
X135002703Y-94499382D01*
X134997294Y-94499500D01*
X105002706Y-94499500D01*
X104997297Y-94499382D01*
X104613249Y-94482614D01*
X104602473Y-94481671D01*
X104224042Y-94431849D01*
X104213389Y-94429971D01*
X103840727Y-94347354D01*
X103830278Y-94344554D01*
X103466244Y-94229775D01*
X103456078Y-94226075D01*
X103103427Y-94080002D01*
X103093623Y-94075430D01*
X102755057Y-93899183D01*
X102745689Y-93893775D01*
X102423755Y-93688681D01*
X102414894Y-93682476D01*
X102112069Y-93450110D01*
X102103782Y-93443156D01*
X101822364Y-93185284D01*
X101814715Y-93177635D01*
X101556843Y-92896217D01*
X101549889Y-92887930D01*
X101317523Y-92585105D01*
X101311318Y-92576244D01*
X101106224Y-92254310D01*
X101100816Y-92244942D01*
X100924569Y-91906376D01*
X100919997Y-91896572D01*
X100773920Y-91543911D01*
X100770224Y-91533755D01*
X100655442Y-91169710D01*
X100652648Y-91159284D01*
X100570025Y-90786597D01*
X100568152Y-90775971D01*
X100518326Y-90397506D01*
X100517386Y-90386771D01*
X100500618Y-90002702D01*
X100500500Y-89997293D01*
X100500500Y-89878711D01*
X103149500Y-89878711D01*
X103149500Y-90121288D01*
X103181161Y-90361785D01*
X103243947Y-90596104D01*
X103336773Y-90820205D01*
X103336776Y-90820212D01*
X103458064Y-91030289D01*
X103458066Y-91030292D01*
X103458067Y-91030293D01*
X103605733Y-91222736D01*
X103605739Y-91222743D01*
X103777256Y-91394260D01*
X103777262Y-91394265D01*
X103969711Y-91541936D01*
X104179788Y-91663224D01*
X104403900Y-91756054D01*
X104638211Y-91818838D01*
X104818586Y-91842584D01*
X104878711Y-91850500D01*
X104878712Y-91850500D01*
X105121289Y-91850500D01*
X105169388Y-91844167D01*
X105361789Y-91818838D01*
X105596100Y-91756054D01*
X105820212Y-91663224D01*
X106030289Y-91541936D01*
X106222738Y-91394265D01*
X106394265Y-91222738D01*
X106541936Y-91030289D01*
X106663224Y-90820212D01*
X106756054Y-90596100D01*
X106818838Y-90361789D01*
X106850500Y-90121288D01*
X106850500Y-89878712D01*
X106850500Y-89878711D01*
X133149500Y-89878711D01*
X133149500Y-90121288D01*
X133181161Y-90361785D01*
X133243947Y-90596104D01*
X133336773Y-90820205D01*
X133336776Y-90820212D01*
X133458064Y-91030289D01*
X133458066Y-91030292D01*
X133458067Y-91030293D01*
X133605733Y-91222736D01*
X133605739Y-91222743D01*
X133777256Y-91394260D01*
X133777262Y-91394265D01*
X133969711Y-91541936D01*
X134179788Y-91663224D01*
X134403900Y-91756054D01*
X134638211Y-91818838D01*
X134818586Y-91842584D01*
X134878711Y-91850500D01*
X134878712Y-91850500D01*
X135121289Y-91850500D01*
X135169388Y-91844167D01*
X135361789Y-91818838D01*
X135596100Y-91756054D01*
X135820212Y-91663224D01*
X136030289Y-91541936D01*
X136222738Y-91394265D01*
X136394265Y-91222738D01*
X136541936Y-91030289D01*
X136663224Y-90820212D01*
X136756054Y-90596100D01*
X136818838Y-90361789D01*
X136850500Y-90121288D01*
X136850500Y-89878712D01*
X136818838Y-89638211D01*
X136756054Y-89403900D01*
X136663224Y-89179788D01*
X136541936Y-88969711D01*
X136394265Y-88777262D01*
X136394260Y-88777256D01*
X136222743Y-88605739D01*
X136222736Y-88605733D01*
X136030293Y-88458067D01*
X136030292Y-88458066D01*
X136030289Y-88458064D01*
X135820212Y-88336776D01*
X135820205Y-88336773D01*
X135596104Y-88243947D01*
X135361785Y-88181161D01*
X135121289Y-88149500D01*
X135121288Y-88149500D01*
X134878712Y-88149500D01*
X134878711Y-88149500D01*
X134638214Y-88181161D01*
X134403895Y-88243947D01*
X134179794Y-88336773D01*
X134179785Y-88336777D01*
X133969706Y-88458067D01*
X133777263Y-88605733D01*
X133777256Y-88605739D01*
X133605739Y-88777256D01*
X133605733Y-88777263D01*
X133458067Y-88969706D01*
X133336777Y-89179785D01*
X133336773Y-89179794D01*
X133243947Y-89403895D01*
X133181161Y-89638214D01*
X133149500Y-89878711D01*
X106850500Y-89878711D01*
X106818838Y-89638211D01*
X106756054Y-89403900D01*
X106663224Y-89179788D01*
X106541936Y-88969711D01*
X106394265Y-88777262D01*
X106394260Y-88777256D01*
X106222743Y-88605739D01*
X106222736Y-88605733D01*
X106030293Y-88458067D01*
X106030292Y-88458066D01*
X106030289Y-88458064D01*
X105820212Y-88336776D01*
X105820205Y-88336773D01*
X105596104Y-88243947D01*
X105361785Y-88181161D01*
X105121289Y-88149500D01*
X105121288Y-88149500D01*
X104878712Y-88149500D01*
X104878711Y-88149500D01*
X104638214Y-88181161D01*
X104403895Y-88243947D01*
X104179794Y-88336773D01*
X104179785Y-88336777D01*
X103969706Y-88458067D01*
X103777263Y-88605733D01*
X103777256Y-88605739D01*
X103605739Y-88777256D01*
X103605733Y-88777263D01*
X103458067Y-88969706D01*
X103336777Y-89179785D01*
X103336773Y-89179794D01*
X103243947Y-89403895D01*
X103181161Y-89638214D01*
X103149500Y-89878711D01*
X100500500Y-89878711D01*
X100500500Y-76845730D01*
X103799500Y-76845730D01*
X103799500Y-78154269D01*
X103802353Y-78184699D01*
X103802353Y-78184701D01*
X103847206Y-78312880D01*
X103847207Y-78312882D01*
X103927850Y-78422150D01*
X104037118Y-78502793D01*
X104079845Y-78517744D01*
X104165299Y-78547646D01*
X104195730Y-78550500D01*
X104195734Y-78550500D01*
X105754270Y-78550500D01*
X105784699Y-78547646D01*
X105784701Y-78547646D01*
X105848790Y-78525219D01*
X105912882Y-78502793D01*
X106022150Y-78422150D01*
X106102793Y-78312882D01*
X106135174Y-78220342D01*
X106147646Y-78184701D01*
X106147646Y-78184699D01*
X106150500Y-78154269D01*
X106150500Y-76845730D01*
X106147646Y-76815300D01*
X106147646Y-76815298D01*
X106102793Y-76687119D01*
X106102792Y-76687117D01*
X106089906Y-76669657D01*
X106022150Y-76577850D01*
X105912882Y-76497207D01*
X105912880Y-76497206D01*
X105784700Y-76452353D01*
X105754270Y-76449500D01*
X105754266Y-76449500D01*
X104195734Y-76449500D01*
X104195730Y-76449500D01*
X104165300Y-76452353D01*
X104165298Y-76452353D01*
X104037119Y-76497206D01*
X104037117Y-76497207D01*
X103927850Y-76577850D01*
X103847207Y-76687117D01*
X103847206Y-76687119D01*
X103802353Y-76815298D01*
X103802353Y-76815300D01*
X103799500Y-76845730D01*
X100500500Y-76845730D01*
X100500500Y-74896530D01*
X103799500Y-74896530D01*
X103799500Y-75103469D01*
X103839868Y-75306412D01*
X103839870Y-75306420D01*
X103919058Y-75497596D01*
X104034024Y-75669657D01*
X104180342Y-75815975D01*
X104180345Y-75815977D01*
X104352402Y-75930941D01*
X104543580Y-76010130D01*
X104708795Y-76042993D01*
X104746530Y-76050499D01*
X104746534Y-76050500D01*
X104746535Y-76050500D01*
X105203466Y-76050500D01*
X105203467Y-76050499D01*
X105406420Y-76010130D01*
X105597598Y-75930941D01*
X105769655Y-75815977D01*
X105915977Y-75669655D01*
X106030941Y-75497598D01*
X106110130Y-75306420D01*
X106150500Y-75103465D01*
X106150500Y-74896535D01*
X106110130Y-74693580D01*
X106030941Y-74502402D01*
X105915977Y-74330345D01*
X105915975Y-74330342D01*
X105769657Y-74184024D01*
X105683626Y-74126541D01*
X105597598Y-74069059D01*
X105406420Y-73989870D01*
X105406412Y-73989868D01*
X105203469Y-73949500D01*
X105203465Y-73949500D01*
X104746535Y-73949500D01*
X104746530Y-73949500D01*
X104543587Y-73989868D01*
X104543579Y-73989870D01*
X104352403Y-74069058D01*
X104180342Y-74184024D01*
X104034024Y-74330342D01*
X103919058Y-74502403D01*
X103839870Y-74693579D01*
X103839868Y-74693587D01*
X103799500Y-74896530D01*
X100500500Y-74896530D01*
X100500500Y-67182678D01*
X103199500Y-67182678D01*
X103199500Y-71064562D01*
X103209739Y-71102775D01*
X103219979Y-71140991D01*
X103234727Y-71166533D01*
X103234729Y-71166536D01*
X103259539Y-71209510D01*
X103900522Y-71850493D01*
X103934007Y-71911816D01*
X103929023Y-71981508D01*
X103921264Y-71996676D01*
X103921929Y-71997032D01*
X103919059Y-72002400D01*
X103839870Y-72193579D01*
X103839868Y-72193587D01*
X103799500Y-72396530D01*
X103799500Y-72603469D01*
X103839868Y-72806412D01*
X103839870Y-72806420D01*
X103919058Y-72997596D01*
X104034024Y-73169657D01*
X104180342Y-73315975D01*
X104180345Y-73315977D01*
X104352402Y-73430941D01*
X104543580Y-73510130D01*
X104715421Y-73544311D01*
X104746530Y-73550499D01*
X104746534Y-73550500D01*
X104746535Y-73550500D01*
X105203466Y-73550500D01*
X105203467Y-73550499D01*
X105406420Y-73510130D01*
X105597598Y-73430941D01*
X105769655Y-73315977D01*
X105915977Y-73169655D01*
X106030941Y-72997598D01*
X106110130Y-72806420D01*
X106150500Y-72603465D01*
X106150500Y-72396535D01*
X106110130Y-72193580D01*
X106030941Y-72002402D01*
X105915977Y-71830345D01*
X105915975Y-71830342D01*
X105769657Y-71684024D01*
X105683626Y-71626541D01*
X105597598Y-71569059D01*
X105406420Y-71489870D01*
X105406412Y-71489868D01*
X105203469Y-71449500D01*
X105203465Y-71449500D01*
X104746535Y-71449500D01*
X104746530Y-71449500D01*
X104543587Y-71489868D01*
X104543580Y-71489870D01*
X104511415Y-71503193D01*
X104441946Y-71510661D01*
X104379467Y-71479385D01*
X104376283Y-71476312D01*
X103836819Y-70936848D01*
X103803334Y-70875525D01*
X103800500Y-70849167D01*
X103800500Y-70728936D01*
X103820185Y-70661897D01*
X103872989Y-70616142D01*
X103942147Y-70606198D01*
X104005703Y-70635223D01*
X104027604Y-70660048D01*
X104034023Y-70669656D01*
X104180342Y-70815975D01*
X104180345Y-70815977D01*
X104352402Y-70930941D01*
X104543580Y-71010130D01*
X104746530Y-71050499D01*
X104746534Y-71050500D01*
X104746535Y-71050500D01*
X105203466Y-71050500D01*
X105203467Y-71050499D01*
X105406420Y-71010130D01*
X105438582Y-70996807D01*
X105508048Y-70989338D01*
X105570528Y-71020611D01*
X105573716Y-71023687D01*
X112290489Y-77740460D01*
X112335504Y-77766449D01*
X112361183Y-77786154D01*
X112746584Y-78171555D01*
X112780069Y-78232878D01*
X112775085Y-78302570D01*
X112762006Y-78328126D01*
X112719058Y-78392403D01*
X112639870Y-78583579D01*
X112639868Y-78583587D01*
X112599500Y-78786530D01*
X112599500Y-78993469D01*
X112639868Y-79196412D01*
X112639870Y-79196420D01*
X112719058Y-79387596D01*
X112834024Y-79559657D01*
X112980342Y-79705975D01*
X112980345Y-79705977D01*
X113152402Y-79820941D01*
X113343580Y-79900130D01*
X113546530Y-79940499D01*
X113546534Y-79940500D01*
X113546535Y-79940500D01*
X113753466Y-79940500D01*
X113753467Y-79940499D01*
X113956420Y-79900130D01*
X114147598Y-79820941D01*
X114319655Y-79705977D01*
X114465977Y-79559655D01*
X114580941Y-79387598D01*
X114660130Y-79196420D01*
X114700500Y-78993465D01*
X114700500Y-78786535D01*
X114660130Y-78583580D01*
X114580941Y-78392402D01*
X114465977Y-78220345D01*
X114465975Y-78220342D01*
X114319657Y-78074024D01*
X114212466Y-78002402D01*
X114147598Y-77959059D01*
X114147593Y-77959057D01*
X113956420Y-77879870D01*
X113956412Y-77879868D01*
X113753469Y-77839500D01*
X113753465Y-77839500D01*
X113546535Y-77839500D01*
X113546530Y-77839500D01*
X113376273Y-77873366D01*
X113306681Y-77867139D01*
X113264401Y-77839430D01*
X112684514Y-77259542D01*
X112677814Y-77255674D01*
X112677811Y-77255672D01*
X112639492Y-77233548D01*
X112639486Y-77233542D01*
X112613814Y-77213843D01*
X106049477Y-70649506D01*
X106015992Y-70588183D01*
X106020976Y-70518491D01*
X106028753Y-70503329D01*
X106028072Y-70502965D01*
X106030935Y-70497605D01*
X106030941Y-70497598D01*
X106110130Y-70306420D01*
X106150500Y-70103465D01*
X106150500Y-69896535D01*
X106110130Y-69693580D01*
X106030941Y-69502402D01*
X105915977Y-69330345D01*
X105915975Y-69330342D01*
X105769657Y-69184024D01*
X105683626Y-69126541D01*
X105597598Y-69069059D01*
X105406420Y-68989870D01*
X105406412Y-68989868D01*
X105203469Y-68949500D01*
X105203465Y-68949500D01*
X104746535Y-68949500D01*
X104746530Y-68949500D01*
X104543587Y-68989868D01*
X104543579Y-68989870D01*
X104352403Y-69069058D01*
X104180342Y-69184024D01*
X104034025Y-69330341D01*
X104034022Y-69330345D01*
X104027602Y-69339954D01*
X103973989Y-69384759D01*
X103904664Y-69393466D01*
X103841637Y-69363311D01*
X103804918Y-69303868D01*
X103800500Y-69271063D01*
X103800500Y-68228936D01*
X103820185Y-68161897D01*
X103872989Y-68116142D01*
X103942147Y-68106198D01*
X104005703Y-68135223D01*
X104027604Y-68160048D01*
X104034023Y-68169656D01*
X104180342Y-68315975D01*
X104180345Y-68315977D01*
X104352402Y-68430941D01*
X104543580Y-68510130D01*
X104746530Y-68550499D01*
X104746534Y-68550500D01*
X104746535Y-68550500D01*
X105203466Y-68550500D01*
X105203467Y-68550499D01*
X105406420Y-68510130D01*
X105456260Y-68489484D01*
X105525729Y-68482016D01*
X105588208Y-68513291D01*
X105591394Y-68516365D01*
X112730562Y-75655533D01*
X112764047Y-75716856D01*
X112759063Y-75786548D01*
X112745985Y-75812102D01*
X112719058Y-75852402D01*
X112639870Y-76043579D01*
X112639868Y-76043587D01*
X112599500Y-76246530D01*
X112599500Y-76453469D01*
X112639868Y-76656412D01*
X112639870Y-76656420D01*
X112719058Y-76847596D01*
X112834024Y-77019657D01*
X112980342Y-77165975D01*
X112980345Y-77165977D01*
X113152402Y-77280941D01*
X113343580Y-77360130D01*
X113546530Y-77400499D01*
X113546534Y-77400500D01*
X113546535Y-77400500D01*
X113753466Y-77400500D01*
X113753467Y-77400499D01*
X113956420Y-77360130D01*
X114147598Y-77280941D01*
X114319655Y-77165977D01*
X114465977Y-77019655D01*
X114580941Y-76847598D01*
X114660130Y-76656420D01*
X114700500Y-76453465D01*
X114700500Y-76246535D01*
X114700500Y-76246532D01*
X114700499Y-76246531D01*
X114700499Y-76246530D01*
X114699947Y-76243753D01*
X125000000Y-76243753D01*
X125000000Y-76456246D01*
X125033242Y-76666127D01*
X125033242Y-76666130D01*
X125098904Y-76868217D01*
X125195375Y-77057550D01*
X125234728Y-77111716D01*
X125867037Y-76479408D01*
X125884075Y-76542993D01*
X125949901Y-76657007D01*
X126042993Y-76750099D01*
X126157007Y-76815925D01*
X126220590Y-76832962D01*
X125588282Y-77465269D01*
X125588282Y-77465270D01*
X125642449Y-77504624D01*
X125831782Y-77601095D01*
X126007973Y-77658343D01*
X126065648Y-77697780D01*
X126092847Y-77762139D01*
X126080932Y-77830985D01*
X126033688Y-77882461D01*
X126017108Y-77890835D01*
X125852403Y-77959057D01*
X125680342Y-78074024D01*
X125534024Y-78220342D01*
X125419058Y-78392403D01*
X125339870Y-78583579D01*
X125339868Y-78583587D01*
X125299500Y-78786530D01*
X125299500Y-78993469D01*
X125339868Y-79196412D01*
X125339870Y-79196420D01*
X125419058Y-79387596D01*
X125534024Y-79559657D01*
X125680342Y-79705975D01*
X125680345Y-79705977D01*
X125852402Y-79820941D01*
X126043580Y-79900130D01*
X126246530Y-79940499D01*
X126246534Y-79940500D01*
X126246535Y-79940500D01*
X126453466Y-79940500D01*
X126453467Y-79940499D01*
X126656420Y-79900130D01*
X126847598Y-79820941D01*
X127019655Y-79705977D01*
X127165977Y-79559655D01*
X127280941Y-79387598D01*
X127360130Y-79196420D01*
X127400500Y-78993465D01*
X127400500Y-78786535D01*
X127360130Y-78583580D01*
X127280941Y-78392402D01*
X127165977Y-78220345D01*
X127165975Y-78220342D01*
X127019657Y-78074024D01*
X126912466Y-78002402D01*
X126847598Y-77959059D01*
X126847593Y-77959057D01*
X126785891Y-77933499D01*
X126682890Y-77890834D01*
X126628488Y-77846994D01*
X126606423Y-77780700D01*
X126623702Y-77713001D01*
X126674839Y-77665390D01*
X126692026Y-77658343D01*
X126868217Y-77601095D01*
X127057554Y-77504622D01*
X127111716Y-77465270D01*
X127111717Y-77465270D01*
X126479408Y-76832962D01*
X126542993Y-76815925D01*
X126657007Y-76750099D01*
X126750099Y-76657007D01*
X126815925Y-76542993D01*
X126832962Y-76479408D01*
X127465270Y-77111717D01*
X127465270Y-77111716D01*
X127504622Y-77057554D01*
X127601095Y-76868217D01*
X127666757Y-76666130D01*
X127666757Y-76666127D01*
X127700000Y-76456246D01*
X127700000Y-76450019D01*
X127719685Y-76382980D01*
X127772489Y-76337225D01*
X127841647Y-76327281D01*
X127905203Y-76356306D01*
X127911681Y-76362338D01*
X129366704Y-77817361D01*
X129382123Y-77836149D01*
X129411337Y-77879870D01*
X129455887Y-77946545D01*
X129455888Y-77946546D01*
X132263181Y-80753838D01*
X132296666Y-80815161D01*
X132299500Y-80841519D01*
X132299500Y-81431006D01*
X132299500Y-81568994D01*
X132299500Y-81568996D01*
X132299499Y-81568996D01*
X132326418Y-81704322D01*
X132326421Y-81704332D01*
X132379222Y-81831807D01*
X132455887Y-81946545D01*
X132455888Y-81946546D01*
X133813181Y-83303838D01*
X133846666Y-83365161D01*
X133849500Y-83391519D01*
X133849500Y-83603469D01*
X133889868Y-83806412D01*
X133889870Y-83806420D01*
X133969058Y-83997596D01*
X134084024Y-84169657D01*
X134230342Y-84315975D01*
X134230345Y-84315977D01*
X134402402Y-84430941D01*
X134593580Y-84510130D01*
X134796530Y-84550499D01*
X134796534Y-84550500D01*
X134796535Y-84550500D01*
X135253466Y-84550500D01*
X135253467Y-84550499D01*
X135456420Y-84510130D01*
X135647598Y-84430941D01*
X135819655Y-84315977D01*
X135965977Y-84169655D01*
X136080941Y-83997598D01*
X136160130Y-83806420D01*
X136200500Y-83603465D01*
X136200500Y-83396535D01*
X136160130Y-83193580D01*
X136080941Y-83002402D01*
X135965977Y-82830345D01*
X135965975Y-82830342D01*
X135819657Y-82684024D01*
X135733626Y-82626541D01*
X135647598Y-82569059D01*
X135456420Y-82489870D01*
X135456412Y-82489868D01*
X135253469Y-82449500D01*
X135253465Y-82449500D01*
X134991519Y-82449500D01*
X134962078Y-82440855D01*
X134932092Y-82434332D01*
X134927076Y-82430577D01*
X134924480Y-82429815D01*
X134903838Y-82413181D01*
X134752838Y-82262181D01*
X134719353Y-82200858D01*
X134724337Y-82131166D01*
X134766209Y-82075233D01*
X134831673Y-82050816D01*
X134840519Y-82050500D01*
X135253466Y-82050500D01*
X135253467Y-82050499D01*
X135456420Y-82010130D01*
X135647598Y-81930941D01*
X135819655Y-81815977D01*
X135965977Y-81669655D01*
X136080941Y-81497598D01*
X136160130Y-81306420D01*
X136200500Y-81103465D01*
X136200500Y-80896535D01*
X136160130Y-80693580D01*
X136080941Y-80502402D01*
X135965977Y-80330345D01*
X135965975Y-80330342D01*
X135819657Y-80184024D01*
X135733626Y-80126541D01*
X135647598Y-80069059D01*
X135609924Y-80053454D01*
X135456420Y-79989870D01*
X135456412Y-79989868D01*
X135253469Y-79949500D01*
X135253465Y-79949500D01*
X134796535Y-79949500D01*
X134796530Y-79949500D01*
X134593587Y-79989868D01*
X134593579Y-79989870D01*
X134402403Y-80069058D01*
X134230342Y-80184024D01*
X134084024Y-80330342D01*
X133969058Y-80502403D01*
X133939061Y-80574823D01*
X133895220Y-80629226D01*
X133828926Y-80651291D01*
X133761226Y-80634012D01*
X133713616Y-80582874D01*
X133700500Y-80527370D01*
X133700500Y-80431004D01*
X133673581Y-80295677D01*
X133673580Y-80295676D01*
X133673580Y-80295672D01*
X133673578Y-80295667D01*
X133620777Y-80168192D01*
X133544112Y-80053454D01*
X133544111Y-80053453D01*
X131968781Y-78478124D01*
X131887187Y-78396530D01*
X133849500Y-78396530D01*
X133849500Y-78603469D01*
X133889868Y-78806412D01*
X133889870Y-78806420D01*
X133969058Y-78997596D01*
X134084024Y-79169657D01*
X134230342Y-79315975D01*
X134230345Y-79315977D01*
X134402402Y-79430941D01*
X134593580Y-79510130D01*
X134796530Y-79550499D01*
X134796534Y-79550500D01*
X134796535Y-79550500D01*
X135253466Y-79550500D01*
X135253467Y-79550499D01*
X135456420Y-79510130D01*
X135647598Y-79430941D01*
X135819655Y-79315977D01*
X135965977Y-79169655D01*
X136080941Y-78997598D01*
X136160130Y-78806420D01*
X136200500Y-78603465D01*
X136200500Y-78396535D01*
X136160130Y-78193580D01*
X136080941Y-78002402D01*
X135965977Y-77830345D01*
X135965975Y-77830342D01*
X135819657Y-77684024D01*
X135733626Y-77626541D01*
X135647598Y-77569059D01*
X135456420Y-77489870D01*
X135456412Y-77489868D01*
X135253469Y-77449500D01*
X135253465Y-77449500D01*
X134796535Y-77449500D01*
X134796530Y-77449500D01*
X134593587Y-77489868D01*
X134593579Y-77489870D01*
X134402403Y-77569058D01*
X134230342Y-77684024D01*
X134084024Y-77830342D01*
X133969058Y-78002403D01*
X133889870Y-78193579D01*
X133889868Y-78193587D01*
X133849500Y-78396530D01*
X131887187Y-78396530D01*
X130633296Y-77142639D01*
X130617875Y-77123848D01*
X130568865Y-77050499D01*
X130568865Y-77050500D01*
X130544112Y-77013454D01*
X129427188Y-75896530D01*
X133849500Y-75896530D01*
X133849500Y-76103469D01*
X133889868Y-76306412D01*
X133889870Y-76306420D01*
X133969058Y-76497596D01*
X134084024Y-76669657D01*
X134230342Y-76815975D01*
X134230345Y-76815977D01*
X134402402Y-76930941D01*
X134593580Y-77010130D01*
X134796530Y-77050499D01*
X134796534Y-77050500D01*
X134796535Y-77050500D01*
X135253466Y-77050500D01*
X135253467Y-77050499D01*
X135456420Y-77010130D01*
X135647598Y-76930941D01*
X135819655Y-76815977D01*
X135965977Y-76669655D01*
X136080941Y-76497598D01*
X136160130Y-76306420D01*
X136200500Y-76103465D01*
X136200500Y-75896535D01*
X136160130Y-75693580D01*
X136080941Y-75502402D01*
X135965977Y-75330345D01*
X135965975Y-75330342D01*
X135819657Y-75184024D01*
X135733626Y-75126541D01*
X135647598Y-75069059D01*
X135456420Y-74989870D01*
X135456412Y-74989868D01*
X135253469Y-74949500D01*
X135253465Y-74949500D01*
X134796535Y-74949500D01*
X134796530Y-74949500D01*
X134593587Y-74989868D01*
X134593579Y-74989870D01*
X134402403Y-75069058D01*
X134230342Y-75184024D01*
X134084024Y-75330342D01*
X133969058Y-75502403D01*
X133889870Y-75693579D01*
X133889868Y-75693587D01*
X133849500Y-75896530D01*
X129427188Y-75896530D01*
X127436819Y-73906161D01*
X127424709Y-73883983D01*
X127409177Y-73864049D01*
X127406688Y-73850981D01*
X127403334Y-73844838D01*
X127401010Y-73829713D01*
X127400500Y-73824106D01*
X127400500Y-73706535D01*
X127380794Y-73607467D01*
X127380201Y-73600944D01*
X127385747Y-73572843D01*
X127388301Y-73544311D01*
X127392429Y-73538996D01*
X127393732Y-73532397D01*
X127413589Y-73511757D01*
X127431164Y-73489134D01*
X127437509Y-73486895D01*
X127442174Y-73482047D01*
X127470040Y-73475418D01*
X127497053Y-73465889D01*
X127503600Y-73467436D01*
X127510147Y-73465879D01*
X127537175Y-73475369D01*
X127565050Y-73481956D01*
X127572829Y-73487888D01*
X127576071Y-73489027D01*
X127578632Y-73492314D01*
X127591372Y-73502030D01*
X128133454Y-74044112D01*
X128248190Y-74120776D01*
X128329043Y-74154266D01*
X128375671Y-74173580D01*
X128375672Y-74173580D01*
X128375677Y-74173582D01*
X128402545Y-74178925D01*
X128402551Y-74178926D01*
X128402591Y-74178934D01*
X128492937Y-74196905D01*
X128511006Y-74200500D01*
X128511007Y-74200500D01*
X133769901Y-74200500D01*
X133836940Y-74220185D01*
X133882695Y-74272989D01*
X133886934Y-74283525D01*
X133897207Y-74312882D01*
X133977850Y-74422150D01*
X134087118Y-74502793D01*
X134129845Y-74517744D01*
X134215299Y-74547646D01*
X134245730Y-74550500D01*
X134245734Y-74550500D01*
X135804270Y-74550500D01*
X135834699Y-74547646D01*
X135834701Y-74547646D01*
X135898790Y-74525219D01*
X135962882Y-74502793D01*
X136072150Y-74422150D01*
X136152793Y-74312882D01*
X136185229Y-74220185D01*
X136197646Y-74184701D01*
X136197646Y-74184699D01*
X136200500Y-74154269D01*
X136200500Y-72845730D01*
X136197646Y-72815300D01*
X136197646Y-72815298D01*
X136152793Y-72687119D01*
X136152792Y-72687117D01*
X136072150Y-72577850D01*
X135962882Y-72497207D01*
X135962880Y-72497206D01*
X135834700Y-72452353D01*
X135804270Y-72449500D01*
X135804266Y-72449500D01*
X134245734Y-72449500D01*
X134245730Y-72449500D01*
X134215300Y-72452353D01*
X134215298Y-72452353D01*
X134087119Y-72497206D01*
X134087117Y-72497207D01*
X133977850Y-72577850D01*
X133939399Y-72629950D01*
X133897207Y-72687118D01*
X133886940Y-72716456D01*
X133846221Y-72773230D01*
X133781269Y-72798978D01*
X133769901Y-72799500D01*
X128921519Y-72799500D01*
X128854480Y-72779815D01*
X128833838Y-72763181D01*
X127436819Y-71366162D01*
X127403334Y-71304839D01*
X127400500Y-71278481D01*
X127400500Y-71166533D01*
X127400499Y-71166530D01*
X127371474Y-71020611D01*
X127360130Y-70963580D01*
X127280941Y-70772402D01*
X127165977Y-70600345D01*
X127165975Y-70600342D01*
X127019657Y-70454024D01*
X126933626Y-70396541D01*
X126847598Y-70339059D01*
X126656420Y-70259870D01*
X126656412Y-70259868D01*
X126453469Y-70219500D01*
X126453465Y-70219500D01*
X126246535Y-70219500D01*
X126246530Y-70219500D01*
X126043587Y-70259868D01*
X126043579Y-70259870D01*
X125852403Y-70339058D01*
X125680342Y-70454024D01*
X125534024Y-70600342D01*
X125419058Y-70772403D01*
X125339870Y-70963579D01*
X125339868Y-70963587D01*
X125299500Y-71166530D01*
X125299500Y-71373469D01*
X125339868Y-71576412D01*
X125339870Y-71576420D01*
X125419058Y-71767596D01*
X125534024Y-71939657D01*
X125680342Y-72085975D01*
X125680345Y-72085977D01*
X125852402Y-72200941D01*
X126043580Y-72280130D01*
X126246530Y-72320499D01*
X126246534Y-72320500D01*
X126246535Y-72320500D01*
X126358481Y-72320500D01*
X126425520Y-72340185D01*
X126446162Y-72356819D01*
X126657970Y-72568627D01*
X126691455Y-72629950D01*
X126686471Y-72699642D01*
X126644599Y-72755575D01*
X126579135Y-72779992D01*
X126546098Y-72777925D01*
X126453469Y-72759500D01*
X126453465Y-72759500D01*
X126246535Y-72759500D01*
X126246530Y-72759500D01*
X126043587Y-72799868D01*
X126043579Y-72799870D01*
X125852403Y-72879058D01*
X125680342Y-72994024D01*
X125534024Y-73140342D01*
X125419058Y-73312403D01*
X125339870Y-73503579D01*
X125339868Y-73503587D01*
X125299500Y-73706530D01*
X125299500Y-73913469D01*
X125330449Y-74069058D01*
X125339870Y-74116420D01*
X125419059Y-74307598D01*
X125434256Y-74330342D01*
X125534024Y-74479657D01*
X125680342Y-74625975D01*
X125852405Y-74740943D01*
X125955043Y-74783456D01*
X126017108Y-74809164D01*
X126071511Y-74853005D01*
X126093576Y-74919299D01*
X126076297Y-74986998D01*
X126025160Y-75034609D01*
X126007974Y-75041656D01*
X125831781Y-75098905D01*
X125642439Y-75195380D01*
X125588282Y-75234727D01*
X125588282Y-75234728D01*
X126220591Y-75867037D01*
X126157007Y-75884075D01*
X126042993Y-75949901D01*
X125949901Y-76042993D01*
X125884075Y-76157007D01*
X125867037Y-76220591D01*
X125234728Y-75588282D01*
X125234727Y-75588282D01*
X125195380Y-75642439D01*
X125098904Y-75831782D01*
X125033242Y-76033869D01*
X125033242Y-76033872D01*
X125000000Y-76243753D01*
X114699947Y-76243753D01*
X114660130Y-76043580D01*
X114580941Y-75852402D01*
X114465977Y-75680345D01*
X114465975Y-75680342D01*
X114319657Y-75534024D01*
X114233626Y-75476541D01*
X114147598Y-75419059D01*
X113956420Y-75339870D01*
X113956412Y-75339868D01*
X113753469Y-75299500D01*
X113753465Y-75299500D01*
X113546535Y-75299500D01*
X113453120Y-75318081D01*
X113342909Y-75340003D01*
X113273317Y-75333775D01*
X113231037Y-75306066D01*
X111631501Y-73706530D01*
X112599500Y-73706530D01*
X112599500Y-73913469D01*
X112630449Y-74069058D01*
X112639870Y-74116420D01*
X112719059Y-74307598D01*
X112734256Y-74330342D01*
X112834024Y-74479657D01*
X112980342Y-74625975D01*
X112980345Y-74625977D01*
X113152402Y-74740941D01*
X113343580Y-74820130D01*
X113508855Y-74853005D01*
X113546530Y-74860499D01*
X113546534Y-74860500D01*
X113546535Y-74860500D01*
X113753466Y-74860500D01*
X113753467Y-74860499D01*
X113956420Y-74820130D01*
X114147598Y-74740941D01*
X114319655Y-74625977D01*
X114465977Y-74479655D01*
X114580941Y-74307598D01*
X114660130Y-74116420D01*
X114700500Y-73913465D01*
X114700500Y-73706535D01*
X114660130Y-73503580D01*
X114580941Y-73312402D01*
X114465977Y-73140345D01*
X114465975Y-73140342D01*
X114319657Y-72994024D01*
X114233626Y-72936541D01*
X114147598Y-72879059D01*
X113956420Y-72799870D01*
X113956412Y-72799868D01*
X113753469Y-72759500D01*
X113753465Y-72759500D01*
X113546535Y-72759500D01*
X113546530Y-72759500D01*
X113343587Y-72799868D01*
X113343579Y-72799870D01*
X113152403Y-72879058D01*
X112980342Y-72994024D01*
X112834024Y-73140342D01*
X112719058Y-73312403D01*
X112639870Y-73503579D01*
X112639868Y-73503587D01*
X112599500Y-73706530D01*
X111631501Y-73706530D01*
X109091501Y-71166530D01*
X112599500Y-71166530D01*
X112599500Y-71373469D01*
X112639868Y-71576412D01*
X112639870Y-71576420D01*
X112719058Y-71767596D01*
X112834024Y-71939657D01*
X112980342Y-72085975D01*
X112980345Y-72085977D01*
X113152402Y-72200941D01*
X113343580Y-72280130D01*
X113546530Y-72320499D01*
X113546534Y-72320500D01*
X113546535Y-72320500D01*
X113753466Y-72320500D01*
X113753467Y-72320499D01*
X113956420Y-72280130D01*
X114147598Y-72200941D01*
X114319655Y-72085977D01*
X114465977Y-71939655D01*
X114580941Y-71767598D01*
X114660130Y-71576420D01*
X114700500Y-71373465D01*
X114700500Y-71166535D01*
X114660130Y-70963580D01*
X114580941Y-70772402D01*
X114465977Y-70600345D01*
X114465975Y-70600342D01*
X114319657Y-70454024D01*
X114233626Y-70396541D01*
X114147598Y-70339059D01*
X113956420Y-70259870D01*
X113956412Y-70259868D01*
X113753469Y-70219500D01*
X113753465Y-70219500D01*
X113546535Y-70219500D01*
X113546530Y-70219500D01*
X113343587Y-70259868D01*
X113343579Y-70259870D01*
X113152403Y-70339058D01*
X112980342Y-70454024D01*
X112834024Y-70600342D01*
X112719058Y-70772403D01*
X112639870Y-70963579D01*
X112639868Y-70963587D01*
X112599500Y-71166530D01*
X109091501Y-71166530D01*
X106551501Y-68626530D01*
X112599500Y-68626530D01*
X112599500Y-68833469D01*
X112639868Y-69036412D01*
X112639870Y-69036420D01*
X112719058Y-69227596D01*
X112834024Y-69399657D01*
X112980342Y-69545975D01*
X112980345Y-69545977D01*
X113152402Y-69660941D01*
X113343580Y-69740130D01*
X113546530Y-69780499D01*
X113546534Y-69780500D01*
X113546535Y-69780500D01*
X113753466Y-69780500D01*
X113753467Y-69780499D01*
X113956420Y-69740130D01*
X114147598Y-69660941D01*
X114319655Y-69545977D01*
X114465977Y-69399655D01*
X114580941Y-69227598D01*
X114660130Y-69036420D01*
X114700500Y-68833465D01*
X114700500Y-68626535D01*
X114660130Y-68423580D01*
X114580941Y-68232402D01*
X114465977Y-68060345D01*
X114465975Y-68060342D01*
X114319657Y-67914024D01*
X114233626Y-67856541D01*
X114147598Y-67799059D01*
X113956420Y-67719870D01*
X113956412Y-67719868D01*
X113753469Y-67679500D01*
X113753465Y-67679500D01*
X113546535Y-67679500D01*
X113546530Y-67679500D01*
X113343587Y-67719868D01*
X113343579Y-67719870D01*
X113152403Y-67799058D01*
X112980342Y-67914024D01*
X112834024Y-68060342D01*
X112719058Y-68232403D01*
X112639870Y-68423579D01*
X112639868Y-68423587D01*
X112599500Y-68626530D01*
X106551501Y-68626530D01*
X106057786Y-68132815D01*
X106024301Y-68071492D01*
X106029285Y-68001800D01*
X106030906Y-67997681D01*
X106030939Y-67997600D01*
X106030941Y-67997598D01*
X106110130Y-67806420D01*
X106150500Y-67603465D01*
X106150500Y-67396535D01*
X106110130Y-67193580D01*
X106030941Y-67002402D01*
X105915977Y-66830345D01*
X105915975Y-66830342D01*
X105769658Y-66684025D01*
X105769653Y-66684021D01*
X105761544Y-66678603D01*
X105716738Y-66624992D01*
X105708029Y-66555667D01*
X105738183Y-66492639D01*
X105797626Y-66455919D01*
X105830433Y-66451500D01*
X108648560Y-66451500D01*
X108648562Y-66451500D01*
X108724989Y-66431021D01*
X108793511Y-66391460D01*
X108849460Y-66335511D01*
X109098441Y-66086530D01*
X112599500Y-66086530D01*
X112599500Y-66293469D01*
X112639868Y-66496412D01*
X112639870Y-66496420D01*
X112719058Y-66687596D01*
X112834024Y-66859657D01*
X112980342Y-67005975D01*
X112980345Y-67005977D01*
X113152402Y-67120941D01*
X113343580Y-67200130D01*
X113528029Y-67236819D01*
X113546530Y-67240499D01*
X113546534Y-67240500D01*
X113546535Y-67240500D01*
X113753466Y-67240500D01*
X113753467Y-67240499D01*
X113956420Y-67200130D01*
X114147598Y-67120941D01*
X114319655Y-67005977D01*
X114465977Y-66859655D01*
X114580941Y-66687598D01*
X114660130Y-66496420D01*
X114700500Y-66293465D01*
X114700500Y-66086535D01*
X114660130Y-65883580D01*
X114580941Y-65692402D01*
X114465977Y-65520345D01*
X114465975Y-65520342D01*
X114319657Y-65374024D01*
X114233005Y-65316126D01*
X114147598Y-65259059D01*
X113956420Y-65179870D01*
X113956412Y-65179868D01*
X113753469Y-65139500D01*
X113753465Y-65139500D01*
X113546535Y-65139500D01*
X113546530Y-65139500D01*
X113343587Y-65179868D01*
X113343579Y-65179870D01*
X113152403Y-65259058D01*
X112980342Y-65374024D01*
X112834024Y-65520342D01*
X112719058Y-65692403D01*
X112639870Y-65883579D01*
X112639868Y-65883587D01*
X112599500Y-66086530D01*
X109098441Y-66086530D01*
X111638441Y-63546530D01*
X112599500Y-63546530D01*
X112599500Y-63753469D01*
X112639868Y-63956412D01*
X112639870Y-63956420D01*
X112719058Y-64147596D01*
X112834024Y-64319657D01*
X112980342Y-64465975D01*
X112980345Y-64465977D01*
X113152402Y-64580941D01*
X113343580Y-64660130D01*
X113546530Y-64700499D01*
X113546534Y-64700500D01*
X113546535Y-64700500D01*
X113753466Y-64700500D01*
X113753467Y-64700499D01*
X113956420Y-64660130D01*
X114147598Y-64580941D01*
X114319655Y-64465977D01*
X114465977Y-64319655D01*
X114580941Y-64147598D01*
X114660130Y-63956420D01*
X114700500Y-63753465D01*
X114700500Y-63546535D01*
X114700499Y-63546530D01*
X125299500Y-63546530D01*
X125299500Y-63753469D01*
X125339868Y-63956412D01*
X125339870Y-63956420D01*
X125419058Y-64147596D01*
X125534024Y-64319657D01*
X125680342Y-64465975D01*
X125680345Y-64465977D01*
X125852402Y-64580941D01*
X126043580Y-64660130D01*
X126246530Y-64700499D01*
X126246534Y-64700500D01*
X126246535Y-64700500D01*
X126453466Y-64700500D01*
X126453466Y-64700499D01*
X126546098Y-64682074D01*
X126615689Y-64688301D01*
X126670866Y-64731164D01*
X126694111Y-64797053D01*
X126678044Y-64865050D01*
X126657970Y-64891372D01*
X126446162Y-65103181D01*
X126384839Y-65136666D01*
X126358481Y-65139500D01*
X126246530Y-65139500D01*
X126043587Y-65179868D01*
X126043579Y-65179870D01*
X125852403Y-65259058D01*
X125680342Y-65374024D01*
X125534024Y-65520342D01*
X125419058Y-65692403D01*
X125339870Y-65883579D01*
X125339868Y-65883587D01*
X125299500Y-66086530D01*
X125299500Y-66293469D01*
X125339868Y-66496412D01*
X125339870Y-66496420D01*
X125419058Y-66687596D01*
X125534024Y-66859657D01*
X125680342Y-67005975D01*
X125680345Y-67005977D01*
X125852402Y-67120941D01*
X126043580Y-67200130D01*
X126228029Y-67236819D01*
X126246530Y-67240499D01*
X126246534Y-67240500D01*
X126246535Y-67240500D01*
X126453466Y-67240500D01*
X126453466Y-67240499D01*
X126546098Y-67222074D01*
X126615689Y-67228301D01*
X126670866Y-67271164D01*
X126694111Y-67337053D01*
X126678044Y-67405050D01*
X126657970Y-67431372D01*
X126446162Y-67643181D01*
X126384839Y-67676666D01*
X126358481Y-67679500D01*
X126246530Y-67679500D01*
X126043587Y-67719868D01*
X126043579Y-67719870D01*
X125852403Y-67799058D01*
X125680342Y-67914024D01*
X125534024Y-68060342D01*
X125419058Y-68232403D01*
X125339870Y-68423579D01*
X125339868Y-68423587D01*
X125299500Y-68626530D01*
X125299500Y-68833469D01*
X125339868Y-69036412D01*
X125339870Y-69036420D01*
X125419058Y-69227596D01*
X125534024Y-69399657D01*
X125680342Y-69545975D01*
X125680345Y-69545977D01*
X125852402Y-69660941D01*
X126043580Y-69740130D01*
X126246530Y-69780499D01*
X126246534Y-69780500D01*
X126246535Y-69780500D01*
X126453466Y-69780500D01*
X126453467Y-69780499D01*
X126656420Y-69740130D01*
X126847598Y-69660941D01*
X127019655Y-69545977D01*
X127165977Y-69399655D01*
X127280941Y-69227598D01*
X127360130Y-69036420D01*
X127400500Y-68833465D01*
X127400500Y-68721519D01*
X127420185Y-68654480D01*
X127436819Y-68633838D01*
X128833838Y-67236819D01*
X128895161Y-67203334D01*
X128921519Y-67200500D01*
X134038506Y-67200500D01*
X134105545Y-67220185D01*
X134126182Y-67236814D01*
X134205345Y-67315977D01*
X134377402Y-67430941D01*
X134568580Y-67510130D01*
X134771530Y-67550499D01*
X134771534Y-67550500D01*
X134771535Y-67550500D01*
X135228466Y-67550500D01*
X135228467Y-67550499D01*
X135431420Y-67510130D01*
X135622598Y-67430941D01*
X135794655Y-67315977D01*
X135940977Y-67169655D01*
X136055941Y-66997598D01*
X136135130Y-66806420D01*
X136175500Y-66603465D01*
X136175500Y-66396535D01*
X136135130Y-66193580D01*
X136055941Y-66002402D01*
X135940977Y-65830345D01*
X135940975Y-65830342D01*
X135794657Y-65684024D01*
X135708626Y-65626541D01*
X135622598Y-65569059D01*
X135504985Y-65520342D01*
X135431420Y-65489870D01*
X135431412Y-65489868D01*
X135228469Y-65449500D01*
X135228465Y-65449500D01*
X134771535Y-65449500D01*
X134771530Y-65449500D01*
X134568587Y-65489868D01*
X134568579Y-65489870D01*
X134377403Y-65569058D01*
X134377402Y-65569059D01*
X134205345Y-65684023D01*
X134126185Y-65763182D01*
X134064865Y-65796666D01*
X134038506Y-65799500D01*
X128511003Y-65799500D01*
X128402590Y-65821065D01*
X128402589Y-65821065D01*
X128375671Y-65826420D01*
X128248190Y-65879224D01*
X128133454Y-65955887D01*
X127591372Y-66497969D01*
X127567168Y-66511185D01*
X127544773Y-66527285D01*
X127536935Y-66527693D01*
X127530049Y-66531454D01*
X127502542Y-66529486D01*
X127474998Y-66530923D01*
X127468184Y-66527029D01*
X127460357Y-66526470D01*
X127438279Y-66509942D01*
X127414333Y-66496260D01*
X127410705Y-66489300D01*
X127404424Y-66484598D01*
X127394786Y-66458760D01*
X127382038Y-66434301D01*
X127382045Y-66424598D01*
X127380007Y-66419134D01*
X127380201Y-66399055D01*
X127380794Y-66392533D01*
X127400500Y-66293465D01*
X127400500Y-66175892D01*
X127401010Y-66170286D01*
X127411864Y-66142814D01*
X127420185Y-66114480D01*
X127425828Y-66107477D01*
X127426686Y-66105306D01*
X127428805Y-66103782D01*
X127436819Y-66093838D01*
X129634127Y-63896530D01*
X133824500Y-63896530D01*
X133824500Y-64103469D01*
X133864868Y-64306412D01*
X133864870Y-64306420D01*
X133944059Y-64497598D01*
X133983997Y-64557370D01*
X134059024Y-64669657D01*
X134205342Y-64815975D01*
X134205345Y-64815977D01*
X134377402Y-64930941D01*
X134568580Y-65010130D01*
X134771530Y-65050499D01*
X134771534Y-65050500D01*
X134771535Y-65050500D01*
X135228466Y-65050500D01*
X135228467Y-65050499D01*
X135431420Y-65010130D01*
X135622598Y-64930941D01*
X135794655Y-64815977D01*
X135940977Y-64669655D01*
X136055941Y-64497598D01*
X136135130Y-64306420D01*
X136175500Y-64103465D01*
X136175500Y-63896535D01*
X136135130Y-63693580D01*
X136055941Y-63502402D01*
X135940977Y-63330345D01*
X135940975Y-63330342D01*
X135794657Y-63184024D01*
X135708626Y-63126541D01*
X135622598Y-63069059D01*
X135431420Y-62989870D01*
X135431412Y-62989868D01*
X135228469Y-62949500D01*
X135228465Y-62949500D01*
X134771535Y-62949500D01*
X134771530Y-62949500D01*
X134568587Y-62989868D01*
X134568579Y-62989870D01*
X134377403Y-63069058D01*
X134205342Y-63184024D01*
X134059024Y-63330342D01*
X133944058Y-63502403D01*
X133864870Y-63693579D01*
X133864868Y-63693587D01*
X133824500Y-63896530D01*
X129634127Y-63896530D01*
X129727895Y-63802762D01*
X132134128Y-61396530D01*
X133824500Y-61396530D01*
X133824500Y-61603469D01*
X133864868Y-61806412D01*
X133864870Y-61806420D01*
X133944058Y-61997596D01*
X134059024Y-62169657D01*
X134205342Y-62315975D01*
X134205345Y-62315977D01*
X134377402Y-62430941D01*
X134568580Y-62510130D01*
X134771530Y-62550499D01*
X134771534Y-62550500D01*
X134771535Y-62550500D01*
X135228466Y-62550500D01*
X135228467Y-62550499D01*
X135431420Y-62510130D01*
X135622598Y-62430941D01*
X135794655Y-62315977D01*
X135940977Y-62169655D01*
X136055941Y-61997598D01*
X136135130Y-61806420D01*
X136175500Y-61603465D01*
X136175500Y-61396535D01*
X136135130Y-61193580D01*
X136055941Y-61002402D01*
X135940977Y-60830345D01*
X135940975Y-60830342D01*
X135794657Y-60684024D01*
X135687466Y-60612402D01*
X135622598Y-60569059D01*
X135431420Y-60489870D01*
X135431412Y-60489868D01*
X135228469Y-60449500D01*
X135228465Y-60449500D01*
X134771535Y-60449500D01*
X134771530Y-60449500D01*
X134568587Y-60489868D01*
X134568579Y-60489870D01*
X134377403Y-60569058D01*
X134205342Y-60684024D01*
X134059024Y-60830342D01*
X133944058Y-61002403D01*
X133864870Y-61193579D01*
X133864868Y-61193587D01*
X133824500Y-61396530D01*
X132134128Y-61396530D01*
X132227896Y-61302762D01*
X133544111Y-59986546D01*
X133544112Y-59986545D01*
X133544114Y-59986543D01*
X133620775Y-59871811D01*
X133673580Y-59744329D01*
X133688433Y-59669655D01*
X133700500Y-59608993D01*
X133700500Y-59527423D01*
X133700997Y-59521891D01*
X133711846Y-59494343D01*
X133720185Y-59465946D01*
X133724505Y-59462202D01*
X133726601Y-59456881D01*
X133750623Y-59439570D01*
X133772989Y-59420191D01*
X133778647Y-59419377D01*
X133783287Y-59416034D01*
X133812850Y-59414459D01*
X133842147Y-59410247D01*
X133847347Y-59412622D01*
X133853058Y-59412318D01*
X133878778Y-59426975D01*
X133905703Y-59439272D01*
X133909434Y-59444446D01*
X133913762Y-59446913D01*
X133920476Y-59459760D01*
X133939061Y-59485533D01*
X133944057Y-59497594D01*
X133944059Y-59497598D01*
X133960291Y-59521891D01*
X134059022Y-59669654D01*
X134059025Y-59669658D01*
X134205342Y-59815975D01*
X134205345Y-59815977D01*
X134377402Y-59930941D01*
X134568580Y-60010130D01*
X134717818Y-60039815D01*
X134771530Y-60050499D01*
X134771534Y-60050500D01*
X134771535Y-60050500D01*
X135228466Y-60050500D01*
X135228467Y-60050499D01*
X135431420Y-60010130D01*
X135622598Y-59930941D01*
X135794655Y-59815977D01*
X135940977Y-59669655D01*
X136055941Y-59497598D01*
X136135130Y-59306420D01*
X136175500Y-59103465D01*
X136175500Y-58896535D01*
X136135130Y-58693580D01*
X136055941Y-58502402D01*
X135940977Y-58330345D01*
X135940975Y-58330342D01*
X135794657Y-58184024D01*
X135708626Y-58126541D01*
X135622598Y-58069059D01*
X135584924Y-58053454D01*
X135431420Y-57989870D01*
X135431412Y-57989868D01*
X135228469Y-57949500D01*
X135228465Y-57949500D01*
X134840519Y-57949500D01*
X134819273Y-57943261D01*
X134797185Y-57941682D01*
X134786401Y-57933609D01*
X134773480Y-57929815D01*
X134758980Y-57913081D01*
X134741252Y-57899810D01*
X134736544Y-57887189D01*
X134727725Y-57877011D01*
X134724573Y-57855093D01*
X134716835Y-57834346D01*
X134719697Y-57821185D01*
X134717781Y-57807853D01*
X134726980Y-57787709D01*
X134731687Y-57766073D01*
X134744955Y-57748347D01*
X134746806Y-57744297D01*
X134752838Y-57737819D01*
X134903838Y-57586819D01*
X134965161Y-57553334D01*
X134991519Y-57550500D01*
X135779270Y-57550500D01*
X135809699Y-57547646D01*
X135809701Y-57547646D01*
X135873790Y-57525219D01*
X135937882Y-57502793D01*
X136047150Y-57422150D01*
X136127793Y-57312882D01*
X136150219Y-57248790D01*
X136172646Y-57184701D01*
X136172646Y-57184699D01*
X136175500Y-57154269D01*
X136175500Y-55845730D01*
X136172646Y-55815300D01*
X136172646Y-55815298D01*
X136127793Y-55687119D01*
X136127792Y-55687117D01*
X136047150Y-55577850D01*
X135937882Y-55497207D01*
X135937880Y-55497206D01*
X135809700Y-55452353D01*
X135779270Y-55449500D01*
X135779266Y-55449500D01*
X134220734Y-55449500D01*
X134220730Y-55449500D01*
X134190300Y-55452353D01*
X134190298Y-55452353D01*
X134062119Y-55497206D01*
X134062117Y-55497207D01*
X133952850Y-55577850D01*
X133872207Y-55687117D01*
X133872206Y-55687119D01*
X133827353Y-55815298D01*
X133827353Y-55815300D01*
X133824500Y-55845730D01*
X133824500Y-56633480D01*
X133804815Y-56700519D01*
X133788181Y-56721161D01*
X132455888Y-58053453D01*
X132455887Y-58053454D01*
X132379222Y-58168192D01*
X132326421Y-58295667D01*
X132326418Y-58295677D01*
X132299500Y-58431004D01*
X132299500Y-59198481D01*
X132279815Y-59265520D01*
X132263181Y-59286162D01*
X127591372Y-63957970D01*
X127530049Y-63991455D01*
X127460357Y-63986471D01*
X127404424Y-63944599D01*
X127380007Y-63879135D01*
X127382074Y-63846097D01*
X127390694Y-63802762D01*
X127400500Y-63753465D01*
X127400500Y-63546535D01*
X127360130Y-63343580D01*
X127280941Y-63152402D01*
X127165977Y-62980345D01*
X127165975Y-62980342D01*
X127019657Y-62834024D01*
X126933626Y-62776541D01*
X126847598Y-62719059D01*
X126656420Y-62639870D01*
X126656412Y-62639868D01*
X126453469Y-62599500D01*
X126453465Y-62599500D01*
X126246535Y-62599500D01*
X126246530Y-62599500D01*
X126043587Y-62639868D01*
X126043579Y-62639870D01*
X125852403Y-62719058D01*
X125680342Y-62834024D01*
X125534024Y-62980342D01*
X125419058Y-63152403D01*
X125339870Y-63343579D01*
X125339868Y-63343587D01*
X125299500Y-63546530D01*
X114700499Y-63546530D01*
X114660130Y-63343580D01*
X114580941Y-63152402D01*
X114465977Y-62980345D01*
X114465975Y-62980342D01*
X114319657Y-62834024D01*
X114233626Y-62776541D01*
X114147598Y-62719059D01*
X113956420Y-62639870D01*
X113956412Y-62639868D01*
X113753469Y-62599500D01*
X113753465Y-62599500D01*
X113546535Y-62599500D01*
X113546530Y-62599500D01*
X113343587Y-62639868D01*
X113343579Y-62639870D01*
X113152403Y-62719058D01*
X112980342Y-62834024D01*
X112834024Y-62980342D01*
X112719058Y-63152403D01*
X112639870Y-63343579D01*
X112639868Y-63343587D01*
X112599500Y-63546530D01*
X111638441Y-63546530D01*
X112988152Y-62196819D01*
X113049475Y-62163334D01*
X113075833Y-62160500D01*
X114519750Y-62160500D01*
X114519751Y-62160499D01*
X114534568Y-62157552D01*
X114578229Y-62148868D01*
X114578229Y-62148867D01*
X114578231Y-62148867D01*
X114644552Y-62104552D01*
X114688867Y-62038231D01*
X114688867Y-62038229D01*
X114688868Y-62038229D01*
X114700499Y-61979752D01*
X114700500Y-61979750D01*
X114700500Y-61006530D01*
X115139500Y-61006530D01*
X115139500Y-61213469D01*
X115179868Y-61416412D01*
X115179870Y-61416420D01*
X115259058Y-61607596D01*
X115374024Y-61779657D01*
X115520342Y-61925975D01*
X115520345Y-61925977D01*
X115692402Y-62040941D01*
X115883580Y-62120130D01*
X116028052Y-62148867D01*
X116086530Y-62160499D01*
X116086534Y-62160500D01*
X116086535Y-62160500D01*
X116293466Y-62160500D01*
X116293467Y-62160499D01*
X116496420Y-62120130D01*
X116687598Y-62040941D01*
X116859655Y-61925977D01*
X117005977Y-61779655D01*
X117120941Y-61607598D01*
X117200130Y-61416420D01*
X117240500Y-61213465D01*
X117240500Y-61006535D01*
X117240499Y-61006530D01*
X117679500Y-61006530D01*
X117679500Y-61213469D01*
X117719868Y-61416412D01*
X117719870Y-61416420D01*
X117799058Y-61607596D01*
X117914024Y-61779657D01*
X118060342Y-61925975D01*
X118060345Y-61925977D01*
X118232402Y-62040941D01*
X118423580Y-62120130D01*
X118568052Y-62148867D01*
X118626530Y-62160499D01*
X118626534Y-62160500D01*
X118626535Y-62160500D01*
X118833466Y-62160500D01*
X118833467Y-62160499D01*
X119036420Y-62120130D01*
X119227598Y-62040941D01*
X119399655Y-61925977D01*
X119545977Y-61779655D01*
X119660941Y-61607598D01*
X119740130Y-61416420D01*
X119780500Y-61213465D01*
X119780500Y-61006535D01*
X119740130Y-60803580D01*
X119660941Y-60612402D01*
X119545977Y-60440345D01*
X119545975Y-60440342D01*
X119399657Y-60294024D01*
X119231655Y-60181770D01*
X119227598Y-60179059D01*
X119036420Y-60099870D01*
X119036412Y-60099868D01*
X118833469Y-60059500D01*
X118833465Y-60059500D01*
X118626535Y-60059500D01*
X118626530Y-60059500D01*
X118423587Y-60099868D01*
X118423579Y-60099870D01*
X118232403Y-60179058D01*
X118060342Y-60294024D01*
X117914024Y-60440342D01*
X117799058Y-60612403D01*
X117719870Y-60803579D01*
X117719868Y-60803587D01*
X117679500Y-61006530D01*
X117240499Y-61006530D01*
X117200130Y-60803580D01*
X117120941Y-60612402D01*
X117005977Y-60440345D01*
X117005975Y-60440342D01*
X116859657Y-60294024D01*
X116691655Y-60181770D01*
X116687598Y-60179059D01*
X116496420Y-60099870D01*
X116496412Y-60099868D01*
X116293469Y-60059500D01*
X116293465Y-60059500D01*
X116086535Y-60059500D01*
X116086530Y-60059500D01*
X115883587Y-60099868D01*
X115883579Y-60099870D01*
X115692403Y-60179058D01*
X115520342Y-60294024D01*
X115374024Y-60440342D01*
X115259058Y-60612403D01*
X115179870Y-60803579D01*
X115179868Y-60803587D01*
X115139500Y-61006530D01*
X114700500Y-61006530D01*
X114700500Y-60240249D01*
X114700499Y-60240247D01*
X114688868Y-60181770D01*
X114688867Y-60181769D01*
X114644552Y-60115447D01*
X114578230Y-60071132D01*
X114578229Y-60071131D01*
X114519752Y-60059500D01*
X114519748Y-60059500D01*
X112780252Y-60059500D01*
X112780247Y-60059500D01*
X112721770Y-60071131D01*
X112721769Y-60071132D01*
X112655447Y-60115447D01*
X112611132Y-60181769D01*
X112611131Y-60181770D01*
X112599500Y-60240247D01*
X112599500Y-61684167D01*
X112579815Y-61751206D01*
X112563181Y-61771848D01*
X108520848Y-65814181D01*
X108459525Y-65847666D01*
X108433167Y-65850500D01*
X106384138Y-65850500D01*
X106317099Y-65830815D01*
X106271344Y-65778011D01*
X106261400Y-65708853D01*
X106273653Y-65670205D01*
X106351095Y-65518217D01*
X106416757Y-65316129D01*
X106416757Y-65316126D01*
X106427231Y-65250000D01*
X105379146Y-65250000D01*
X105417630Y-65183343D01*
X105450000Y-65062535D01*
X105450000Y-64937465D01*
X105417630Y-64816657D01*
X105379146Y-64750000D01*
X106427231Y-64750000D01*
X106416757Y-64683873D01*
X106416757Y-64683870D01*
X106351095Y-64481782D01*
X106254620Y-64292442D01*
X106129727Y-64120540D01*
X106129723Y-64120535D01*
X105979464Y-63970276D01*
X105979459Y-63970272D01*
X105807557Y-63845379D01*
X105618216Y-63748904D01*
X105496144Y-63709240D01*
X105438468Y-63669802D01*
X105411270Y-63605444D01*
X105423185Y-63536597D01*
X105470429Y-63485122D01*
X105487006Y-63476749D01*
X105597598Y-63430941D01*
X105769655Y-63315977D01*
X105915977Y-63169655D01*
X106030941Y-62997598D01*
X106110130Y-62806420D01*
X106150500Y-62603465D01*
X106150500Y-62396535D01*
X106149929Y-62393664D01*
X106150066Y-62392129D01*
X106149903Y-62390470D01*
X106150217Y-62390439D01*
X106156155Y-62324073D01*
X106183863Y-62281792D01*
X109228838Y-59236819D01*
X109290161Y-59203334D01*
X109316519Y-59200500D01*
X123398481Y-59200500D01*
X123465520Y-59220185D01*
X123486162Y-59236819D01*
X125263181Y-61013837D01*
X125296666Y-61075160D01*
X125299500Y-61101518D01*
X125299500Y-61979752D01*
X125311131Y-62038229D01*
X125311132Y-62038230D01*
X125355447Y-62104552D01*
X125421769Y-62148867D01*
X125421770Y-62148868D01*
X125480247Y-62160499D01*
X125480250Y-62160500D01*
X125480252Y-62160500D01*
X127219750Y-62160500D01*
X127219751Y-62160499D01*
X127234568Y-62157552D01*
X127278229Y-62148868D01*
X127278229Y-62148867D01*
X127278231Y-62148867D01*
X127344552Y-62104552D01*
X127388867Y-62038231D01*
X127388867Y-62038229D01*
X127388868Y-62038229D01*
X127400499Y-61979752D01*
X127400500Y-61979750D01*
X127400500Y-60240249D01*
X127400499Y-60240247D01*
X127388868Y-60181770D01*
X127388867Y-60181769D01*
X127344552Y-60115447D01*
X127278230Y-60071132D01*
X127278229Y-60071131D01*
X127219752Y-60059500D01*
X127219748Y-60059500D01*
X126341518Y-60059500D01*
X126274479Y-60039815D01*
X126253837Y-60023181D01*
X124186546Y-57955888D01*
X124186545Y-57955887D01*
X124071807Y-57879222D01*
X123944332Y-57826421D01*
X123944322Y-57826418D01*
X123808996Y-57799500D01*
X123808994Y-57799500D01*
X123808993Y-57799500D01*
X108906007Y-57799500D01*
X108906003Y-57799500D01*
X108797590Y-57821065D01*
X108797589Y-57821065D01*
X108770681Y-57826418D01*
X108770671Y-57826420D01*
X108643190Y-57879224D01*
X108528454Y-57955887D01*
X108528453Y-57955888D01*
X105071162Y-61413181D01*
X105009839Y-61446666D01*
X104983481Y-61449500D01*
X104746530Y-61449500D01*
X104543587Y-61489868D01*
X104543579Y-61489870D01*
X104352403Y-61569058D01*
X104180342Y-61684024D01*
X104034024Y-61830342D01*
X103919058Y-62002403D01*
X103839870Y-62193579D01*
X103839868Y-62193587D01*
X103799500Y-62396530D01*
X103799500Y-62603469D01*
X103839868Y-62806412D01*
X103839870Y-62806420D01*
X103919058Y-62997596D01*
X104034024Y-63169657D01*
X104180342Y-63315975D01*
X104180345Y-63315977D01*
X104352402Y-63430941D01*
X104462990Y-63476748D01*
X104517393Y-63520589D01*
X104539458Y-63586883D01*
X104522179Y-63654582D01*
X104471042Y-63702193D01*
X104453856Y-63709240D01*
X104331781Y-63748905D01*
X104142442Y-63845379D01*
X103970540Y-63970272D01*
X103970535Y-63970276D01*
X103820276Y-64120535D01*
X103820272Y-64120540D01*
X103695379Y-64292442D01*
X103598904Y-64481782D01*
X103533242Y-64683870D01*
X103533242Y-64683873D01*
X103522769Y-64750000D01*
X104570854Y-64750000D01*
X104532370Y-64816657D01*
X104500000Y-64937465D01*
X104500000Y-65062535D01*
X104532370Y-65183343D01*
X104570854Y-65250000D01*
X103522769Y-65250000D01*
X103533242Y-65316126D01*
X103533242Y-65316129D01*
X103598904Y-65518217D01*
X103695379Y-65707557D01*
X103820272Y-65879459D01*
X103820276Y-65879464D01*
X103970533Y-66029721D01*
X104025103Y-66069368D01*
X104067769Y-66124698D01*
X104073748Y-66194311D01*
X104041143Y-66256107D01*
X104039899Y-66257368D01*
X103315489Y-66981780D01*
X103259541Y-67037727D01*
X103259535Y-67037735D01*
X103219982Y-67106244D01*
X103219979Y-67106249D01*
X103206326Y-67157202D01*
X103199500Y-67182678D01*
X100500500Y-67182678D01*
X100500500Y-50002706D01*
X100500618Y-49997297D01*
X100505796Y-49878711D01*
X103149500Y-49878711D01*
X103149500Y-50121288D01*
X103181161Y-50361785D01*
X103243947Y-50596104D01*
X103336773Y-50820205D01*
X103336776Y-50820212D01*
X103458064Y-51030289D01*
X103458066Y-51030292D01*
X103458067Y-51030293D01*
X103605733Y-51222736D01*
X103605739Y-51222743D01*
X103777256Y-51394260D01*
X103777262Y-51394265D01*
X103969711Y-51541936D01*
X104179788Y-51663224D01*
X104403900Y-51756054D01*
X104638211Y-51818838D01*
X104818586Y-51842584D01*
X104878711Y-51850500D01*
X104878712Y-51850500D01*
X105121289Y-51850500D01*
X105169388Y-51844167D01*
X105361789Y-51818838D01*
X105596100Y-51756054D01*
X105820212Y-51663224D01*
X106030289Y-51541936D01*
X106222738Y-51394265D01*
X106394265Y-51222738D01*
X106541936Y-51030289D01*
X106663224Y-50820212D01*
X106756054Y-50596100D01*
X106818838Y-50361789D01*
X106850500Y-50121288D01*
X106850500Y-49878712D01*
X106850500Y-49878711D01*
X133149500Y-49878711D01*
X133149500Y-50121288D01*
X133181161Y-50361785D01*
X133243947Y-50596104D01*
X133336773Y-50820205D01*
X133336776Y-50820212D01*
X133458064Y-51030289D01*
X133458066Y-51030292D01*
X133458067Y-51030293D01*
X133605733Y-51222736D01*
X133605739Y-51222743D01*
X133777256Y-51394260D01*
X133777262Y-51394265D01*
X133969711Y-51541936D01*
X134179788Y-51663224D01*
X134403900Y-51756054D01*
X134638211Y-51818838D01*
X134818586Y-51842584D01*
X134878711Y-51850500D01*
X134878712Y-51850500D01*
X135121289Y-51850500D01*
X135169388Y-51844167D01*
X135361789Y-51818838D01*
X135596100Y-51756054D01*
X135820212Y-51663224D01*
X136030289Y-51541936D01*
X136222738Y-51394265D01*
X136394265Y-51222738D01*
X136541936Y-51030289D01*
X136663224Y-50820212D01*
X136756054Y-50596100D01*
X136818838Y-50361789D01*
X136850500Y-50121288D01*
X136850500Y-49878712D01*
X136849253Y-49869243D01*
X136818838Y-49638214D01*
X136818838Y-49638211D01*
X136756054Y-49403900D01*
X136663224Y-49179788D01*
X136541936Y-48969711D01*
X136394265Y-48777262D01*
X136394260Y-48777256D01*
X136222743Y-48605739D01*
X136222736Y-48605733D01*
X136030293Y-48458067D01*
X136030292Y-48458066D01*
X136030289Y-48458064D01*
X135820212Y-48336776D01*
X135820205Y-48336773D01*
X135596104Y-48243947D01*
X135361785Y-48181161D01*
X135121289Y-48149500D01*
X135121288Y-48149500D01*
X134878712Y-48149500D01*
X134878711Y-48149500D01*
X134638214Y-48181161D01*
X134403895Y-48243947D01*
X134179794Y-48336773D01*
X134179785Y-48336777D01*
X133969706Y-48458067D01*
X133777263Y-48605733D01*
X133777256Y-48605739D01*
X133605739Y-48777256D01*
X133605733Y-48777263D01*
X133458067Y-48969706D01*
X133336777Y-49179785D01*
X133336773Y-49179794D01*
X133243947Y-49403895D01*
X133181161Y-49638214D01*
X133149500Y-49878711D01*
X106850500Y-49878711D01*
X106849253Y-49869243D01*
X106818838Y-49638214D01*
X106818838Y-49638211D01*
X106756054Y-49403900D01*
X106663224Y-49179788D01*
X106541936Y-48969711D01*
X106394265Y-48777262D01*
X106394260Y-48777256D01*
X106222743Y-48605739D01*
X106222736Y-48605733D01*
X106030293Y-48458067D01*
X106030292Y-48458066D01*
X106030289Y-48458064D01*
X105820212Y-48336776D01*
X105820205Y-48336773D01*
X105596104Y-48243947D01*
X105361785Y-48181161D01*
X105121289Y-48149500D01*
X105121288Y-48149500D01*
X104878712Y-48149500D01*
X104878711Y-48149500D01*
X104638214Y-48181161D01*
X104403895Y-48243947D01*
X104179794Y-48336773D01*
X104179785Y-48336777D01*
X103969706Y-48458067D01*
X103777263Y-48605733D01*
X103777256Y-48605739D01*
X103605739Y-48777256D01*
X103605733Y-48777263D01*
X103458067Y-48969706D01*
X103336777Y-49179785D01*
X103336773Y-49179794D01*
X103243947Y-49403895D01*
X103181161Y-49638214D01*
X103149500Y-49878711D01*
X100505796Y-49878711D01*
X100506209Y-49869244D01*
X100506209Y-49869243D01*
X100510433Y-49772498D01*
X100517386Y-49613228D01*
X100518326Y-49602495D01*
X100568152Y-49224025D01*
X100570025Y-49213405D01*
X100652649Y-48840709D01*
X100655440Y-48830295D01*
X100770230Y-48466227D01*
X100773917Y-48456095D01*
X100920003Y-48103412D01*
X100924561Y-48093638D01*
X101100822Y-47755045D01*
X101106217Y-47745700D01*
X101311325Y-47423744D01*
X101317515Y-47414905D01*
X101549896Y-47112060D01*
X101556834Y-47103791D01*
X101814726Y-46822352D01*
X101822352Y-46814726D01*
X102103791Y-46556834D01*
X102112060Y-46549896D01*
X102414905Y-46317515D01*
X102423744Y-46311325D01*
X102745700Y-46106217D01*
X102755045Y-46100822D01*
X103093638Y-45924561D01*
X103103412Y-45920003D01*
X103456095Y-45773917D01*
X103466227Y-45770230D01*
X103830295Y-45655440D01*
X103840709Y-45652649D01*
X104213405Y-45570025D01*
X104224025Y-45568152D01*
X104602495Y-45518326D01*
X104613226Y-45517386D01*
X104997297Y-45500617D01*
X105002706Y-45500500D01*
X105065892Y-45500500D01*
X134934108Y-45500500D01*
X134997294Y-45500500D01*
X135002702Y-45500617D01*
G37*
%TD.AperFunction*%
%TD*%
M02*
